<svg width="107" height="72" viewBox="0 0 107 72" fill="none" xmlns="http://www.w3.org/2000/svg">
<g clip-path="url(#clip0_260_285)">
<g filter="url(#filter0_d_260_285)">
<path d="M1.42256e-06 60L0 33.5926C-1.9035e-07 30.0591 2.31819 26.9441 5.70292 25.9295L43.2029 14.6886C44.7014 14.2394 46.2986 14.2394 47.7971 14.6886L85.2971 25.9295C88.6818 26.9441 91 30.0591 91 33.5926V60H1.42256e-06Z" fill="#4877B5"/>
</g>
<path d="M33.6797 45.6016C32.4245 45.6016 31.4323 46.0208 30.7031 46.8594C29.9792 47.6927 29.6172 48.8359 29.6172 50.2891C29.6172 51.7839 29.9661 52.9401 30.6641 53.7578C31.3672 54.5703 32.3672 54.9766 33.6641 54.9766C34.4609 54.9766 35.3698 54.8333 36.3906 54.5469V55.7108C35.599 56.0077 34.6224 56.1562 33.4609 56.1562C31.7786 56.1562 30.4792 55.6458 29.5625 54.625C28.651 53.6042 28.1953 52.1535 28.1953 50.2733C28.1953 49.0963 28.4141 48.065 28.8516 47.1796C29.2943 46.2942 29.9297 45.612 30.7578 45.1328C31.5911 44.6536 32.5703 44.4141 33.6953 44.4141C34.8932 44.4141 35.9401 44.6328 36.8359 45.0703L36.2734 46.2108C35.4089 45.8046 34.5443 45.6016 33.6797 45.6016ZM46.0781 51.7108C46.0781 53.1067 45.7266 54.1979 45.0234 54.9844C44.3203 55.7656 43.349 56.1562 42.1094 56.1562C41.3438 56.1562 40.6641 55.9765 40.0703 55.6171C39.4766 55.2577 39.0182 54.7422 38.6953 54.0703C38.3724 53.3984 38.2109 52.6119 38.2109 51.7108C38.2109 50.315 38.5599 49.2291 39.2578 48.453C39.9557 47.6718 40.9245 47.2812 42.1641 47.2812C43.362 47.2812 44.3125 47.6797 45.0156 48.4766C45.724 49.2734 46.0781 50.3515 46.0781 51.7108ZM39.5547 51.7108C39.5547 52.8046 39.7734 53.6379 40.2109 54.2108C40.6484 54.7838 41.2917 55.0703 42.1406 55.0703C42.9896 55.0703 43.6328 54.7865 44.0703 54.2188C44.513 53.6457 44.7344 52.8098 44.7344 51.7108C44.7344 50.6223 44.513 49.7969 44.0703 49.2344C43.6328 48.6667 42.9844 48.3828 42.125 48.3828C41.276 48.3828 40.6354 48.6615 40.2031 49.2188C39.7708 49.776 39.5547 50.6067 39.5547 51.7108ZM54.1875 54.8516H54.1172C53.5182 55.7214 52.6224 56.1562 51.4297 56.1562C50.3099 56.1562 49.4375 55.7734 48.8125 55.0078C48.1927 54.2422 47.8828 53.1535 47.8828 51.7421C47.8828 50.3306 48.1953 49.2343 48.8203 48.453C49.4453 47.6718 50.3151 47.2812 51.4297 47.2812C52.5911 47.2812 53.4818 47.7031 54.1016 48.5469H54.2031L54.1484 47.9296L54.1172 47.328V43.8438H55.4141V56H54.3594L54.1875 54.8516ZM51.5938 55.0703C52.4792 55.0703 53.1198 54.8307 53.5156 54.3516C53.9167 53.8672 54.1172 53.0884 54.1172 52.0155V51.7421C54.1172 50.5285 53.9141 49.664 53.5078 49.1483C53.1068 48.6275 52.4635 48.3671 51.5781 48.3671C50.8177 48.3671 50.2344 48.6641 49.8281 49.2578C49.4271 49.8464 49.2266 50.6797 49.2266 51.7578C49.2266 52.8516 49.4271 53.6771 49.8281 54.2344C50.2292 54.7917 50.8177 55.0703 51.5938 55.0703ZM61.7891 56.1562C60.5234 56.1562 59.5234 55.7708 58.7891 55C58.0599 54.2292 57.6953 53.1589 57.6953 51.7891C57.6953 50.4089 58.0339 49.3125 58.7109 48.5C59.3932 47.6875 60.3073 47.2812 61.4531 47.2812C62.526 47.2812 63.375 47.6353 64 48.3438C64.625 49.0469 64.9375 49.9766 64.9375 51.1328V51.953H59.0391C59.0651 52.9582 59.3177 53.7213 59.7969 54.2421C60.2812 54.7629 60.9609 55.0233 61.8359 55.0233C62.7578 55.0233 63.6693 54.8307 64.5703 54.4453V55.6016C64.112 55.7995 63.6771 55.94 63.2656 56.0233C62.8594 56.1119 62.3672 56.1562 61.7891 56.1562ZM61.4375 48.3671C60.75 48.3671 60.2005 48.5911 59.7891 49.0391C59.3828 49.487 59.1432 50.1067 59.0703 50.8983H63.5469C63.5469 50.0806 63.3646 49.4556 63 49.0233C62.6354 48.5858 62.1146 48.3671 61.4375 48.3671Z" fill="white"/>
<path d="M36.3208 38.5283L22 31.4695V29.4832L36.3208 21.4723V24.6733L25.5765 30.3204L36.3208 35.2944V38.5283Z" fill="white"/>
<path d="M51.6067 18.1562L43.6327 42.1562H40.3787L48.3673 18.1562H51.6067Z" fill="white"/>
<path d="M55.6792 35.2944L66.4235 30.3204L55.6792 24.6733V21.4723L70 29.4832V31.4695L55.6792 38.5283V35.2944Z" fill="white"/>
</g>
<defs>
<filter id="filter0_d_260_285" x="0" y="14.3517" width="103" height="57.6483" filterUnits="userSpaceOnUse" color-interpolation-filters="sRGB">
<feFlood flood-opacity="0" result="BackgroundImageFix"/>
<feColorMatrix in="SourceAlpha" type="matrix" values="0 0 0 0 0 0 0 0 0 0 0 0 0 0 0 0 0 0 127 0" result="hardAlpha"/>
<feOffset dx="6" dy="6"/>
<feGaussianBlur stdDeviation="3"/>
<feColorMatrix type="matrix" values="0 0 0 0 0 0 0 0 0 0 0 0 0 0 0 0 0 0 0.35 0"/>
<feBlend mode="normal" in2="BackgroundImageFix" result="effect1_dropShadow_260_285"/>
<feBlend mode="normal" in="SourceGraphic" in2="effect1_dropShadow_260_285" result="shape"/>
</filter>
<clipPath id="clip0_260_285">
<rect width="107" height="72" fill="white"/>
</clipPath>
</defs>
</svg>
