<?xml version="1.0" encoding="UTF-8"?>
<svg width="18px" height="21px" viewBox="0 0 18 21" version="1.1" xmlns="http://www.w3.org/2000/svg" xmlns:xlink="http://www.w3.org/1999/xlink">
    <!-- Generator: Sketch 52.2 (67145) - http://www.bohemiancoding.com/sketch -->
    <title>Group 15 Copy</title>
    <desc>Created with Sketch.</desc>
    <defs>
        <polygon id="path-1" points="0.000551155816 0.402639136 17.8251316 0.402639136 17.8251316 20.4285714 0.000551155816 20.4285714"></polygon>
    </defs>
    <g id="Page-1" stroke="none" stroke-width="1" fill="none" fill-rule="evenodd">
        <g id="Group-15-Copy" transform="translate(0.000000, -1.000000)">
            <g id="Group-14">
                <path d="M16.7116714,5.6287 C16.6833857,5.22798571 16.4775286,4.85398571 16.1443857,4.59627143 C15.8143857,4.34012857 15.3791,4.22384286 14.9516714,4.26784286 C14.8589571,4.27884286 13.6599571,4.39984286 12.4185286,4.04941429 C11.3861,3.75555714 10.3018143,2.9667 9.97495714,2.68855714 C9.3731,2.1747 8.45224286,2.17627143 7.85038571,2.69012857 C7.54867143,2.94784286 6.45024286,3.75398571 5.40838571,4.04941429 C4.17481429,4.39984286 2.95695714,4.27727143 2.8831,4.26941429 C2.44624286,4.2207 2.01881429,4.33541429 1.6841,4.59312857 C1.34938571,4.84927143 1.14352857,5.22484286 1.11524286,5.6287 C1.0131,7.11212857 0.829242857,12.2459857 2.76052857,15.9907 C4.66667143,19.6741286 8.29667143,20.7552714 8.4491,20.7992714 C8.59995714,20.8432714 8.7571,20.8652714 8.91267143,20.8652714 C9.06981429,20.8652714 9.22538571,20.8432714 9.37624286,20.7992714 C9.53024286,20.7552714 13.1602429,19.6741286 15.0663857,15.9891286 C16.9992429,12.2428429 16.8138143,7.11212857 16.7116714,5.6287" id="Fill-1" fill="#FFFFFF"></path>
                <g id="Group-5" transform="translate(0.000000, 1.168986)">
                    <mask id="mask-2" fill="white">
                        <use xlink:href="#path-1"></use>
                    </mask>
                    <g id="Clip-4"></g>
                    <path d="M8.91125714,20.4287286 C8.67082857,20.4287286 8.42725714,20.3957286 8.19468571,20.3313 C7.76411429,20.2087286 3.91725714,19.0411571 1.83825714,15.1393 C-0.240742857,11.2343 -0.0474571429,5.94172857 0.0609714286,4.41272857 C0.104971429,3.80615714 0.4224,3.24358571 0.940971429,2.85858571 C1.4564,2.47201429 2.13054286,2.29601429 2.79368571,2.37458571 C2.8754,2.38087143 3.98797143,2.47201429 5.06125714,2.17972857 C6.00882857,1.91887143 7.04282857,1.16772857 7.26911429,0.980728571 C8.19625714,0.209157143 9.62468571,0.210728571 10.5549714,0.980728571 C10.8535429,1.2243 11.8498286,1.9283 12.7644,2.17972857 C13.8392571,2.47358571 14.9251143,2.38558571 15.0461143,2.37144286 C15.7092571,2.30544286 16.3786857,2.48301429 16.8894,2.86958571 C17.4001143,3.25458571 17.7206857,3.81244286 17.7646857,4.41272857 C17.8731143,5.94015714 18.0664,11.2311571 15.9889714,15.1377286 C13.9084,19.0427286 10.0599714,20.2103 9.6294,20.3313 C9.39525714,20.3957286 9.15325714,20.4287286 8.91125714,20.4287286" id="Fill-3" fill="#3D3D3D" mask="url(#mask-2)"></path>
                </g>
                <path d="M1.47462857,11.7272571 C1.76848571,13.1918286 2.22891429,14.6815429 2.95805714,15.9936857 C4.91291429,19.5168286 8.53191429,20.6168286 8.85091429,20.7079714 L8.85091429,11.7272571 L1.47462857,11.7272571 Z" id="Fill-6" fill="#FDBC36"></path>
                <path d="M5.07932857,4.41021429 C3.0459,4.94607143 1.0769,4.72764286 1.0769,4.72764286 C1.00304286,5.72864286 0.864757143,8.6735 1.47447143,11.7267857 L8.85075714,11.7267857 L8.85075714,2.48992857 C8.56004286,2.71307143 6.92418571,3.92307143 5.07932857,4.41021429" id="Fill-8" fill="#2969B2"></path>
                <path d="M8.85138571,11.7272571 L8.85138571,20.7079714 C8.8671,20.7111143 8.91267143,20.7268286 8.91267143,20.7268286 C8.91267143,20.7268286 12.8208143,19.6802571 14.8683857,15.9936857 C15.5975286,14.6815429 16.0595286,13.1918286 16.3502429,11.7272571 L8.85138571,11.7272571 Z" id="Fill-10" fill="#2969B2"></path>
                <path d="M16.7484429,4.72795714 C16.7484429,4.72795714 14.7794429,4.94638571 12.7460143,4.41052857 C10.7094429,3.8731 8.9133,2.4431 8.9133,2.4431 L8.85201429,2.49024286 L8.85201429,11.7271 L16.3508714,11.7271 C16.9605857,8.67381429 16.8223,5.72895714 16.7484429,4.72795714" id="Fill-12" fill="#FDBC36"></path>
            </g>
        </g>
    </g>
</svg>