<svg width="24" height="24" viewBox="0 0 24 24" fill="none" xmlns="http://www.w3.org/2000/svg">
<g id="cookies blocker">
<path id="icon" fill-rule="evenodd" clip-rule="evenodd" d="M12 2C6.47715 2 2 6.47715 2 12C2 17.5228 6.47715 22 12 22C12.2229 22 12.4441 21.9927 12.6634 21.9783C12.3735 21.3626 12.1707 20.6978 12.0708 19.9997C12.0564 19.9998 12.0419 19.9999 12.0274 20C12.0183 20 12.0091 20 12 20C7.58172 20 4 16.4183 4 12C4 7.58172 7.58172 4 12 4C12.3637 4 12.7214 4.02421 13.0716 4.07104C13.0244 4.37414 13 4.68443 13 5C13 8.31371 15.6863 11 19 11C19.3156 11 19.6259 10.9756 19.929 10.9284C19.9758 11.2786 20 11.6363 20 12C20 12.0236 19.9999 12.0473 19.9997 12.0708C20.6978 12.1707 21.3626 12.3735 21.9783 12.6634C21.9927 12.4441 22 12.2229 22 12C22 11.1191 21.8859 10.2634 21.671 9.44751C21.5995 9.17587 21.417 8.94684 21.1683 8.81643C20.9195 8.68602 20.6273 8.66626 20.3632 8.76198C19.9391 8.91572 19.4805 9 19 9C16.7909 9 15 7.20914 15 5C15 4.51951 15.0843 4.06091 15.238 3.63677C15.3337 3.37269 15.314 3.08053 15.1836 2.83174C15.0532 2.58295 14.8241 2.40048 14.5525 2.32896C13.7366 2.11414 12.8809 2 12 2ZM9 12C10.1046 12 11 11.1046 11 10C11 8.89543 10.1046 8 9 8C7.89543 8 7 8.89543 7 10C7 11.1046 7.89543 12 9 12ZM8 14C8 14.5523 7.55228 15 7 15C6.44772 15 6 14.5523 6 14C6 13.4477 6.44772 13 7 13C7.55228 13 8 13.4477 8 14ZM14 13C14 13.5523 13.5523 14 13 14C12.4477 14 12 13.5523 12 13C12 12.4477 12.4477 12 13 12C13.5523 12 14 12.4477 14 13ZM24 19C24 21.7615 21.7614 24 19 24C16.2386 24 14 21.7615 14 19C14 16.2385 16.2386 14 19 14C21.7614 14 24 16.2385 24 19ZM16 19C16 18.4478 16.4477 18 17 18H21C21.5523 18 22 18.4478 22 19C22 19.5522 21.5523 20 21 20H17C16.4477 20 16 19.5522 16 19Z" fill="#161616"/>
</g>
</svg>
