<svg width="20" height="20" viewBox="0 0 20 20" fill="none" xmlns="http://www.w3.org/2000/svg">
<mask id="path-1-inside-1_5085_11936" fill="white">
<path fill-rule="evenodd" clip-rule="evenodd" d="M10 20C15.5228 20 20 15.5228 20 10C20 4.47715 15.5228 0 10 0C4.47715 0 0 4.47715 0 10C0 15.5228 4.47715 20 10 20ZM9 6C9 5.44772 9.44771 5 10 5C10.5523 5 11 5.44772 11 6C11 6.55228 10.5523 7 10 7C9.44771 7 9 6.55228 9 6ZM9 9C9 8.44772 9.44771 8 10 8C10.5523 8 11 8.44772 11 9V14C11 14.5523 10.5523 15 10 15C9.44771 15 9 14.5523 9 14V9Z"/>
</mask>
<path fill-rule="evenodd" clip-rule="evenodd" d="M10 20C15.5228 20 20 15.5228 20 10C20 4.47715 15.5228 0 10 0C4.47715 0 0 4.47715 0 10C0 15.5228 4.47715 20 10 20ZM9 6C9 5.44772 9.44771 5 10 5C10.5523 5 11 5.44772 11 6C11 6.55228 10.5523 7 10 7C9.44771 7 9 6.55228 9 6ZM9 9C9 8.44772 9.44771 8 10 8C10.5523 8 11 8.44772 11 9V14C11 14.5523 10.5523 15 10 15C9.44771 15 9 14.5523 9 14V9Z" fill="#1E7FDE"/>
<path d="M18 10C18 14.4183 14.4183 18 10 18V22C16.6274 22 22 16.6274 22 10H18ZM10 2C14.4183 2 18 5.58172 18 10H22C22 3.37258 16.6274 -2 10 -2V2ZM2 10C2 5.58172 5.58172 2 10 2V-2C3.37258 -2 -2 3.37258 -2 10H2ZM10 18C5.58172 18 2 14.4183 2 10H-2C-2 16.6274 3.37258 22 10 22V18ZM10 3C8.34314 3 7 4.34315 7 6H11C11 6.55228 10.5523 7 10 7V3ZM13 6C13 4.34315 11.6569 3 10 3V7C9.44772 7 9 6.55229 9 6H13ZM10 9C11.6569 9 13 7.65685 13 6H9C9 5.44771 9.44772 5 10 5V9ZM7 6C7 7.65685 8.34314 9 10 9V5C10.5523 5 11 5.44772 11 6H7ZM10 6C8.34314 6 7 7.34315 7 9H11C11 9.55228 10.5523 10 10 10V6ZM13 9C13 7.34315 11.6569 6 10 6V10C9.44771 10 9 9.55229 9 9H13ZM13 14V9H9V14H13ZM10 17C11.6569 17 13 15.6569 13 14H9C9 13.4477 9.44772 13 10 13V17ZM7 14C7 15.6569 8.34314 17 10 17V13C10.5523 13 11 13.4477 11 14H7ZM7 9V14H11V9H7Z" fill="#1E7FDE" mask="url(#path-1-inside-1_5085_11936)"/>
</svg>
