<svg width="10" height="10" viewBox="0 0 10 10" fill="none" xmlns="http://www.w3.org/2000/svg">
<g id="protected-s">
<path id="icon" fill-rule="evenodd" clip-rule="evenodd" d="M5 10C7.76142 10 10 7.76142 10 5C10 2.23858 7.76142 0 5 0C2.23858 0 0 2.23858 0 5C0 7.76142 2.23858 10 5 10ZM7.4032 3.79568C7.5665 3.573 7.51836 3.2601 7.29568 3.0968C7.073 2.9335 6.7601 2.98164 6.5968 3.20432L4.25533 6.39723L3.40687 5.20938C3.24636 4.98467 2.93409 4.93263 2.70938 5.09313C2.48467 5.25364 2.43263 5.56591 2.59313 5.79062L3.64236 7.25954C3.93919 7.67509 4.55548 7.67895 4.85747 7.26714L7.4032 3.79568Z" fill="#00A538"/>
</g>
</svg>
