<svg width="24" height="24" viewBox="0 0 24 24" fill="none" xmlns="http://www.w3.org/2000/svg">
<g id="question">
<g id="icon">
<path d="M10.6926 13.8341L10.7013 14.5071H12.71V13.9763C12.71 13.6603 12.7532 13.3855 12.8398 13.1517C12.9264 12.9179 13.0736 12.6967 13.2814 12.4882C13.4949 12.2796 13.7893 12.0553 14.1645 11.8152C14.557 11.5561 14.8889 11.2717 15.1602 10.9621C15.4372 10.6461 15.645 10.2923 15.7836 9.90047C15.9279 9.50869 16 9.07267 16 8.59242V8.57346C16 7.87836 15.8326 7.26224 15.4978 6.72512C15.1688 6.18799 14.7071 5.76777 14.1126 5.46445C13.5238 5.15482 12.8341 5 12.0433 5C11.189 5 10.4646 5.16746 9.87013 5.50237C9.28139 5.83096 8.82828 6.28594 8.51082 6.8673C8.19336 7.44234 8.02309 8.09321 8 8.81991V8.85782H10.026L10.0346 8.82938C10.0577 8.45024 10.1472 8.11848 10.303 7.83412C10.4646 7.54976 10.684 7.32859 10.961 7.17062C11.2381 7.01264 11.5613 6.93365 11.9307 6.93365C12.2944 6.93365 12.6118 7.00948 12.8831 7.16114C13.1602 7.30648 13.3737 7.50869 13.5238 7.76777C13.6739 8.02686 13.7489 8.32385 13.7489 8.65877V8.67772C13.7489 8.98736 13.7027 9.25908 13.6104 9.49289C13.5238 9.7267 13.3766 9.94787 13.1688 10.1564C12.961 10.3649 12.6753 10.5893 12.3117 10.8294C11.9192 11.0885 11.5988 11.3633 11.3506 11.654C11.1025 11.9384 10.9264 12.2575 10.8225 12.6114C10.7186 12.9652 10.6753 13.3728 10.6926 13.8341Z" fill="#F0F0F0"/>
<path d="M10.7792 18.6019C11.039 18.8673 11.3766 19 11.7922 19C12.2078 19 12.5426 18.8673 12.7965 18.6019C13.0505 18.3302 13.1775 17.9795 13.1775 17.5498C13.1775 17.1074 13.0505 16.7536 12.7965 16.4882C12.5426 16.2227 12.2078 16.09 11.7922 16.09C11.3766 16.09 11.039 16.2227 10.7792 16.4882C10.5195 16.7536 10.3896 17.1074 10.3896 17.5498C10.3896 17.9795 10.5195 18.3302 10.7792 18.6019Z" fill="#F0F0F0"/>
<path fill-rule="evenodd" clip-rule="evenodd" d="M22 12C22 17.5228 17.5228 22 12 22C6.47715 22 2 17.5228 2 12C2 6.47715 6.47715 2 12 2C17.5228 2 22 6.47715 22 12ZM20 12C20 16.4183 16.4183 20 12 20C7.58172 20 4 16.4183 4 12C4 7.58172 7.58172 4 12 4C16.4183 4 20 7.58172 20 12Z" fill="#F0F0F0"/>
</g>
</g>
</svg>
