<svg width="24" height="24" viewBox="0 0 24 24" fill="none" xmlns="http://www.w3.org/2000/svg">
<path fill-rule="evenodd" clip-rule="evenodd" d="M9.73741 1C8.63284 1 7.73741 1.89543 7.73741 3V3.92375C7.34063 4.11596 6.96004 4.33556 6.59822 4.58007L6.02849 4.25841C5.07978 3.72277 3.87687 4.04502 3.32297 4.98319L1.27777 8.44729C1.00468 8.90984 0.929131 9.46279 1.06813 9.98164C1.20712 10.5005 1.54898 10.9416 2.01672 11.2057L2.63547 11.555C2.62813 11.7026 2.62443 11.8509 2.62443 12C2.62443 12.3001 2.63944 12.5971 2.66882 12.8903L2.01679 13.2584C1.54904 13.5225 1.20719 13.9636 1.06819 14.4825C0.929199 15.0013 1.00475 15.5543 1.27784 16.0168L3.32304 19.4809C3.87693 20.4191 5.07984 20.7413 6.02856 20.2057L6.9835 19.6665C7.22746 19.8143 7.479 19.9511 7.73741 20.0763V21C7.73741 22.1046 8.63284 23 9.73741 23H13.8278C14.9324 23 15.8278 22.1046 15.8278 21V20.0763C16.1575 19.9166 16.476 19.738 16.7818 19.5419L17.9575 20.2057C18.9062 20.7413 20.1091 20.4191 20.663 19.4809L22.7082 16.0168C22.9813 15.5543 23.0569 15.0013 22.9179 14.4825C22.7789 13.9636 22.437 13.5225 21.9693 13.2584L20.9162 12.6639C20.9325 12.4445 20.9408 12.2231 20.9408 12C20.9408 11.9291 20.94 11.8584 20.9383 11.7878L21.9693 11.2057C22.4371 10.9416 22.7789 10.5005 22.9179 9.98164C23.0569 9.46279 22.9814 8.90984 22.7083 8.44729L20.6631 4.98319C20.1092 4.04502 18.9063 3.72277 17.9576 4.25841L17.1558 4.71108C16.7383 4.41346 16.2942 4.14967 15.8278 3.92373V3C15.8278 1.89543 14.9324 1 13.8278 1H9.73741ZM9.73741 5.28988C8.61438 5.61673 7.60684 6.20584 6.78908 6.98457L5.04521 6L4.017 7.74154L3.00001 9.4641L4.74193 10.4476L4.7943 10.4771C4.68308 10.9674 4.62443 11.477 4.62443 12C4.62443 12.6686 4.72029 13.3153 4.8993 13.9277L4.74199 14.0165L3.00007 15L4.01707 16.7226L5.04528 18.4641L7.10667 17.3003C7.86225 17.9383 8.7557 18.4244 9.73741 18.7101V19V21H11.7374H11.8278H13.8278V19V18.7101C14.8822 18.4033 15.8348 17.8652 16.6241 17.1561L18.9408 18.4641L19.969 16.7226L20.986 15L19.2441 14.0165L18.7226 13.7221C18.8651 13.1712 18.9408 12.5942 18.9408 12C18.9408 11.5521 18.8978 11.114 18.8156 10.6895L19.2441 10.4476L20.986 9.4641L19.9691 7.74154L18.9408 6L16.9298 7.13539C16.0861 6.2818 15.0223 5.6375 13.8278 5.28987V5V3H11.8278H11.7374H9.73741V5V5.28988ZM13.873 12C13.873 13.0627 12.9795 14 11.7826 14C10.5857 14 9.69222 13.0627 9.69222 12C9.69222 10.9373 10.5857 10 11.7826 10C12.9795 10 13.873 10.9373 13.873 12ZM15.873 12C15.873 14.2091 14.0417 16 11.7826 16C9.52355 16 7.69222 14.2091 7.69222 12C7.69222 9.79086 9.52355 8 11.7826 8C14.0417 8 15.873 9.79086 15.873 12Z" fill="#CECECE"/>
</svg>
