<svg width="20" height="19" viewBox="0 0 20 19" fill="none" xmlns="http://www.w3.org/2000/svg">
<path id="Subtract" fill-rule="evenodd" clip-rule="evenodd" d="M1 0C0.447715 0 0 0.447715 0 1C0 1.55228 0.447715 2 1 2H2.42682L6.49593 9.98089L5.94125 10.3889C4.38528 11.5333 5.19474 14 7.12624 14H10.2899C10.5049 13.2776 10.8334 12.604 11.2547 12H7.12624L8.48586 11H12.101C13.3636 9.76281 15.0927 9 17 9C17.3365 9 17.6675 9.02374 17.9913 9.06965L19.945 3.32182C20.1654 2.67322 19.6832 2 18.9982 2H4.67177L4.20859 1.09155C3.86707 0.421701 3.17871 0 2.42682 0H1ZM5.81395 4L8.36324 9H15.9026L17.6021 4H5.81395ZM10 17C10 18.1046 9.10457 19 8 19C6.89543 19 6 18.1046 6 17C6 15.8954 6.89543 15 8 15C9.10457 15 10 15.8954 10 17Z" fill="#CECECE"/>
</svg>
