<svg width="20" height="20" viewBox="0 0 20 20" fill="none" xmlns="http://www.w3.org/2000/svg">
<path id="Subtract" fill-rule="evenodd" clip-rule="evenodd" d="M0 10C0 4.48 4.48 0 10 0C15.52 0 20 4.48 20 10C20 11.0835 19.8274 12.1268 19.5082 13.1041L17.9925 10.348C17.9975 10.2327 18 10.1166 18 10C18 6.65 15.93 3.78 13 2.59V3C13 4.1 12.1 5 11 5H9V7C9 7.55 8.55 8 8 8H6V10H12C12.55 10 13 10.45 13 11V13.9983L9.70177 19.9956C4.31954 19.8377 0 15.4202 0 10ZM2 10C2 14.08 5.05 17.44 9 17.93V16C7.9 16 7 15.1 7 14V13L2.21 8.21C2.08 8.79 2 9.38 2 10Z" fill="#161616"/>
</svg>
