<svg width="16" height="17" viewBox="0 0 16 17" fill="none" xmlns="http://www.w3.org/2000/svg">
<path fill-rule="evenodd" clip-rule="evenodd" d="M2.93277 11.8759C3.27131 11.5175 3.45784 11.2194 3.52609 10.9824C3.55784 10.8722 3.56031 10.7941 3.54757 10.7395C2.18981 10.0637 1.33301 8.86741 1.33301 7.53604C1.33301 5.82014 2.7513 4.3539 4.73882 3.90801C5.14362 3.81787 5.56303 3.77148 5.98767 3.77148C7.34192 3.77148 8.60397 4.24182 9.48293 5.05137C9.50626 5.07286 9.52583 5.09691 9.54161 5.1227C9.69234 5.11087 9.8451 5.10482 9.99953 5.10482C10.4258 5.10482 10.8455 5.15112 11.2521 5.24142C13.2446 5.68699 14.6663 7.1529 14.6663 8.86891C14.6663 10.2178 13.7848 11.4284 12.3933 12.0991C12.3921 12.1158 12.3928 12.1385 12.3967 12.1678C12.4278 12.4012 12.6305 12.7526 13.0628 13.2089C13.264 13.4214 13.1134 13.7715 12.8208 13.7715C11.9193 13.7715 11.1513 13.5401 10.5182 13.1535C10.2187 12.9706 9.99619 12.7851 9.848 12.6313C8.42057 12.5944 7.11463 12.0376 6.27311 11.1383C6.26586 11.1503 6.25777 11.1619 6.24884 11.1732C6.11317 11.3443 5.85599 11.584 5.47163 11.8196C4.84033 12.2066 4.07425 12.4382 3.17511 12.4382C2.8827 12.4382 2.732 12.0885 2.93277 11.8759ZM5.8848 10.649C5.52532 10.1076 5.33301 9.49993 5.33301 8.86891C5.33301 7.14508 6.75303 5.71316 8.68074 5.25697C7.95566 4.73735 7.00462 4.43815 5.98767 4.43815C5.6119 4.43815 5.24108 4.47917 4.88423 4.55863C3.17977 4.94101 1.99967 6.16101 1.99967 7.53604C1.99967 8.62244 2.73613 9.62297 3.93326 10.1855C3.97155 10.2035 4.00605 10.2286 4.03495 10.2595C4.07084 10.2979 4.10947 10.354 4.14317 10.4289C4.29483 10.7657 4.24022 11.1951 3.91566 11.7069C4.3709 11.6244 4.77264 11.4661 5.12323 11.2512C5.30671 11.1388 5.46206 11.0189 5.58941 10.9002C5.66261 10.8319 5.70827 10.7819 5.7265 10.7589C5.7689 10.7055 5.8244 10.6685 5.8848 10.649ZM12.2577 12.1495C12.2751 12.1466 12.2906 12.1428 12.3044 12.1384L12.3016 12.139C12.2872 12.1435 12.2726 12.147 12.2577 12.1495ZM12.0809 13.0408C11.6227 12.9585 11.2184 12.8 10.8657 12.5846C10.6816 12.4721 10.5257 12.3523 10.3979 12.2336C10.3244 12.1653 10.2786 12.1153 10.2603 12.0924C10.1971 12.0129 10.1011 11.9666 9.99953 11.9666C8.52649 11.9666 7.2005 11.3422 6.50034 10.3674C6.17277 9.91036 5.99967 9.3988 5.99967 8.86891C5.99967 7.17746 7.7755 5.77148 9.99953 5.77148C10.3771 5.77148 10.7483 5.81244 11.1071 5.89212C12.8165 6.2744 13.9997 7.49428 13.9997 8.86891C13.9997 9.94498 13.2749 10.9375 12.0946 11.503C11.5946 11.6283 11.5862 12.2737 12.0809 13.0408Z" fill="#8A8A8A"/>
</svg>
