<svg width="139" height="32" viewBox="0 0 139 32" fill="none" xmlns="http://www.w3.org/2000/svg">
<path d="M10.6672 10.6672H21.3344V0H10.6672C4.776 0 0 4.776 0 10.6672V32H10.6672V10.6672Z" fill="#FAF5F5"/>
<path d="M12 21.3328H21.3328V12C16.1776 12 12 16.1792 12 21.3328Z" fill="#FAF5F5"/>
<path d="M34.976 5.3248H43.1376V8.864H35.72V12H43.1376V15.1344H35.72V21.3328H32V8.3008C32 6.5872 33.2624 5.3248 34.976 5.3248Z" fill="#FAF5F5"/>
<path d="M52.8352 12H45.4176V15.1344H52.8352V12Z" fill="#FAF5F5"/>
<path d="M60.9824 8.0976C59.3584 8.0976 58.6592 9.0224 58.6592 9.9232C58.6592 10.9824 59.7408 11.344 61.8384 11.9968C62.312 12.1552 62.7408 12.2448 63.168 12.4032C65.784 13.3056 67.4976 14.3872 67.4976 17.0704C67.4976 19.9568 64.6336 21.648 61.2528 21.648C57.872 21.648 54.5792 19.6864 54.5792 16.192H58.232C58.232 17.4544 59.6528 18.4912 61.2528 18.4912C62.8528 18.4912 63.8912 17.9056 63.8912 17.048C63.8912 16.056 62.7408 15.7632 61.456 15.312C60.712 15.0864 59.9456 14.8608 59.3136 14.6128C56.4272 13.4848 55.0528 12.088 55.0528 9.9232C55.0528 7.0144 57.8944 5.008 61.1408 5.008C64.568 5.008 66.688 7.2176 67.0928 9.9232H63.44C63.1248 8.7952 62.1552 8.0976 60.9824 8.0976Z" fill="#FAF5F5"/>
<path d="M75.84 21.6496C72.2784 21.6496 69.3008 18.7856 69.3008 15.1328C69.3008 11.48 72.2768 8.616 75.84 8.616C78.9744 8.616 82.2656 11.4576 82.2656 15.4704V16.1248H72.6832C73.0896 17.7712 74.3296 18.7184 75.84 18.7184C77.1248 18.7184 78.0496 18.2 78.4784 17.5456H81.9056C81.184 19.9136 78.592 21.6496 75.84 21.6496ZM78.7488 13.8928C78.3424 12.4272 77.1712 11.5696 75.84 11.5696C74.5088 11.5696 73.1792 12.336 72.7056 13.8928H78.7488Z" fill="#FAF5F5"/>
<path d="M90.6544 21.6496C86.912 21.6496 84.1376 18.7408 84.1376 15.0432C84.1376 11.3456 86.9104 8.6176 90.6544 8.6176C94.1488 8.6176 96.5392 11.1872 97.0128 14.0512H93.6528C93.1792 12.6304 92.0512 11.752 90.6544 11.752C88.7824 11.752 87.4752 13.0592 87.4752 15.0448C87.4752 17.0304 88.7824 18.4944 90.6544 18.4944C92.1648 18.4944 93.2016 17.8176 93.6528 16.488H96.9904C96.5392 19.464 94.1728 21.6512 90.6544 21.6512V21.6496Z" fill="#FAF5F5"/>
<path d="M104.888 21.6496C101.123 21.6496 99.0032 19.5984 99.0032 15.9008V8.864H102.453V15.8992C102.453 17.568 103.333 18.4928 104.888 18.4928C106.443 18.4928 107.346 17.568 107.346 15.8992V8.864H110.795V15.8992C110.795 19.5968 108.675 21.648 104.888 21.648V21.6496Z" fill="#FAF5F5"/>
<path d="M115.928 8.864H121.565V12H116.446V21.3328H113.064V11.7504C113.064 10.0592 114.259 8.864 115.928 8.864Z" fill="#FAF5F5"/>
<path d="M129.254 21.6496C125.691 21.6496 122.715 18.7856 122.715 15.1328C122.715 11.48 125.691 8.616 129.254 8.616C132.389 8.616 135.68 11.4576 135.68 15.4704V16.1248H126.098C126.504 17.7712 127.744 18.7184 129.254 18.7184C130.539 18.7184 131.464 18.2 131.893 17.5456H135.32C134.598 19.9136 132.005 21.6496 129.254 21.6496ZM132.163 13.8928C131.757 12.4272 130.586 11.5696 129.254 11.5696C127.923 11.5696 126.594 12.336 126.12 13.8928H132.163Z" fill="#FAF5F5"/>
<path d="M136.814 20.9184H136.571V19.4384H137.133C137.312 19.4384 137.446 19.472 137.536 19.5392C137.627 19.6064 137.672 19.7152 137.672 19.864C137.672 19.9968 137.635 20.0944 137.562 20.1568C137.488 20.2192 137.395 20.256 137.286 20.2672L137.701 20.9184H137.426L137.043 20.2864H136.814V20.9184ZM137.086 20.0784C137.131 20.0784 137.174 20.0768 137.218 20.0736C137.259 20.0704 137.296 20.0592 137.326 20.0432C137.357 20.0272 137.382 20.0032 137.402 19.9728C137.421 19.9424 137.43 19.9008 137.43 19.8464C137.43 19.8016 137.421 19.7648 137.4 19.7392C137.379 19.7136 137.354 19.6928 137.323 19.6784C137.293 19.664 137.258 19.6544 137.219 19.6512C137.181 19.648 137.144 19.6464 137.109 19.6464H136.816V20.0784H137.088H137.086Z" fill="#FAF5F5"/>
<path d="M137.09 18.9568C137.763 18.9568 138.312 19.5056 138.312 20.1792C138.312 20.8528 137.763 21.4016 137.09 21.4016C136.416 21.4016 135.867 20.8528 135.867 20.1792C135.867 19.5056 136.416 18.9568 137.09 18.9568ZM137.09 18.7088C136.278 18.7088 135.619 19.3664 135.619 20.1792C135.619 20.992 136.277 21.6496 137.09 21.6496C137.902 21.6496 138.56 20.992 138.56 20.1792C138.56 19.3664 137.902 18.7088 137.09 18.7088Z" fill="#FAF5F5"/>
</svg>
