<svg width="48" height="48" viewBox="0 0 48 48" fill="none" xmlns="http://www.w3.org/2000/svg">
<path fill-rule="evenodd" clip-rule="evenodd" d="M23.3723 7.15424C23.7798 7.01955 24.2199 7.01955 24.6275 7.15424L42.6214 13.101C43.6702 13.4477 44.2394 14.5788 43.8928 15.6276C43.6221 16.4468 42.8566 17 41.9938 17H6.0059C4.90133 17 4.0059 16.1046 4.0059 15C4.0059 14.1373 4.55913 13.3718 5.3783 13.101L23.3723 7.15424ZM41.9938 15L23.9999 9.05322L6.0059 15H41.9938ZM39.5 20C39.5 19.4477 39.9477 19 40.5 19C41.0523 19 41.5 19.4477 41.5 20V32C41.5 32.5523 41.0523 33 40.5 33C39.9477 33 39.5 32.5523 39.5 32V20ZM5 41H43C43.5523 41 44 40.5523 44 40V36C44 35.4477 43.5523 35 43 35H5C4.44772 35 4 35.4477 4 36V40C4 40.5523 4.44772 41 5 41ZM42 37V39H6V37H42ZM32.5 19C31.9477 19 31.5 19.4477 31.5 20V32C31.5 32.5523 31.9477 33 32.5 33C33.0523 33 33.5 32.5523 33.5 32V20C33.5 19.4477 33.0523 19 32.5 19ZM23.5 20C23.5 19.4477 23.9477 19 24.5 19C25.0523 19 25.5 19.4477 25.5 20V32C25.5 32.5523 25.0523 33 24.5 33C23.9477 33 23.5 32.5523 23.5 32V20ZM16.5 19C15.9477 19 15.5 19.4477 15.5 20V32C15.5 32.5523 15.9477 33 16.5 33C17.0523 33 17.5 32.5523 17.5 32V20C17.5 19.4477 17.0523 19 16.5 19ZM7.5 20C7.5 19.4477 7.94772 19 8.5 19C9.05228 19 9.5 19.4477 9.5 20V32C9.5 32.5523 9.05228 33 8.5 33C7.94772 33 7.5 32.5523 7.5 32V20Z" fill="#006CD9"/>
<path fill-rule="evenodd" clip-rule="evenodd" d="M48 36C48 42.6278 42.6272 48 36 48C29.3728 48 24 42.6278 24 36C24 29.3722 29.3728 24 36 24C42.6272 24 48 29.3722 48 36Z" fill="#00A538"/>
<path fill-rule="evenodd" clip-rule="evenodd" d="M30.7026 35.4192C30.3097 35.0312 29.6765 35.0351 29.2884 35.4281C28.9004 35.8211 28.9044 36.4543 29.2974 36.8423L33.2157 40.7116C33.6056 41.0965 34.2325 41.0961 34.6219 40.7107L42.7035 32.7107C43.096 32.3222 43.0992 31.689 42.7107 31.2965C42.3221 30.904 41.689 30.9008 41.2965 31.2893L33.9175 38.5938L30.7026 35.4192Z" fill="white"/>
</svg>
