<svg width="48" height="48" viewBox="0 0 48 48" fill="none" xmlns="http://www.w3.org/2000/svg">
<path fill-rule="evenodd" clip-rule="evenodd" d="M47 24C47 36.7029 36.7006 47 24 47C11.2971 47 1 36.7029 1 24C1 11.2994 11.2971 1 24 1C36.7006 1 47 11.2994 47 24Z" fill="#2693FF"/>
<path fill-rule="evenodd" clip-rule="evenodd" d="M24 12C22.8939 12 22 12.8973 22 13.9947C22 15.1 22.8939 16 24 16C25.1034 16 26 15.1 26 13.9947C26 12.8973 25.1034 12 24 12ZM24 19C23.4477 19 23 19.4477 23 20V36C23 36.5523 23.4477 37 24 37C24.5523 37 25 36.5523 25 36V20C25 19.4477 24.5523 19 24 19Z" fill="white"/>
</svg>
