<svg width="240" height="140" viewBox="0 0 240 140" fill="none" xmlns="http://www.w3.org/2000/svg">
<path d="M169.64 100.623C174.74 100.123 179.13 105.963 177.58 109.893C175.96 116.233 171.37 122.243 163.62 127.933H163.27V111.453C163.35 111.183 161.51 111.113 160.91 111.403L160.32 111.353C158.91 111.413 157.78 112.563 157.03 115.163C156.93 116.313 156.41 117.353 155.31 118.193L152.68 120.153C152.55 120.373 152.44 120.593 152.34 120.813H152.32L152.03 120.973L144.35 123.643L142.21 119.943L138.21 113.053L138.16 112.923L140.47 111.973L149.17 108.383L161.47 103.303L162.03 103.443C165.02 104.393 168.14 103.093 169.64 100.623Z" fill="#668AFF"/>
<path d="M154.28 130.213V130.253H135.48C133.39 130.043 130.5 129.123 128.54 128.483L129.45 125.153C129.45 125.153 129.5 124.963 129.58 124.623L134.03 122.973L134.11 123.183L137.53 125.033L138.79 122.793L139.24 123.063L143.6 125.143L154.26 130.223L154.28 130.213Z" fill="#668AFF"/>
<path d="M149.17 108.373L140.47 111.973L140.32 111.593H140.31L133.42 108.213L149.17 108.373Z" fill="#668AFF"/>
<path d="M142.21 119.943L144.35 123.633L143.63 125.103H143.64L143.63 125.123L143.62 125.133L139.26 123.063L138.81 122.793L139.7 121.213L139.82 120.853V120.843L142.02 120.033L142.18 119.953V119.963L142.2 119.943H142.21Z" fill="#668AFF"/>
<path d="M133.51 108.52L140.4 111.9L140.56 112.28L138.25 113.23L134.94 114.59L130.62 116.37L129.78 116.6C129.07 113.7 127.22 111.14 123 110.82L126.39 105L126.47 105.05L133.51 108.51V108.52Z" fill="#668AFF"/>
<path d="M138.81 122.793L137.55 125.033L134.13 123.183H134.12L134.03 122.973L137.42 121.733L139.82 120.843V120.853L139.7 121.213L138.81 122.793Z" fill="#668AFF"/>
<path d="M69.38 59.4033C73.28 57.1233 78.23 56.1333 84.59 57.1233C85.48 63.6133 94.02 74.6533 103.3 64.9333L104.75 60.2033C105.23 60.2633 105.69 60.3433 106.14 60.4533C115.65 62.5433 120.3 73.0133 120.3 73.0133H120.52C120.5 73.2933 120.49 73.5733 120.49 73.8533V74.0533H110.03C108.71 74.0333 107.54 74.7433 106.58 76.4333L100.1 87.5533L99.92 87.4433C98.65 86.9933 97.62 87.1733 96.63 87.5333L72.59 93.3033L72.49 92.8933V89.1833L57.22 89.5533L54.62 89.6133C56.48 78.9633 59.56 65.1233 69.37 59.4033H69.38Z" fill="#668AFF"/>
<path d="M89.73 105.29L89.66 105.5L87.77 108.77C87.39 109.34 87.15 109.95 87.2 110.53H59.94L59.62 110.44L61.11 104.96L61.8 104.17C64.15 106.58 67.84 107.37 71.07 105.96L85.36 99.71C86.49 101.96 87.79 104 89.73 105.29Z" fill="#668AFF"/>
<g clip-path="url(#clip0_13_18196)">
<path d="M218.57 110.823V163.063H195.77V110.823C195.77 105.153 199.92 100.443 205.35 99.5732C205.94 99.4732 206.55 99.4232 207.17 99.4232C210.32 99.4232 213.17 100.693 215.24 102.763C217.31 104.833 218.58 107.673 218.58 110.823H218.57Z" fill="#CBD5DF"/>
<path d="M205.31 99.4232L205.34 99.5732C199.92 100.443 195.76 105.153 195.76 110.823V131.013H128.2L127.86 130.923L128.53 128.493C130.5 129.123 133.39 130.043 135.47 130.263H163.27V127.943H163.62C171.37 122.253 175.96 116.243 177.58 109.903C179.13 105.983 174.74 100.133 169.64 100.633C170.14 99.8132 170.47 98.8632 170.55 97.8232C170.83 94.4032 169.81 90.7332 168.66 88.0932L168.53 87.6132L169.64 87.3132C165.64 72.9332 159.11 65.0732 151.21 60.7032L151.6 60.0032H184.88C196.17 60.0032 205.31 69.1532 205.31 80.4332V99.4332V99.4232Z" fill="#CBD5DF"/>
<path d="M195.77 131.003V163.053H195.68H120.03L119.12 162.803L127.87 130.913L128.21 131.003H195.77Z" fill="#CBD5DF"/>
<path d="M161.47 103.303L140.31 98.1033C138.97 100.783 137.83 101.603 133.87 101.223C131.89 101.023 130.49 100.323 129.56 99.2533C128.86 98.4533 128.42 97.4233 128.18 96.2233C128.05 94.4833 128.84 93.9333 129.98 93.8433C132.09 94.0533 133.57 93.3333 134.1 91.2233L134.97 89.7333L159.7 93.6233L159.75 93.2733L158.66 90.2933L168.52 87.5833L168.65 88.0633C169.8 90.7033 170.83 94.3733 170.54 97.7933C170.46 98.8333 170.13 99.7733 169.63 100.603C168.13 103.073 165.01 104.373 162.02 103.423L161.46 103.283L161.47 103.303Z" fill="#DBB087"/>
<path d="M158.68 90.3032L159.77 93.2832L159.72 93.6332L134.99 89.7432L137.84 84.8632L140.64 80.0932C141.2 79.0132 141.06 77.8732 140.31 77.2132L140.4 77.1232L138.02 74.7532C137.68 74.3332 137.33 74.1232 137 74.0532H120.51V73.8532C120.51 73.5732 120.51 73.2932 120.54 73.0232C120.99 63.7232 129.17 63.1032 131.95 61.2732L132.09 61.4432L138.44 69.5232L148.59 59.4632L148.64 59.4132C149.52 59.8032 150.38 60.2232 151.23 60.6932C159.13 65.0532 165.66 72.9232 169.66 87.3032L168.55 87.6032L158.69 90.3132L158.68 90.3032ZM152.16 79.3732C152.47 78.8132 152.26 74.8032 152.26 74.8032H146.98C146.98 74.8032 147.08 78.4632 147.38 79.3732C147.68 80.2832 149.73 81.9432 149.73 81.9432C149.73 81.9432 151.82 80.2932 152.15 79.3732H152.16Z" fill="white"/>
<path d="M163.28 127.923V130.243H160.83V111.433C160.83 111.433 160.88 111.393 160.92 111.383C161.52 111.103 163.36 111.173 163.28 111.433V127.913V127.923Z" fill="#001423"/>
<path d="M161.47 103.303L149.17 108.383L133.42 108.223L126.38 104.763L126.3 104.713L129.37 99.4332L129.57 99.2732C130.5 100.343 131.89 101.043 133.88 101.243C137.84 101.623 138.97 100.803 140.32 98.1232L161.48 103.323L161.47 103.303Z" fill="white"/>
<path d="M160.92 111.383C160.92 111.383 160.86 111.423 160.83 111.433V130.243H155.33V130.033L157.31 127.303L153.23 127.913C151.27 125.463 151.25 123.093 152.36 120.783C152.46 120.563 152.57 120.343 152.7 120.123L155.33 118.163C156.43 117.323 156.95 116.283 157.05 115.133C157.8 112.523 158.93 111.383 160.34 111.313L160.93 111.363L160.92 111.383Z" fill="#001423"/>
<path d="M154.28 130.213L143.62 125.133V125.103L144.34 123.633L152.02 120.963L152.31 120.793H152.33C151.22 123.103 151.24 125.473 153.2 127.923L157.28 127.313L155.3 130.043V130.253H154.25V130.213H154.28Z" fill="#DBB087"/>
<path d="M132.42 55.8732C131.25 54.4432 130.37 52.7632 129.97 51.0132C129.91 50.6632 129.84 50.3132 129.79 49.9532C129.4 47.6932 129.08 45.3932 128.81 43.0732V42.9632L128.79 36.2932C130.71 38.8232 132.54 37.3232 134.53 33.4232C135.36 38.8532 138.22 38.9432 142.41 33.7132C142.41 38.0532 145.72 39.3132 147.71 35.2632L150.76 43.1132C151.08 42.8132 151.38 42.5732 151.67 42.3932C153.39 41.3632 154.72 42.3732 155.01 43.8332C155.35 45.5232 154.9 49.6532 150.19 49.7232C149.71 51.7132 149.06 53.4432 148.22 54.8932C146.39 58.1132 143.74 59.9132 140.39 59.9732C137.55 60.2132 134.51 58.4632 132.4 55.8832L132.42 55.8732Z" fill="#DBB087"/>
<path d="M152.25 74.8032C152.25 74.8032 152.46 78.8232 152.15 79.3732C151.81 80.2932 149.73 81.9432 149.73 81.9432C149.73 81.9432 147.68 80.2832 147.38 79.3732C147.08 78.4632 146.98 74.8032 146.98 74.8032H152.26H152.25Z" fill="white"/>
<path d="M150.08 34.1733C153.99 33.6533 154.21 37.4133 151.55 42.0533L151.69 42.4033C151.4 42.5833 151.1 42.8233 150.78 43.1233L147.73 35.2733C145.75 39.3233 142.43 38.0733 142.43 33.7233C138.23 38.9533 135.38 38.8633 134.55 33.4333C132.56 37.3433 130.73 38.8433 128.81 36.3033L128.83 42.9733H128.52C128.28 42.9033 128.04 42.8533 127.81 42.8333L127.86 42.4233L126.31 38.9533C125.28 36.8933 124.54 31.1433 129.44 31.4033C126.82 26.6433 132.57 23.9933 136.4 27.8133C139.45 23.7333 144.21 25.2433 144.94 29.0633C149.07 26.7133 153.64 30.0333 150.1 34.1533L150.08 34.1733Z" fill="#733D33"/>
<path d="M148.23 59.1132L148.57 59.4632L138.42 69.5232L132.07 61.4432L132.43 61.1732V55.8732C134.53 58.4532 137.57 60.2032 140.42 59.9632C143.77 59.9132 146.42 58.1032 148.25 54.8932V59.1132H148.23Z" fill="#DBB087"/>
<path d="M139.82 120.843L137.42 121.733L137.28 121.343L135.04 114.763L134.85 114.293V114.283L138.16 112.923L138.21 113.043V113.053L142.2 119.943L142.18 119.963V119.953L142.02 120.033L139.82 120.843Z" fill="#DBB087"/>
<path d="M140.3 77.2133C141.05 77.8733 141.19 79.0133 140.63 80.0933L137.83 84.8633L137.09 84.4333H129.37V84.1133L133.09 77.7233V76.7133H139.29C139.7 76.8033 140.04 76.9833 140.3 77.2033V77.2133Z" fill="#D2DCE6"/>
<path d="M140.39 77.1232L140.3 77.2132C140.04 76.9832 139.71 76.8132 139.29 76.7232H112.34C111.01 76.7032 109.85 77.4132 108.88 79.1132L99.64 94.9632L99.59 95.2832C98.34 95.0332 97.33 94.4332 96.63 93.3932L96.77 93.2932L100.11 87.5632L106.59 76.4432C107.55 74.7532 108.72 74.0432 110.04 74.0632H137C137.34 74.1232 137.69 74.3332 138.02 74.7632L140.4 77.1332L140.39 77.1232Z" fill="#8C96A0"/>
<path d="M134.98 89.7432L134.11 91.2332C133.58 93.3332 132.11 94.0632 129.99 93.8532C128.85 93.9432 128.06 94.4932 128.19 96.2332C128.43 97.4332 128.87 98.4532 129.57 99.2632L129.37 99.4232L126.3 104.703L122.91 110.523L121.8 112.423C120.84 114.113 119.67 114.833 118.35 114.803H91.4001C90.6601 114.683 90.1601 114.283 89.9101 113.733C89.6101 113.093 89.6501 112.253 90.0701 111.433L92.9201 106.553C93.8601 106.723 94.9101 106.763 96.1001 106.643C101.41 106.093 103.96 103.253 104.81 99.0032C105 96.3532 103.79 95.5232 102.06 95.3632C101.16 95.4532 100.34 95.4332 99.6001 95.2932L99.6501 94.9732L108.89 79.1232C109.86 77.4232 111.02 76.7132 112.35 76.7332H133.09V77.7432L129.37 84.1332V84.4532H137.09L137.83 84.8832L134.98 89.7632V89.7432Z" fill="#D2DCE6"/>
<path d="M137.28 121.343L137.42 121.723L134.04 122.963L129.59 124.613C129.87 123.263 130.5 119.563 129.7 116.293L130.54 116.063L134.86 114.283L135.05 114.763L137.29 121.353L137.28 121.343Z" fill="#FAF5F5"/>
<path d="M132.42 59.9933V61.1733L132.06 61.4433L131.92 61.2733C129.15 63.1133 120.96 63.7233 120.51 73.0233H120.29C120.29 73.0233 115.64 62.5533 106.13 60.4533L106.23 59.9833H132.41L132.42 59.9933Z" fill="#CBD5DF"/>
<path d="M129.79 49.9532L129.29 50.0332C127.42 49.5832 125.85 48.7232 125.16 46.5932C124.57 43.9832 126.02 42.6532 127.79 42.8232C128.02 42.8432 128.27 42.8832 128.5 42.9632H128.81V43.0732C129.08 45.3832 129.4 47.6932 129.79 49.9532Z" fill="#DBB087"/>
<path d="M104.68 134.313L104.58 134.293H100.54L100.23 119.783C100.23 119.783 100.43 117.413 99.63 114.793H118.35C119.67 114.823 120.84 114.103 121.8 112.413L122.91 110.513C127.13 110.833 128.97 113.393 129.69 116.293C130.49 119.563 129.86 123.263 129.58 124.613C129.5 124.953 129.45 125.143 129.45 125.143L128.54 128.473L127.87 130.903L119.12 162.793L117.86 167.363L101.69 163.043H101.17L100.99 154.803H101.28L104.69 134.303L104.68 134.313Z" fill="#001423"/>
<path d="M114.04 45.8433C114.21 46.4733 114.16 47.1433 114.02 47.7833C113.75 49.1233 113.15 50.4033 112.3 51.4633C112 51.8433 111.65 52.1933 111.24 52.4233C110.5 52.8233 109.56 52.7833 108.86 52.3133L108.58 52.2233C109.19 50.5433 109.71 48.8433 110.09 47.0533C110.17 46.6433 110.25 46.2333 110.32 45.8133L110.5 45.8433C110.82 45.3633 111.2 44.4233 112.81 44.4633C113.41 44.6533 113.85 45.2333 114.04 45.8533V45.8433Z" fill="#A16E4A"/>
<path d="M110.45 45.0332C110.43 45.1932 110.4 45.3332 110.38 45.4932L110.04 45.4432L108.04 37.3432C107.88 38.6732 97.0201 41.7932 89.8001 37.0532C87.3601 36.5432 85.77 41.5232 85.18 45.1132L84.81 45.0632C84.81 45.0632 83.8 39.5532 83.8 38.2432C83.8 36.9332 83.8 35.9532 84.53 33.6732C85.27 31.3932 88.22 29.0332 89.32 28.4432C89.96 28.1032 91.3801 27.4432 93.3001 26.9732C94.7101 26.6132 96.3901 26.3632 98.2301 26.3832C99.3601 26.4032 100.37 26.4732 101.22 26.5632C103.62 26.8332 104.86 27.2632 104.86 27.2632C104.86 27.2632 107.44 27.8532 109.65 30.8632C111.85 33.8832 111.56 36.5332 111.63 38.0832C111.7 39.5432 110.63 44.4632 110.5 45.0632H110.44L110.45 45.0332Z" fill="#733D33"/>
<path d="M85.9 52.8932C85.31 52.8932 84.72 52.7332 84.19 52.4832C83.81 52.3032 83.49 52.0032 83.19 51.7032C81.72 50.1532 80.79 48.0932 80.61 45.9632C80.56 45.2632 80.61 44.4832 81.09 43.9832C81.62 43.4432 82.52 43.4232 83.22 43.7132C83.9 43.9832 84.46 44.4132 84.8 45.0532L85.17 45.1032C85.76 41.5132 87.35 36.5332 89.79 37.0432C97.01 41.7832 107.86 38.6632 108.03 37.3332L110.03 45.4332L110.37 45.4832C110.37 45.5832 110.34 45.6932 110.32 45.7932C110.26 46.2132 110.17 46.6232 110.09 47.0332C109.71 48.8132 109.19 50.5132 108.58 52.2032C108.2 53.2232 107.8 54.2132 107.38 55.2232C106.66 56.9632 105.84 58.6832 104.69 60.1532C104.5 60.4032 104.3 60.6332 104.09 60.8732C102.61 62.4932 100.56 63.7032 98.36 63.7332C96.05 63.7832 93.79 63.4332 91.81 62.2232C88.64 60.2732 87.18 56.4732 86.28 52.8532C86.15 52.8532 86.02 52.8732 85.9 52.8732V52.8932Z" fill="#A16E4A"/>
<path d="M92.56 8.43322C91.4 7.18322 90.78 5.44322 90.88 3.73322C90.92 3.11322 91.05 2.48322 91.39 1.96322C91.74 1.43322 92.3 1.03322 92.93 1.00322C93.73 0.953219 94.43 1.49322 94.95 2.09322C96.5 3.83322 97.23 6.11322 96.83 8.41322C97.4 6.67322 98.34 5.05322 99.58 3.70322C100.17 3.06322 100.92 2.45322 101.79 2.49322C102.73 2.54322 103.46 3.41322 103.67 4.34322C103.86 5.25322 103.63 6.22322 103.35 7.11322C102.82 8.81322 101.05 11.9932 101.05 12.0432C102.14 11.2032 103.29 10.4332 104.49 9.75322C105.62 9.11322 107.01 8.54322 108.18 9.11322C109.44 9.72322 109.81 11.4532 109.29 12.7532C108.77 14.0532 107.6 14.9632 106.39 15.6732C105.23 16.3732 102.76 17.3932 102.31 17.5232C103.31 17.4032 104.34 17.4132 105.25 17.8532C105.98 18.2032 106.59 18.8332 106.91 19.5832C107.07 19.9832 107.18 20.4332 107.07 20.8632C106.87 21.8232 105.84 22.3632 104.88 22.5932C103.24 22.9832 101.49 22.8532 99.92 22.2232C99.31 21.6132 98.36 21.0932 96.95 21.1732C94.97 21.3432 94.01 22.3532 93.54 23.2632C92.94 23.6532 92.24 23.9032 91.52 23.9632C91.16 24.0032 90.79 23.9832 90.44 23.8832C89.58 23.6232 88.93 22.7832 88.89 21.8932C88.86 21.0432 89.33 20.2532 89.86 19.5932C90.37 18.9632 90.95 18.3832 91.59 17.9032C91.66 17.8832 91.73 17.8532 91.8 17.8432C91.8 17.8932 91.91 17.8232 91.86 17.7832C91.81 17.7432 91.74 17.7832 91.7 17.8232C91.66 17.8532 91.63 17.8732 91.59 17.9132C90.35 18.3032 89.1 18.5932 87.79 18.7132C87.04 18.7832 86.26 18.8132 85.55 18.5732C84.84 18.3332 84.19 17.7732 84.02 17.0432C83.87 16.3532 84.17 15.6232 84.65 15.1132C85.13 14.6132 85.78 14.2832 86.42 14.0032C87.26 13.6532 88.12 13.3832 89.01 13.2032C88.12 13.0332 87.28 12.5832 86.39 12.4132C85.88 12.3132 85.36 12.2132 84.88 11.9732C84.41 11.7332 84 11.3332 83.88 10.8232C83.72 10.1232 84.11 9.41322 84.61 8.90322C85.37 8.13322 86.4 7.64322 87.48 7.54322C88.4 7.45322 89.34 7.64322 90.24 7.83322C91.01 7.99322 92.38 8.35322 92.54 8.44322L92.56 8.43322Z" fill="#733D33"/>
<path d="M92.92 106.543C91.69 106.323 90.63 105.893 89.73 105.293C87.79 104.003 86.48 101.963 85.36 99.7132L71.07 105.963C67.83 107.373 64.15 106.573 61.8 104.173C61.28 103.633 60.82 103.023 60.45 102.333C58.36 98.4332 57.24 93.8432 57.23 89.5632L72.5 89.1932V92.9032L72.6 93.3132L96.64 87.5432C97.63 87.1832 98.66 87.0032 99.93 87.4532L100.11 87.5632L96.77 93.2932L96.63 93.3932C97.33 94.4332 98.34 95.0432 99.59 95.2832C100.33 95.4332 101.15 95.4432 102.05 95.3532C103.79 95.5132 105 96.3432 104.8 98.9932C103.95 103.233 101.41 106.083 96.09 106.633C94.9 106.753 93.85 106.713 92.91 106.543H92.92Z" fill="#A16E4A"/>
<path d="M104.76 60.2132L103.31 64.9432C94.03 74.6632 85.48 63.6132 84.6 57.1332L85.91 52.9032C86.04 52.9032 86.17 52.9032 86.29 52.8832C87.2 56.4932 88.65 60.3032 91.82 62.2532C93.8 63.4632 96.05 63.8032 98.37 63.7632C100.57 63.7232 102.61 62.5232 104.1 60.9032C104.31 60.6632 104.51 60.4232 104.7 60.1832L104.76 60.2332V60.2132Z" fill="#A16E4A"/>
<path d="M78.33 134.293H78.23H63.6C63.6 134.293 60.31 133.923 58.45 129.723C57.38 127.283 56.79 123.553 57.61 117.833L59.62 110.423L59.94 110.513H87.2C87.22 110.793 87.31 111.073 87.49 111.323L89.9 113.733H89.92C90.17 114.273 90.67 114.673 91.41 114.793H99.63C100.43 117.423 100.23 119.783 100.23 119.783L100.54 134.303L100.98 154.813L101.16 163.063L101.22 166.223L81.88 166.303L81.5 162.943L78.32 134.273L78.33 134.293Z" fill="#001423"/>
<path d="M92.92 106.543L90.07 111.423C89.66 112.243 89.61 113.083 89.91 113.723H89.89L87.48 111.323C87.3 111.063 87.21 110.793 87.19 110.513C87.14 109.933 87.38 109.323 87.76 108.753L89.65 105.483L89.72 105.273C90.63 105.873 91.68 106.303 92.91 106.523L92.92 106.543Z" fill="#8C96A0"/>
<path d="M78.3301 134.293L81.51 162.963L80.6 163.063H43.8V130.253H57.2201L58.4501 129.733C60.3101 133.943 63.6 134.303 63.6 134.303H78.34L78.3301 134.293Z" fill="#CBD5DF"/>
<path d="M58.73 59.4032H69.38C59.57 65.1232 56.48 78.9632 54.63 89.6132L57.23 89.5532C57.23 93.8332 58.36 98.4232 60.45 102.323C60.83 103.013 61.28 103.623 61.8 104.163L61.11 104.953L59.62 110.433L57.61 117.843C56.79 123.563 57.38 127.293 58.45 129.733L57.22 130.253H43.8V110.823C43.8 107.673 42.52 104.833 40.46 102.763C39.17 101.473 37.57 100.483 35.79 99.9332L38.3 99.4232V79.8432C38.3 68.5532 47.45 59.4132 58.73 59.4132V59.4032Z" fill="#CBD5DF"/>
<path d="M43.8 130.243V163.053H21V110.813C21 104.523 26.1 99.4132 32.4 99.4132C33.58 99.4132 34.72 99.5932 35.79 99.9232C37.57 100.473 39.17 101.463 40.46 102.753C42.52 104.823 43.8 107.663 43.8 110.813V130.243Z" fill="#CBD5DF"/>
<path d="M84.59 57.1401L85.9 52.9001L86.46 51.0701" stroke="#3A3A3C" stroke-width="2" stroke-linecap="round" stroke-linejoin="round"/>
<path d="M84.59 57.14C78.23 56.14 73.28 57.14 69.38 59.42C59.57 65.14 56.48 78.98 54.63 89.63L57.23 89.57L72.5 89.2L75.01 89.14L77.32 78.37" stroke="#3A3A3C" stroke-width="2" stroke-linecap="round" stroke-linejoin="round"/>
<path d="M120.31 73.02C120.31 73.02 115.66 62.56 106.15 60.46C105.7 60.35 105.24 60.28 104.76 60.21L103.31 64.94C94.03 74.66 85.48 63.61 84.6 57.13" stroke="#3A3A3C" stroke-width="2" stroke-linecap="round" stroke-linejoin="round"/>
<path d="M61.11 104.95L59.62 110.43L57.61 117.84C56.79 123.56 57.38 127.29 58.45 129.73C60.31 133.94 63.6 134.3 63.6 134.3H78.23" stroke="#3A3A3C" stroke-width="2" stroke-linecap="round" stroke-linejoin="round"/>
<path d="M87.1799 110.53H59.9399" stroke="#3A3A3C" stroke-width="2" stroke-linecap="round" stroke-linejoin="round"/>
<path d="M81.8899 166.32L81.5099 162.96L78.3299 134.3L77.3199 125.16" stroke="#3A3A3C" stroke-width="2" stroke-linecap="round" stroke-linejoin="round"/>
<path d="M106.25 124.91L104.68 134.32L101.27 154.81" stroke="#3A3A3C" stroke-width="2" stroke-linecap="round" stroke-linejoin="round"/>
<path d="M117.84 167.46L117.86 167.38L119.12 162.81L127.87 130.92L128.54 128.49L129.45 125.16C129.45 125.16 129.5 124.97 129.58 124.63C129.86 123.28 130.49 119.58 129.69 116.31C128.98 113.41 127.13 110.85 122.91 110.53" stroke="#3A3A3C" stroke-width="2" stroke-linecap="round" stroke-linejoin="round"/>
<path d="M104.58 134.31H101.34H100.88" stroke="#3A3A3C" stroke-width="2" stroke-linecap="round" stroke-linejoin="round"/>
<path d="M101.25 26.32L101.01 24.07C101.01 24.07 100.76 23.05 99.92 22.22C99.31 21.61 98.36 21.09 96.95 21.17C94.97 21.34 94.01 22.35 93.54 23.26C93.16 24.04 93.13 24.73 93.13 24.73C93.13 24.73 93.19 25.75 93.25 26.71" stroke="#3A3A3C" stroke-width="2" stroke-linecap="round" stroke-linejoin="round"/>
<path d="M102.24 17.53H102.27C102.27 17.53 102.3 17.53 102.32 17.53C103.32 17.41 104.35 17.42 105.26 17.86C105.99 18.21 106.6 18.84 106.92 19.59C107.08 19.99 107.19 20.44 107.08 20.87C106.88 21.83 105.85 22.37 104.89 22.6C103.25 22.99 101.5 22.86 99.93 22.23C99.93 22.23 99.9 22.23 99.89 22.23" stroke="#3A3A3C" stroke-width="2" stroke-linecap="round" stroke-linejoin="round"/>
<path d="M92.58 8.46006L92.56 8.44005C91.4 7.19005 90.78 5.45006 90.88 3.74006C90.92 3.12006 91.05 2.49006 91.39 1.97006C91.74 1.44006 92.3 1.04006 92.93 1.01006C93.73 0.960055 94.43 1.50006 94.95 2.10006C96.5 3.84006 97.23 6.12006 96.83 8.42006C97.4 6.68006 98.34 5.06006 99.58 3.71006C100.17 3.07006 100.92 2.46006 101.79 2.50006C102.73 2.55006 103.46 3.42006 103.67 4.35006C103.86 5.26006 103.63 6.23006 103.35 7.12006C102.82 8.82006 101.05 12.0001 101.05 12.0501C102.14 11.2101 103.29 10.4401 104.49 9.76006C105.62 9.12006 107.01 8.55006 108.18 9.12006C109.44 9.73006 109.81 11.4601 109.29 12.7601C108.77 14.0601 107.6 14.9701 106.39 15.6801C105.23 16.3801 102.76 17.4001 102.31 17.5301" stroke="#3A3A3C" stroke-width="2" stroke-linecap="round" stroke-linejoin="round"/>
<path d="M91.59 17.9001C90.35 18.2901 89.1 18.5801 87.79 18.7001C87.04 18.7701 86.26 18.8001 85.55 18.5601C84.84 18.3201 84.19 17.7601 84.02 17.0301C83.87 16.3401 84.17 15.6101 84.65 15.1001C85.13 14.6001 85.78 14.2701 86.42 13.9901C87.26 13.6401 88.12 13.3701 89.01 13.1901C88.12 13.0201 87.28 12.5701 86.39 12.4001C85.88 12.3001 85.36 12.2001 84.88 11.9601C84.41 11.7201 84 11.3201 83.88 10.8101C83.72 10.1101 84.11 9.40011 84.61 8.89011C85.37 8.12011 86.4 7.63011 87.48 7.53011C88.4 7.44011 89.34 7.63011 90.24 7.82011C91.01 7.98011 92.38 8.34011 92.54 8.43011" stroke="#3A3A3C" stroke-width="2" stroke-linecap="round" stroke-linejoin="round"/>
<path d="M91.59 17.9C91.59 17.9 91.66 17.84 91.7 17.81C91.75 17.77 91.82 17.74 91.86 17.77C91.91 17.82 91.8 17.89 91.8 17.83C91.73 17.85 91.66 17.88 91.59 17.89V17.9Z" stroke="#3A3A3C" stroke-width="2" stroke-linecap="round" stroke-linejoin="round"/>
<path d="M93.54 23.26C92.94 23.65 92.24 23.9 91.52 23.96C91.16 24 90.79 23.98 90.44 23.88C89.58 23.62 88.93 22.78 88.89 21.89C88.86 21.04 89.33 20.25 89.86 19.59C90.37 18.96 90.95 18.38 91.59 17.9" stroke="#3A3A3C" stroke-width="2" stroke-linecap="round" stroke-linejoin="round"/>
<path d="M108.86 52.3201C109.56 52.7901 110.5 52.8301 111.24 52.4301C111.65 52.2001 112 51.8401 112.3 51.4701C113.15 50.4101 113.75 49.1401 114.02 47.7901C114.16 47.1501 114.21 46.4801 114.04 45.8501C113.86 45.2301 113.42 44.6501 112.81 44.4601C111.2 44.4201 110.82 45.3701 110.5 45.8401" stroke="#3A3A3C" stroke-width="2" stroke-linecap="round" stroke-linejoin="round"/>
<path d="M84.81 45.0501C84.47 44.4001 83.9 43.9801 83.23 43.7101C82.53 43.4301 81.63 43.4401 81.1 43.9801C80.61 44.4801 80.56 45.2701 80.62 45.9601C80.8 48.0901 81.73 50.1501 83.2 51.7001C83.49 52.0001 83.81 52.2901 84.2 52.4801C84.73 52.7301 85.3201 52.8801 85.9101 52.8901C86.0401 52.8901 86.17 52.8901 86.29 52.8701C87.2 56.4801 88.65 60.2901 91.82 62.2401C93.8 63.4501 96.0501 63.7901 98.3701 63.7501C100.57 63.7101 102.61 62.5101 104.1 60.8901C104.31 60.6501 104.51 60.4101 104.7 60.1701C105.85 58.7001 106.67 56.9801 107.39 55.2401C107.81 54.2301 108.21 53.2401 108.59 52.2201C109.2 50.5401 109.72 48.8401 110.1 47.0501C110.18 46.6401 110.26 46.2301 110.33 45.8101C110.36 45.7101 110.38 45.6001 110.38 45.5001C110.41 45.3401 110.43 45.2001 110.45 45.0401C110.45 45.0201 110.45 45.0001 110.45 44.9901" stroke="#3A3A3C" stroke-width="2" stroke-linecap="round" stroke-linejoin="round"/>
<path d="M110.5 45.11C110.5 45.11 110.5 45.09 110.5 45.06C110.64 44.47 111.71 39.54 111.63 38.08C111.56 36.53 111.85 33.88 109.65 30.86C107.44 27.84 104.86 27.26 104.86 27.26C104.86 27.26 103.62 26.82 101.22 26.56C100.37 26.47 99.3601 26.4 98.2301 26.38C96.3901 26.35 94.7101 26.61 93.3001 26.97C91.3801 27.45 89.96 28.1 89.32 28.44C88.21 29.03 85.27 31.39 84.53 33.67C83.8 35.96 83.8 36.92 83.8 38.24C83.8 39.56 84.81 45.06 84.81 45.06" stroke="#3A3A3C" stroke-width="2" stroke-linecap="round" stroke-linejoin="round"/>
<path d="M110.03 45.4501L108.03 37.3501C107.87 38.6801 97.01 41.8001 89.79 37.0601C87.35 36.5501 85.76 41.5301 85.17 45.1201C85.14 45.2901 85.12 45.4601 85.1 45.6101" stroke="#3A3A3C" stroke-width="2" stroke-linecap="round" stroke-linejoin="round"/>
<path d="M103.16 45.24C103.16 45.24 103.22 45.18 103.26 45.15" stroke="#3A3A3C" stroke-width="2" stroke-linecap="round" stroke-linejoin="round"/>
<path d="M92.16 45.1901C92.16 45.1901 92.23 45.1301 92.26 45.0901" stroke="#3A3A3C" stroke-width="2" stroke-linecap="round" stroke-linejoin="round"/>
<path d="M97.51 55.8901C97.83 56.2001 98.15 56.5201 98.33 56.9201C98.51 57.3201 98.56 57.8201 98.33 58.2001C97.98 58.7901 97.15 58.8901 96.46 58.8001C94.34 58.5301 92.3 57.0101 91.9 54.9001C91.82 54.4201 91.84 53.8601 92.19 53.5301C92.47 53.2601 92.9 53.2201 93.28 53.2901C93.66 53.3701 93.99 53.5701 94.33 53.7601C95.43 54.3501 96.58 54.8801 97.81 55.1201C99.04 55.3801 100.34 55.3401 101.5 54.8601" stroke="#3A3A3C" stroke-width="2" stroke-linecap="round" stroke-linejoin="round"/>
<path d="M98.56 44.3101C99.06 46.6301 99.64 48.9401 100.3 51.2201C100.34 51.3501 100.37 51.4901 100.34 51.6101C100.25 51.9501 99.76 51.9501 99.42 51.8701L95.5 51.1701" stroke="#3A3A3C" stroke-width="2" stroke-linecap="round" stroke-linejoin="round"/>
<path d="M129.37 84.1301L133.09 77.7301" stroke="#3A3A3C" stroke-width="2" stroke-linecap="round" stroke-linejoin="round"/>
<path d="M134.11 91.24L134.98 89.75L137.83 84.87L140.63 80.1C141.19 79.02 141.05 77.88 140.3 77.22C140.04 76.99 139.71 76.82 139.29 76.73H112.34C111.01 76.71 109.85 77.42 108.88 79.12L99.64 94.97" stroke="#3A3A3C" stroke-width="2" stroke-linecap="round" stroke-linejoin="round"/>
<path d="M92.93 106.53V106.55L90.07 111.43C89.66 112.25 89.61 113.09 89.91 113.73C90.16 114.28 90.66 114.68 91.4 114.8H118.35C119.67 114.83 120.84 114.11 121.8 112.42L122.91 110.52L126.3 104.7L129.37 99.42" stroke="#3A3A3C" stroke-width="2" stroke-linecap="round" stroke-linejoin="round"/>
<path d="M89.6601 105.5L87.77 108.77C87.39 109.34 87.15 109.95 87.2 110.53C87.22 110.81 87.31 111.09 87.49 111.34L89.9001 113.75" stroke="#3A3A3C" stroke-width="2" stroke-linecap="round" stroke-linejoin="round"/>
<path d="M140.42 77.1601L140.39 77.1301L138.01 74.7601C137.67 74.3401 137.32 74.1301 136.99 74.0601H110.03C108.71 74.0401 107.54 74.7501 106.58 76.4401L100.1 87.5601L96.76 93.2901" stroke="#3A3A3C" stroke-width="2" stroke-linecap="round" stroke-linejoin="round"/>
<path d="M129.37 84.4501H137.09" stroke="#3A3A3C" stroke-width="2" stroke-linecap="round" stroke-linejoin="round"/>
<path d="M136.07 80.89C136.09 80.95 136.05 81.04 135.98 81.06" stroke="#3A3A3C" stroke-width="2" stroke-linecap="round" stroke-linejoin="round"/>
<path d="M99.93 87.4601C98.66 87.0101 97.63 87.1901 96.64 87.5501L72.6 93.3201L70.99 93.7001" stroke="#3A3A3C" stroke-width="2" stroke-linecap="round" stroke-linejoin="round"/>
<path d="M57.22 89.52V89.56C57.22 93.84 58.35 98.43 60.44 102.33C60.82 103.02 61.27 103.63 61.79 104.17C64.14 106.58 67.83 107.37 71.06 105.96L85.35 99.71C86.48 101.96 87.78 104 89.72 105.29C90.63 105.89 91.68 106.32 92.91 106.54C93.85 106.71 94.9 106.75 96.09 106.63C101.4 106.08 103.95 103.24 104.8 98.99C104.99 96.34 103.78 95.51 102.05 95.35C101.15 95.44 100.33 95.42 99.59 95.28C98.34 95.03 97.33 94.43 96.63 93.39C96.24 92.84 95.94 92.16 95.74 91.36" stroke="#3A3A3C" stroke-width="2" stroke-linecap="round" stroke-linejoin="round"/>
<path d="M101.25 104.77C97.5399 105.39 94.3199 104.38 91.5699 101.84" stroke="#3A3A3C" stroke-width="2" stroke-linecap="round" stroke-linejoin="round"/>
<path d="M104.68 98.0701C104.5 101.23 97.8201 102.02 94.1801 98.3801" stroke="#3A3A3C" stroke-width="2" stroke-linecap="round" stroke-linejoin="round"/>
<path d="M72.5 89.38V92.91" stroke="#3A3A3C" stroke-width="2" stroke-linecap="round" stroke-linejoin="round"/>
<path d="M132.42 55.6801V55.8801V60.0001V61.1801" stroke="#3A3A3C" stroke-width="2" stroke-linecap="round" stroke-linejoin="round"/>
<path d="M148.24 54.9L148.23 59.12" stroke="#3A3A3C" stroke-width="2" stroke-linecap="round" stroke-linejoin="round"/>
<path d="M147.38 79.3801C147.08 78.4701 146.98 74.8101 146.98 74.8101H152.26C152.26 74.8101 152.47 78.8301 152.16 79.3801C151.82 80.3001 149.74 81.9501 149.74 81.9501C149.74 81.9501 147.69 80.2901 147.39 79.3801H147.38Z" stroke="#3A3A3C" stroke-width="2" stroke-linecap="round" stroke-linejoin="round"/>
<path d="M133.02 44.5001C133.07 44.4701 133.12 44.4501 133.17 44.4301" stroke="#3A3A3C" stroke-width="2" stroke-linecap="round" stroke-linejoin="round"/>
<path d="M143.32 44.5301C143.32 44.5301 143.42 44.4801 143.47 44.4601" stroke="#3A3A3C" stroke-width="2" stroke-linecap="round" stroke-linejoin="round"/>
<path d="M137.5 43.4901L136.54 46.3701C135.95 48.2601 136.92 49.0801 138.97 49.1701" stroke="#3A3A3C" stroke-width="2" stroke-linecap="round" stroke-linejoin="round"/>
<path d="M137.79 53.0701C139.26 53.1701 140.62 52.8901 141.84 52.1901" stroke="#3A3A3C" stroke-width="2" stroke-linecap="round" stroke-linejoin="round"/>
<path d="M128.5 42.9801C128.26 42.9101 128.02 42.8601 127.79 42.8401C126.02 42.6701 124.58 44.0001 125.16 46.6101C125.85 48.7401 127.42 49.6001 129.29 50.0501" stroke="#3A3A3C" stroke-width="2" stroke-linecap="round" stroke-linejoin="round"/>
<path d="M128.81 42.9801L128.79 36.3101C130.71 38.8401 132.54 37.3401 134.53 33.4401C135.36 38.8701 138.22 38.9601 142.41 33.7301C142.41 38.0701 145.72 39.3301 147.71 35.2801L150.76 43.1301C151.08 42.8301 151.38 42.5901 151.67 42.4101C153.39 41.3801 154.72 42.3901 155.01 43.8501C155.35 45.5401 154.9 49.6701 150.19 49.7401C149.71 51.7301 149.06 53.4601 148.22 54.9101C146.39 58.1301 143.74 59.9301 140.39 59.9901C137.55 60.2301 134.51 58.4801 132.4 55.9001C131.23 54.4701 130.35 52.7901 129.95 51.0401C129.89 50.6901 129.82 50.3401 129.77 49.9801C129.38 47.7201 129.06 45.4201 128.79 43.1001V42.9901L128.81 42.9801Z" stroke="#3A3A3C" stroke-width="2" stroke-linecap="round" stroke-linejoin="round"/>
<path d="M127.83 42.4301L126.28 38.9601C125.25 36.9001 124.51 31.1501 129.41 31.4101C126.79 26.6501 132.54 24.0001 136.37 27.8201C139.42 23.7401 144.18 25.2501 144.91 29.0701C149.04 26.7201 153.61 30.0401 150.07 34.1601C153.98 33.6401 154.2 37.4001 151.54 42.0401" stroke="#3A3A3C" stroke-width="2" stroke-linecap="round" stroke-linejoin="round"/>
<path d="M120.5 73.8701C120.5 73.5901 120.5 73.3101 120.53 73.0401C120.98 63.7401 129.16 63.1201 131.94 61.2901L132.08 61.4601L138.43 69.5401L148.58 59.4801L148.63 59.4301C149.51 59.8201 150.37 60.2401 151.22 60.7101C159.12 65.0701 165.65 72.9401 169.65 87.3201L168.54 87.6201L158.68 90.3301L157.49 90.6501L155.65 82.5001" stroke="#3A3A3C" stroke-width="2" stroke-linecap="round" stroke-linejoin="round"/>
<path d="M160.33 111.35L160.92 111.39" stroke="#3A3A3C" stroke-width="2" stroke-linecap="round" stroke-linejoin="round"/>
<path d="M143.63 125.13L143.64 125.11" stroke="#3A3A3C" stroke-width="2" stroke-linecap="round" stroke-linejoin="round"/>
<path d="M139.82 120.85V120.86" stroke="#3A3A3C" stroke-width="2" stroke-linecap="round" stroke-linejoin="round"/>
<path d="M139.82 120.84V120.85" stroke="#3A3A3C" stroke-width="2" stroke-linecap="round" stroke-linejoin="round"/>
<path d="M142.18 119.97L142.2 119.95" stroke="#3A3A3C" stroke-width="2" stroke-linecap="round" stroke-linejoin="round"/>
<path d="M152.33 120.8L152.35 120.81" stroke="#3A3A3C" stroke-width="2" stroke-linecap="round" stroke-linejoin="round"/>
<path d="M163.27 127.93H163.28H163.62" stroke="#3A3A3C" stroke-width="2" stroke-linecap="round" stroke-linejoin="round"/>
<path d="M155.33 130.04V130.25" stroke="#3A3A3C" stroke-width="2" stroke-linecap="round" stroke-linejoin="round"/>
<path d="M154.28 130.22V130.25" stroke="#3A3A3C" stroke-width="2" stroke-linecap="round" stroke-linejoin="round"/>
<path d="M140.32 111.6L140.47 111.98" stroke="#3A3A3C" stroke-width="2" stroke-linecap="round" stroke-linejoin="round"/>
<path d="M138.16 112.93L138.21 113.05" stroke="#3A3A3C" stroke-width="2" stroke-linecap="round" stroke-linejoin="round"/>
<path d="M137.28 121.35L137.42 121.74" stroke="#3A3A3C" stroke-width="2" stroke-linecap="round" stroke-linejoin="round"/>
<path d="M134.85 114.3L135.04 114.77" stroke="#3A3A3C" stroke-width="2" stroke-linecap="round" stroke-linejoin="round"/>
<path d="M134.03 122.98L134.12 123.19" stroke="#3A3A3C" stroke-width="2" stroke-linecap="round" stroke-linejoin="round"/>
<path d="M160.83 130.25V111.44C160.83 111.44 160.88 111.4 160.92 111.39C161.52 111.11 163.36 111.18 163.28 111.44V130.25H135.48C133.39 130.04 130.5 129.12 128.54 128.48" stroke="#3A3A3C" stroke-width="2" stroke-linecap="round" stroke-linejoin="round"/>
<path d="M129.58 124.63L134.03 122.98L137.42 121.74L139.82 120.85L142.02 120.04L142.18 119.96" stroke="#3A3A3C" stroke-width="2" stroke-linecap="round" stroke-linejoin="round"/>
<path d="M169.64 100.63C174.74 100.13 179.13 105.97 177.58 109.9C175.96 116.24 171.37 122.25 163.62 127.94" stroke="#3A3A3C" stroke-width="2" stroke-linecap="round" stroke-linejoin="round"/>
<path d="M130.53 116.08L134.85 114.29L138.16 112.93L140.47 111.98L149.17 108.38L161.47 103.31L161.52 103.29" stroke="#3A3A3C" stroke-width="2" stroke-linecap="round" stroke-linejoin="round"/>
<path d="M126.38 104.76L133.42 108.22L140.31 111.6" stroke="#3A3A3C" stroke-width="2" stroke-linecap="round" stroke-linejoin="round"/>
<path d="M135.04 114.77L137.28 121.35" stroke="#3A3A3C" stroke-width="2" stroke-linecap="round" stroke-linejoin="round"/>
<path d="M163.64 116.94L171.78 114.11" stroke="#3A3A3C" stroke-width="2" stroke-linecap="round" stroke-linejoin="round"/>
<path d="M144.35 123.64L152.04 120.97L152.33 120.8" stroke="#3A3A3C" stroke-width="2" stroke-linecap="round" stroke-linejoin="round"/>
<path d="M144.35 123.64L142.21 119.95H142.2L138.21 113.06" stroke="#3A3A3C" stroke-width="2" stroke-linecap="round" stroke-linejoin="round"/>
<path d="M134.13 123.19L137.55 125.04L138.81 122.8L139.7 121.22L139.82 120.86" stroke="#3A3A3C" stroke-width="2" stroke-linecap="round" stroke-linejoin="round"/>
<path d="M154.29 130.22H154.28L143.62 125.14L139.26 123.07L138.81 122.8L138.79 122.79" stroke="#3A3A3C" stroke-width="2" stroke-linecap="round" stroke-linejoin="round"/>
<path d="M155.32 130.04L157.3 127.31L153.22 127.92C151.26 125.47 151.24 123.1 152.35 120.79C152.45 120.57 152.56 120.35 152.69 120.13L155.32 118.17C156.42 117.33 156.94 116.29 157.04 115.14C157.79 112.53 158.92 111.39 160.33 111.32" stroke="#3A3A3C" stroke-width="2" stroke-linecap="round" stroke-linejoin="round"/>
<path d="M143.63 125.11L144.35 123.64" stroke="#3A3A3C" stroke-width="2" stroke-linecap="round" stroke-linejoin="round"/>
<path d="M158.68 90.3101L159.76 93.2901" stroke="#3A3A3C" stroke-width="2" stroke-linecap="round" stroke-linejoin="round"/>
<path d="M133.34 108.22H133.42L149.17 108.38" stroke="#3A3A3C" stroke-width="2" stroke-linecap="round" stroke-linejoin="round"/>
<path d="M134.97 89.75H134.98L159.71 93.64L161.56 93.93" stroke="#3A3A3C" stroke-width="2" stroke-linecap="round" stroke-linejoin="round"/>
<path d="M168.66 88.0901C169.81 90.7301 170.84 94.4001 170.55 97.8201C170.47 98.8601 170.14 99.8001 169.64 100.63C168.14 103.1 165.02 104.4 162.03 103.45L161.47 103.31L140.31 98.1101C138.97 100.79 137.83 101.61 133.87 101.23C131.89 101.03 130.49 100.33 129.56 99.2601C128.86 98.4601 128.42 97.4301 128.18 96.2301C128.05 94.4901 128.84 93.9401 129.98 93.8501C132.09 94.0601 133.57 93.3401 134.1 91.2301" stroke="#3A3A3C" stroke-width="2" stroke-linecap="round" stroke-linejoin="round"/>
<path d="M130.51 100.02C132.93 100.42 135.04 99.7601 136.84 98.1001" stroke="#3A3A3C" stroke-width="2" stroke-linecap="round" stroke-linejoin="round"/>
<path d="M128.26 95.6301C128.39 97.7001 132.46 97.3601 134.85 94.9701" stroke="#3A3A3C" stroke-width="2" stroke-linecap="round" stroke-linejoin="round"/>
<path d="M43.8 130.25H57.2201" stroke="#3A3A3C" stroke-width="2" stroke-linecap="round" stroke-linejoin="round"/>
<path d="M128.21 131.01H195.77" stroke="#3A3A3C" stroke-width="2" stroke-linecap="round" stroke-linejoin="round"/>
<path d="M38.3 99.43V79.85C38.3 68.56 47.45 59.42 58.73 59.42H69.39" stroke="#3A3A3C" stroke-width="2" stroke-linecap="round" stroke-linejoin="round"/>
<path d="M151.61 60H184.89C196.18 60 205.32 69.15 205.32 80.43V99.43" stroke="#3A3A3C" stroke-width="2" stroke-linecap="round" stroke-linejoin="round"/>
<path d="M106.25 60H131.93" stroke="#3A3A3C" stroke-width="2" stroke-linecap="round" stroke-linejoin="round"/>
<path d="M43.8 163.06H21V110.82C21 104.53 26.1 99.42 32.4 99.42C33.58 99.42 34.72 99.6 35.79 99.93C37.57 100.48 39.17 101.47 40.46 102.76C42.52 104.83 43.8 107.67 43.8 110.82V163.06Z" stroke="#3A3A3C" stroke-width="2" stroke-linecap="round" stroke-linejoin="round"/>
<path d="M205.34 99.5801C205.93 99.4801 206.54 99.4301 207.16 99.4301C210.31 99.4301 213.16 100.7 215.23 102.77C217.3 104.84 218.57 107.68 218.57 110.83V163.07H195.77V110.83C195.77 105.16 199.92 100.45 205.35 99.5801H205.34Z" stroke="#3A3A3C" stroke-width="2" stroke-linecap="round" stroke-linejoin="round"/>
<path d="M101.73 167.86L101.67 164.7L101.49 156.45L101.05 135.94L100.74 121.42C100.74 121.42 100.94 119.05 100.14 116.43C100.1 116.28 100.05 116.15 100 116" stroke="#3A3A3C" stroke-width="2" stroke-linecap="round" stroke-linejoin="round"/>
</g>
<defs>
<clipPath id="clip0_13_18196">
<rect width="240" height="140" fill="white"/>
</clipPath>
</defs>
</svg>
