<svg width="240" height="140" viewBox="0 0 240 140" fill="none" xmlns="http://www.w3.org/2000/svg">
<path d="M164.24 94.64C164.78 97.08 163.25 99.48 160.82 100.06C153.64 101.75 138.01 104.73 117.26 104.73C98.42 104.73 81.96 101.79 74.02 100.1C71.72 99.61 70.73 96.95 72.07 95.01C83.67 78.19 82.23 53.24 82.23 53.24L89.86 48.11L80.45 48.73C80.45 48.73 78.99 45.62 78.16 44.08C77.65 43.12 76.55 41.2 76.55 41.2L83.22 39.4C83.22 39.4 74.91 38.51 74.61 38.04C73.98 37.05 73.34 36.07 72.67 35.1C71.2 32.94 68.04 28.69 68.04 28.69L74.55 25.51L63.28 22.67C63.28 22.67 55.07 12.99 51.15 8.5C51.15 8.5 76.83 11.53 85.33 12.99C109 17.05 145.23 24.44 159.41 74.17C160.62 78.43 162.94 88.76 164.24 94.64ZM147.37 61.3C147.37 57.03 145.01 55.49 144.74 55.33C144.05 54.91 143.17 55.14 142.73 55.82C142.29 56.5 142.49 57.42 143.16 57.88C143.21 57.91 144.37 58.75 144.37 61.3C144.37 62.12 145.05 62.8 145.87 62.8C146.69 62.8 147.37 62.12 147.37 61.3ZM141.63 52.67C142.41 52.39 142.81 51.53 142.52 50.75C138.26 39.02 119.77 28.4 118.98 27.96C118.26 27.54 117.35 27.8 116.94 28.52C116.53 29.24 116.78 30.15 117.5 30.56C117.68 30.67 135.82 41.07 139.7 51.78C139.93 52.39 140.5 52.76 141.11 52.76C141.28 52.76 141.46 52.74 141.63 52.67Z" fill="#8C96A0"/>
<path d="M144.74 55.33C145.01 55.49 147.37 57.03 147.37 61.3C147.37 62.12 146.7 62.8 145.87 62.8C145.04 62.8 144.37 62.12 144.37 61.3C144.37 58.75 143.21 57.91 143.16 57.88C142.49 57.42 142.29 56.5 142.73 55.82C143.17 55.14 144.05 54.91 144.74 55.33Z" fill="#FAF5F5"/>
<path d="M142.52 50.7499C142.81 51.5299 142.41 52.3899 141.63 52.6699C141.46 52.7399 141.28 52.7599 141.11 52.7599C140.5 52.7599 139.93 52.3899 139.7 51.7799C135.82 41.0699 117.68 30.6699 117.5 30.5599C116.78 30.1499 116.53 29.2399 116.94 28.5199C117.35 27.7999 118.26 27.5399 118.98 27.9599C119.77 28.3999 138.26 39.0199 142.52 50.7499Z" fill="#FAF5F5"/>
<path d="M63.27 113.12C76.08 117.13 102.6 119.58 121.56 119.58C161.12 119.58 191.21 110.9 191.21 94.1C191.21 84.3 174.79 77.73 165.25 77.73" stroke="#3A3A3C" stroke-width="3" stroke-linecap="round" stroke-linejoin="round"/>
<path d="M178.59 72.3899C178.59 72.3899 210.86 81.7499 210.86 94.6099C210.86 106.2 199.66 107.02 199.66 107.02" stroke="#3A3A3C" stroke-width="3" stroke-linecap="round" stroke-linejoin="round"/>
<path d="M62.67 79.6101C54.81 82.7001 45.48 87.9301 45.48 95.3601C45.48 106.96 56.68 110.21 56.68 110.21" stroke="#3A3A3C" stroke-width="3" stroke-linecap="round" stroke-linejoin="round"/>
<path d="M85.33 12.99C109 17.05 145.23 24.44 159.41 74.17C160.62 78.43 162.94 88.76 164.24 94.64C164.78 97.08 163.25 99.48 160.82 100.06C153.64 101.75 138.01 104.73 117.26 104.73C98.42 104.73 81.96 101.79 74.02 100.1C71.72 99.61 70.73 96.95 72.07 95.01C83.67 78.19 82.23 53.24 82.23 53.24L89.86 48.11L80.45 48.73C80.45 48.73 78.99 45.62 78.16 44.08C77.65 43.12 76.55 41.2 76.55 41.2L83.22 39.4C83.22 39.4 74.91 38.51 74.61 38.04C73.98 37.05 73.34 36.07 72.67 35.1C71.2 32.94 68.04 28.69 68.04 28.69L74.55 25.51L63.28 22.67C63.28 22.67 55.07 12.99 51.15 8.5C51.15 8.5 76.83 11.53 85.33 12.99Z" stroke="#3A3A3C" stroke-width="3" stroke-linecap="round" stroke-linejoin="round"/>
<path d="M96.84 131.17C59.1 131.17 28.5 117.46 28.5 100.54C28.5 87.9199 45.51 77.0799 69.81 72.3899" stroke="#3A3A3C" stroke-width="3" stroke-linecap="round" stroke-linejoin="round"/>
<path d="M166.27 94.6101C167.11 94.8901 167.86 95.1801 168.51 95.4801C170.48 96.3801 171.56 97.3501 171.56 98.3601C171.56 100.56 168.29 102.57 159.89 104.09" stroke="#3A3A3C" stroke-width="3" stroke-linecap="round" stroke-linejoin="round"/>
<path d="M79.51 105.6C78.9 106.2 70.81 104.73 67.21 101.37" stroke="#3A3A3C" stroke-width="3" stroke-linecap="round" stroke-linejoin="round"/>
</svg>
