<svg width="700" height="330" viewBox="0 0 700 330" fill="none" xmlns="http://www.w3.org/2000/svg">
<path d="M412.569 136.045L415.965 113.276C413.483 112.884 411.524 110.659 411.524 108.042C411.524 105.425 413.352 103.331 415.834 102.808C413.222 100.845 411.524 97.7044 411.524 94.1712C411.524 88.8061 415.442 84.4879 420.405 83.5719L422.887 68C370.903 79.2536 350.004 114.585 342.429 132.774C342.298 133.036 342.168 133.428 342.037 133.69C305.334 133.559 285.22 136.307 250.999 142.065C226.835 146.121 186.345 155.935 161.789 161.431C165.838 162.347 170.54 162.871 175.634 162.871C187.782 162.871 198.1 159.73 202.541 155.15C206.851 159.599 217.3 162.871 229.447 162.871C241.595 162.871 251.913 159.73 256.354 155.15C260.664 159.599 271.113 162.871 283.261 162.871C295.408 162.871 305.726 159.73 310.167 155.15C314.477 159.599 324.926 162.871 337.074 162.871C349.221 162.871 359.539 159.73 363.98 155.15C368.29 159.599 378.739 162.871 390.887 162.871C403.034 162.871 413.352 159.73 417.793 155.15C422.103 159.599 432.553 162.871 444.7 162.871C456.847 162.871 467.165 159.73 471.606 155.15C475.916 159.599 486.366 162.871 498.513 162.871C502.562 162.871 506.48 162.478 509.876 161.824C499.427 157.898 483.1 151.879 478.79 150.701C456.716 144.42 436.602 138.532 412.569 136.045Z" fill="#8A8A8A"/>
<path d="M557.942 163.133C555.983 163.263 554.024 163.394 551.934 163.394C539.787 163.394 529.468 160.254 525.027 155.674C520.717 160.123 510.268 163.394 498.121 163.394C485.974 163.394 475.655 160.254 471.214 155.674C466.904 160.123 456.455 163.394 444.308 163.394C432.161 163.394 421.842 160.123 417.532 155.674C413.222 160.123 402.772 163.394 390.625 163.394C378.478 163.394 368.16 160.254 363.719 155.674C359.409 160.123 348.959 163.394 336.812 163.394C324.665 163.394 314.347 160.254 309.906 155.674C305.595 160.123 295.146 163.394 282.999 163.394C270.852 163.394 260.534 160.254 256.093 155.674C251.782 160.123 241.333 163.394 229.186 163.394C217.039 163.394 206.721 160.254 202.28 155.674C197.969 160.123 187.52 163.394 175.373 163.394C163.226 163.394 153.038 160.123 148.728 155.674C144.418 160.123 133.968 163.394 121.821 163.394C109.674 163.394 99.225 160.123 94.9148 155.674C90.6045 160.123 80.1554 163.394 68.0083 163.394C65.9184 163.394 63.9592 163.263 62 163.133" stroke="#2693FF" stroke-miterlimit="10" stroke-linecap="round" stroke-linejoin="round"/>
<path d="M638.016 191.921C636.057 192.052 634.097 192.182 632.008 192.182C619.861 192.182 609.542 189.042 605.101 184.462C600.791 188.911 590.342 192.182 578.195 192.182C566.047 192.182 555.729 189.042 551.288 184.462C546.978 188.911 536.529 192.182 524.382 192.182C512.234 192.182 501.916 189.042 497.475 184.462C493.165 188.911 482.716 192.182 470.568 192.182C458.421 192.182 448.103 189.042 443.662 184.462C439.352 188.911 428.903 192.182 416.755 192.182C404.608 192.182 394.29 189.042 389.849 184.462C385.539 188.911 375.09 192.182 362.942 192.182" stroke="#2693FF" stroke-miterlimit="10" stroke-linecap="round" stroke-linejoin="round"/>
<path d="M249.794 229.346C237.647 229.346 227.329 226.205 222.888 221.625C218.578 226.074 208.128 229.346 195.981 229.346C183.834 229.346 173.516 226.205 169.075 221.625C164.765 226.074 154.315 229.346 142.168 229.346C130.021 229.346 119.703 226.205 115.262 221.625C110.951 226.074 100.502 229.346 88.3552 229.346" stroke="#2693FF" stroke-miterlimit="10" stroke-linecap="round" stroke-linejoin="round"/>
</svg>
