<svg width="700" height="330" viewBox="0 0 700 330" fill="none" xmlns="http://www.w3.org/2000/svg">
<g clip-path="url(#clip0_16288_159791)">
<mask id="mask0_16288_159791" style="mask-type:alpha" maskUnits="userSpaceOnUse" x="123" y="32" width="455" height="239">
<path fill-rule="evenodd" clip-rule="evenodd" d="M123.372 32.9039H577.885V270.23H123.372V32.9039Z" fill="white"/>
</mask>
<g mask="url(#mask0_16288_159791)">
<path fill-rule="evenodd" clip-rule="evenodd" d="M123.371 43.4057C123.371 37.6055 128.076 32.9039 133.876 32.9039H567.381C573.183 32.9039 577.886 37.6055 577.886 43.4057V259.731C577.886 265.531 573.183 270.23 567.381 270.23H133.876C128.076 270.23 123.371 265.531 123.371 259.731V43.4057Z" fill="#DFDFDF"/>
</g>
<mask id="mask1_16288_159791" style="mask-type:alpha" maskUnits="userSpaceOnUse" x="123" y="32" width="454" height="238">
<path fill-rule="evenodd" clip-rule="evenodd" d="M123 32.9045H577V269.963H123V32.9045Z" fill="white"/>
</mask>
<g mask="url(#mask1_16288_159791)">
<path fill-rule="evenodd" clip-rule="evenodd" d="M133.493 269.963H566.506C572.304 269.963 577.001 265.267 577.001 259.475V43.3945C577.001 37.6008 572.304 32.9045 566.506 32.9045H133.493C127.697 32.9045 123 37.6008 123 43.3945V259.475C123 265.267 127.697 269.963 133.493 269.963Z" fill="#DFDFDF"/>
</g>
<mask id="mask2_16288_159791" style="mask-type:alpha" maskUnits="userSpaceOnUse" x="123" y="32" width="454" height="26">
<path fill-rule="evenodd" clip-rule="evenodd" d="M123 32.9039H577V57.2883H123V32.9039Z" fill="white"/>
</mask>
<g mask="url(#mask2_16288_159791)">
<path fill-rule="evenodd" clip-rule="evenodd" d="M122.999 43.3939C122.999 37.6002 127.699 32.9039 133.492 32.9039H566.508C572.303 32.9039 577.001 37.6002 577.001 43.3939V57.2883H122.999V43.3939Z" fill="#ACACAC"/>
</g>
<mask id="mask3_16288_159791" style="mask-type:alpha" maskUnits="userSpaceOnUse" x="264" y="0" width="139" height="139">
<path fill-rule="evenodd" clip-rule="evenodd" d="M264.136 0.162354H402.801V138.782H264.136V0.162354Z" fill="white"/>
</mask>
<g mask="url(#mask3_16288_159791)">
<path fill-rule="evenodd" clip-rule="evenodd" d="M399.75 75.2984C397.586 73.2514 397.037 66.4828 399.686 63.9145C404.261 60.456 403.667 51.7125 397.564 49.8199C394.471 48.8214 392.307 44.1299 392.105 41.1847C392.46 37.3914 395.157 35.1238 392.083 30.1917C387.769 24.4616 382.887 28.9868 378.999 23.7238C373.632 18.8719 379.079 15.7342 372.767 10.8803C366.538 7.03688 363.973 13.0496 358.233 9.87986C351.918 8.16164 354.639 2.04864 347.313 0.302349C343.181 -0.395364 341.116 1.64164 339.317 3.21149C337.285 5.3768 330.456 5.91613 327.927 3.27565C323.966 -1.70658 315.34 -0.401378 313.455 6.14469C311.798 9.30044 306.359 11.7023 303.002 10.4292C298.034 7.53009 290.217 11.4577 290.8 17.8214C290.806 20.2473 289.785 22.168 287.726 23.9564C282.87 29.3216 279.732 23.8762 274.876 30.1857C271.029 36.3889 277.054 39.0114 273.873 44.7134C272.167 51.0188 265.793 48.4044 264.253 55.8407C263.39 63.2869 269.431 62.2785 268.938 69.2676C269.898 75.7275 263.18 75.6513 264.253 83.0795C265.484 88.6352 269.088 88.1059 271.966 90.8466C273.827 93.0079 275.582 97.2403 274.423 99.9269C271.523 104.895 275.454 112.704 281.813 112.125C285.849 111.804 291.121 117.31 290.624 120.794C290.648 122.729 290.987 125.937 294.388 128.174C300.706 131.757 303.13 125.816 308.91 129.121C315.059 130.913 312.456 137.144 319.857 138.66C327.345 139.526 326.505 133.229 333.649 133.978C339.317 133.225 339.553 138.714 345.57 138.782C353.496 138.818 351.924 130.668 358.235 129.044C360.904 127.875 362.166 127.787 364.514 128.691C372.858 131.743 376.135 125.546 376.758 118.083C381.618 108.915 386.798 115.405 392.081 108.737C395.923 102.531 389.903 99.9109 393.082 94.2068C394.8 87.8954 400.913 90.616 402.66 83.2921C403.358 79.1639 401.322 77.0948 399.75 75.2984Z" fill="#363636"/>
</g>
<path fill-rule="evenodd" clip-rule="evenodd" d="M476.431 202.8L474.319 196.294L458.122 197.671C464.227 194.54 469.155 184.246 469.155 184.246L466.339 181.596L461.177 182.56L452.491 192.198C449.4 195.795 443.129 204.141 441.194 206.196C438.354 205.076 435.247 203.851 431.892 202.535C426.824 200.554 421.266 198.385 415.492 196.13C414.046 195.568 412.588 195.001 411.12 194.431C410.789 194.297 410.308 194.125 410.095 194.024C409.931 193.934 409.76 193.866 409.606 193.766C409.281 193.595 408.986 193.371 408.696 193.16C407.562 192.258 406.726 191.055 406.345 189.768C402.829 177.891 399.386 166.25 396.658 157.034C393.822 147.582 391.672 140.603 390.87 138.336L390.631 137.698C388.478 130.948 382.936 126.551 377.694 126.236C376.482 126.152 375.281 126.296 374.122 126.699L374.102 126.705L374.084 126.713C372.924 127.116 371.894 127.744 371.003 128.56C367.106 132.05 365.55 138.913 368.127 145.517L368.342 146.163C369.144 148.431 371.906 155.199 375.7 164.318C377.605 168.865 379.763 174.013 382.056 179.491C383.209 182.221 384.394 185.034 385.602 187.895C386.207 189.325 386.815 190.766 387.429 192.216L388.349 194.393L388.869 195.614C389.107 196.186 389.358 196.749 389.647 197.296C391.867 201.723 395.467 205.388 399.705 207.732C400.774 208.301 401.863 208.829 402.992 209.234C403.549 209.454 404.125 209.625 404.694 209.801C405.22 209.958 405.501 210.018 405.914 210.128C407.44 210.523 408.956 210.916 410.458 211.303C416.467 212.851 422.251 214.338 427.528 215.696C430.969 216.576 434.162 217.39 437.088 218.132L448.055 221.422L459.992 223.505L475.025 221.903L473.85 210.27L476.431 202.8Z" fill="#7D5032"/>
<path fill-rule="evenodd" clip-rule="evenodd" d="M278.312 130.155L257.685 177.28L273.836 197.237L299.2 139.247L278.312 130.155Z" fill="#7D5032"/>
<path fill-rule="evenodd" clip-rule="evenodd" d="M410.839 393.526C410.839 393.526 384.406 259.782 381.402 241.23C378.397 222.681 372.322 220.487 372.322 207.622C372.322 194.756 370.59 155.359 370.59 155.359L398.222 133.516C388.313 108.382 365.181 103.895 357.072 101.202C353.586 100.045 346.356 97.7338 343.958 95.785L322.962 96.2943C319.759 99.4821 291.653 112.031 283.007 118.092C274.359 124.155 271.495 144.649 271.495 144.649L301.025 157.48C301.025 157.48 311.999 205.959 311.999 214.272C311.999 222.584 298.4 263.669 301.564 284.949C304.729 306.232 313.433 499.444 313.433 499.444H349.042L346.571 310.225C346.537 307.789 350.057 307.376 350.594 309.754L393.417 499.444H429.763L410.839 393.526Z" fill="#2297FF"/>
<path fill-rule="evenodd" clip-rule="evenodd" d="M239.674 143.197C241.218 141.856 241.984 139.785 241.712 137.718C241.453 135.789 242.105 133.851 243.462 132.505L244.892 131.082C245.807 130.171 247.161 129.927 248.32 130.46L248.741 128.924C249.232 127.146 250.905 126.005 252.672 126.244C254.836 126.533 256.663 128.04 257.417 130.157L258.314 132.666H258.707C260.778 132.666 262.642 133.977 263.404 135.974L268.947 150.517L271.071 171.898V185.563L281.388 172.963C282.348 171.79 283.904 171.349 285.306 171.852C287.103 172.497 288.106 174.482 287.595 176.381L285.108 185.563L275.112 203.856L262.417 208.674C259.403 209.815 256.059 209.562 253.238 207.974L249.746 206.014C246.82 204.368 244.754 201.46 244.106 198.08L237.688 164.624L237.009 149.507C236.9 147.089 237.885 144.755 239.674 143.197Z" fill="#A56E46"/>
<path fill-rule="evenodd" clip-rule="evenodd" d="M244.106 198.079C244.754 201.462 246.821 204.369 249.747 206.013L253.237 207.976C256.059 209.563 259.402 209.816 262.416 208.673L275.112 203.857L285.107 185.565L287.594 176.382C288.106 174.481 287.103 172.497 285.306 171.851C283.904 171.348 282.348 171.789 281.387 172.962L271.07 185.565V171.897L268.947 150.519L263.403 135.975C262.641 133.978 260.778 132.665 258.706 132.665H258.313L257.417 130.157C256.663 128.039 254.835 126.532 252.671 126.243C250.905 126.006 249.232 127.147 248.743 128.926L248.319 130.461C247.16 129.926 245.806 130.173 244.892 131.081L243.462 132.504C242.104 133.85 241.452 135.79 241.711 137.719C241.984 139.786 241.218 141.855 239.673 143.197C237.885 144.754 236.9 147.088 237.008 149.508L237.688 164.623L244.106 198.079Z" fill="#A56E46"/>
<path fill-rule="evenodd" clip-rule="evenodd" d="M334.397 115.33C328.593 115.33 322.947 101.584 322.947 95.7842V79.5584C322.947 73.7582 327.65 69.0566 333.452 69.0566C339.254 69.0566 343.957 73.7582 343.957 79.5584V95.7842C343.957 101.584 340.199 115.33 334.397 115.33Z" fill="#7D5032"/>
<path fill-rule="evenodd" clip-rule="evenodd" d="M466.28 238.918H472.239V123.299H466.28V238.918Z" fill="#363636"/>
<path fill-rule="evenodd" clip-rule="evenodd" d="M461.779 198.095L473.684 195.833C474.715 195.637 475.734 196.232 476.067 197.229L476.795 199.404C477.393 201.189 477.374 203.121 476.743 204.894L476.354 205.986C475.453 208.506 475.11 211.193 475.347 213.862L476.011 221.416C476.023 221.53 476.023 221.649 476.013 221.765C475.922 222.922 474.91 223.784 473.754 223.696L466.508 223.124C462.499 222.81 459.278 219.702 458.817 215.71L457.463 203.937C457.142 201.164 459.026 198.618 461.779 198.095Z" fill="#A56E46"/>
<path fill-rule="evenodd" clip-rule="evenodd" d="M458.818 215.71C459.277 219.702 462.5 222.81 466.509 223.125L473.753 223.694C474.908 223.784 475.921 222.922 476.011 221.765C476.021 221.649 476.021 221.531 476.009 221.416L475.345 213.862C475.111 211.193 475.454 208.507 476.352 205.985L476.743 204.892C477.375 203.121 477.393 201.189 476.795 199.404L476.067 197.229C475.735 196.233 474.716 195.637 473.683 195.832L461.78 198.095C459.026 198.618 457.143 201.165 457.462 203.935L458.818 215.71Z" fill="#7D5032"/>
<path fill-rule="evenodd" clip-rule="evenodd" d="M353.673 51.1602C353.322 51.1602 352.979 51.2023 352.65 51.2804V41.1335C347.364 45.4782 337.159 49.4018 323.391 54.4021C317.03 56.7118 311.823 62.905 307.75 69.9102C308.648 70.8525 309.828 71.4439 311.135 71.4439C312.254 71.4439 313.275 71.0109 314.114 70.2991V74.8864C314.015 76.6968 314.894 78.3549 316.372 79.5398C316.625 79.7463 316.889 79.9428 317.184 80.1252C320.826 82.3748 324.785 84.6163 328.66 86.537C329.131 86.7696 329.615 86.962 330.106 87.1264C331.131 87.5034 332.238 87.6818 333.379 87.6718C334.516 87.6818 335.629 87.5034 336.648 87.1264C337.141 86.962 337.629 86.7696 338.096 86.537C341.973 84.6163 345.936 82.3748 349.582 80.1252C349.871 79.9428 350.137 79.7463 350.39 79.5398C351.868 78.3549 352.753 76.6968 352.65 74.8864V71.3236C352.979 71.4038 353.322 71.4439 353.673 71.4439C356.473 71.4439 358.745 68.7994 358.745 65.5455V57.0586C358.745 53.7986 356.473 51.1602 353.673 51.1602Z" fill="#A56E46"/>
<path fill-rule="evenodd" clip-rule="evenodd" d="M469.002 161C448.599 161 432 144.402 432 123.999C432 103.598 448.599 87 469.002 87C489.401 87 506 103.598 506 123.999C506 144.402 489.401 161 469.002 161Z" fill="#BF0001"/>
<path fill-rule="evenodd" clip-rule="evenodd" d="M490.6 122C491.925 122 493 122.895 493 124C493 125.105 491.925 126 490.6 126H447.4C446.075 126 445 125.105 445 124C445 122.895 446.075 122 447.4 122H490.6Z" fill="white"/>
<path fill-rule="evenodd" clip-rule="evenodd" d="M333.001 73C332.455 73 332.017 72.6375 332.017 72.1862V56.8175C332.017 56.3661 332.455 56 333.001 56C333.541 56 333.983 56.3661 333.983 56.8175V72.1862C333.983 72.6375 333.541 73 333.001 73Z" fill="#7D5032"/>
<path fill-rule="evenodd" clip-rule="evenodd" d="M341.327 74.9625C341.624 75.4279 341.488 76.0463 341.023 76.3437L340.52 75.5568C341.023 76.3437 341.023 76.3435 341.023 76.3437L341.02 76.3453L341.016 76.3483L341 76.3582L340.943 76.3934C340.895 76.4234 340.825 76.4663 340.734 76.5204C340.553 76.6284 340.29 76.7811 339.957 76.9644C339.289 77.3307 338.335 77.8208 337.176 78.3215C334.87 79.318 331.704 80.3796 328.363 80.5557C327.812 80.5847 327.341 80.1612 327.312 79.6097C327.283 79.0582 327.706 78.5875 328.258 78.5584C331.269 78.3997 334.19 77.4333 336.383 76.4856C337.473 76.0141 338.371 75.553 338.994 75.2111C339.305 75.0403 339.547 74.8997 339.709 74.8029C339.79 74.7545 339.851 74.7172 339.891 74.6925L339.935 74.6653L339.945 74.6593L339.946 74.6585C339.946 74.6584 339.946 74.6585 339.946 74.6585M341.327 74.9625C341.03 74.4973 340.411 74.3613 339.946 74.6585L341.327 74.9625Z" fill="#7D5032"/>
</g>
<defs>
<clipPath id="clip0_16288_159791">
<rect width="700" height="330" fill="white"/>
</clipPath>
</defs>
</svg>
