<svg width="44" height="44" viewBox="0 0 44 44" fill="none" xmlns="http://www.w3.org/2000/svg">
<rect x="3" y="3" width="38" height="38" rx="8" fill="white"/>
<rect x="6" y="6" width="32" height="32" rx="5" fill="#A65B00"/>
<path opacity="0.6" d="M10 33.2164V10.8761C10 10.438 10.4384 10 10.8767 10H33.1233C33.6712 10 34 10.438 34 10.8761V33.1069C34 33.6544 33.5616 33.983 33.1233 33.983H10.9997C10.918 33.983 10.8367 33.9974 10.755 33.9998C10.3608 34.0112 10 33.6138 10 33.2164Z" fill="#FF8C00"/>
<path d="M30.5166 15.8444L30.519 15.845C31.0867 15.9991 31.5693 16.6478 31.897 17.8842C32.2135 19.0786 32.3333 20.6346 32.3333 22.25C32.3333 23.8608 32.2135 25.4192 31.8969 26.6172C31.5688 27.8583 31.0858 28.5102 30.519 28.664L30.5166 28.6647C30.4085 28.6946 30.0849 28.7371 29.5382 28.7797C29.0127 28.8207 28.3268 28.8589 27.5318 28.8917C25.9426 28.9571 23.9299 29 21.9167 29C19.9034 29 17.8907 28.9571 16.3015 28.8917C15.5065 28.8589 14.8207 28.8207 14.2951 28.7797C13.7484 28.7371 13.4249 28.6946 13.3167 28.6647L13.3143 28.664C12.7475 28.5102 12.2645 27.8583 11.9364 26.6172C11.6198 25.4192 11.5 23.8608 11.5 22.25C11.5 20.6346 11.6198 19.0762 11.9364 17.8782C12.2636 16.6406 12.7455 15.9864 13.3133 15.8272C13.427 15.7981 13.7526 15.7574 14.2939 15.7165C14.8199 15.6767 15.5061 15.6394 16.3011 15.6072C17.8906 15.5429 19.9035 15.5 21.9167 15.5C23.9295 15.5 25.942 15.5452 27.5311 15.6128C28.326 15.6467 29.0119 15.686 29.5374 15.7278C30.0839 15.7713 30.408 15.8143 30.5166 15.8444Z" fill="#FF0000" fill-opacity="0.7" stroke="white"/>
<path d="M19.7333 26.3281V18.1719L26.2833 22.25L19.7333 26.3281Z" fill="white"/>
<path d="M24 41H41L32.5 26.55L24 41Z" fill="black"/>
<path d="M33.35 35.9H31.65V30.8H33.35V35.9ZM33.35 39.3H31.65V37.6H33.35V39.3Z" fill="white"/>
</svg>
