<svg width="90" height="46" viewBox="0 0 90 46" fill="none" xmlns="http://www.w3.org/2000/svg">
<g clip-path="url(#clip0_260_292)">
<path d="M90 3.93403e-06V26.4263C90 29.9508 87.6934 33.0601 84.3205 34.0824L47.3205 45.2967C45.8075 45.7553 44.1925 45.7553 42.6795 45.2967L5.67953 34.0824C2.30657 33.0601 -1.5406e-07 29.9508 0 26.4263L1.15514e-06 0L90 3.93403e-06Z" fill="#4877B5"/>
<path d="M31.4609 27.6016C30.2057 27.6016 29.2135 28.0208 28.4844 28.8594C27.7604 29.6927 27.3984 30.8359 27.3984 32.2891C27.3984 33.7839 27.7474 34.9401 28.4453 35.7578C29.1484 36.5703 30.1484 36.9766 31.4453 36.9766C32.2422 36.9766 33.151 36.8333 34.1719 36.5469V37.7109C33.3802 38.0078 32.4036 38.1562 31.2422 38.1562C29.5599 38.1562 28.2604 37.6458 27.3438 36.625C26.4323 35.6042 25.9766 34.1536 25.9766 32.2734C25.9766 31.0964 26.1953 30.0651 26.6328 29.1797C27.0755 28.2943 27.7109 27.612 28.5391 27.1328C29.3724 26.6536 30.3516 26.4141 31.4766 26.4141C32.6745 26.4141 33.7214 26.6328 34.6172 27.0703L34.0547 28.2109C33.1901 27.8047 32.3255 27.6016 31.4609 27.6016ZM43.8594 33.7109C43.8594 35.1068 43.5078 36.1979 42.8047 36.9844C42.1016 37.7656 41.1302 38.1562 39.8906 38.1562C39.125 38.1562 38.4453 37.9766 37.8516 37.6172C37.2578 37.2578 36.7995 36.7422 36.4766 36.0703C36.1536 35.3984 35.9922 34.612 35.9922 33.7109C35.9922 32.3151 36.3411 31.2292 37.0391 30.4531C37.737 29.6719 38.7057 29.2812 39.9453 29.2812C41.1432 29.2812 42.0938 29.6797 42.7969 30.4766C43.5052 31.2734 43.8594 32.3516 43.8594 33.7109ZM37.3359 33.7109C37.3359 34.8047 37.5547 35.638 37.9922 36.2109C38.4297 36.7839 39.0729 37.0703 39.9219 37.0703C40.7708 37.0703 41.4141 36.7865 41.8516 36.2188C42.2943 35.6458 42.5156 34.8099 42.5156 33.7109C42.5156 32.6224 42.2943 31.7969 41.8516 31.2344C41.4141 30.6667 40.7656 30.3828 39.9062 30.3828C39.0573 30.3828 38.4167 30.6615 37.9844 31.2188C37.5521 31.776 37.3359 32.6068 37.3359 33.7109ZM51.9688 36.8516H51.8984C51.2995 37.7214 50.4036 38.1562 49.2109 38.1562C48.0911 38.1562 47.2188 37.7734 46.5938 37.0078C45.974 36.2422 45.6641 35.1536 45.6641 33.7422C45.6641 32.3307 45.9766 31.2344 46.6016 30.4531C47.2266 29.6719 48.0964 29.2812 49.2109 29.2812C50.3724 29.2812 51.263 29.7031 51.8828 30.5469H51.9844L51.9297 29.9297L51.8984 29.3281V25.8438H53.1953V38H52.1406L51.9688 36.8516ZM49.375 37.0703C50.2604 37.0703 50.901 36.8307 51.2969 36.3516C51.6979 35.8672 51.8984 35.0885 51.8984 34.0156V33.7422C51.8984 32.5286 51.6953 31.6641 51.2891 31.1484C50.888 30.6276 50.2448 30.3672 49.3594 30.3672C48.599 30.3672 48.0156 30.6641 47.6094 31.2578C47.2083 31.8464 47.0078 32.6797 47.0078 33.7578C47.0078 34.8516 47.2083 35.6771 47.6094 36.2344C48.0104 36.7917 48.599 37.0703 49.375 37.0703ZM59.5703 38.1562C58.3047 38.1562 57.3047 37.7708 56.5703 37C55.8411 36.2292 55.4766 35.1589 55.4766 33.7891C55.4766 32.4089 55.8151 31.3125 56.4922 30.5C57.1745 29.6875 58.0885 29.2812 59.2344 29.2812C60.3073 29.2812 61.1562 29.6354 61.7812 30.3438C62.4062 31.0469 62.7188 31.9766 62.7188 33.1328V33.9531H56.8203C56.8464 34.9583 57.099 35.7214 57.5781 36.2422C58.0625 36.763 58.7422 37.0234 59.6172 37.0234C60.5391 37.0234 61.4505 36.8307 62.3516 36.4453V37.6016C61.8932 37.7995 61.4583 37.9401 61.0469 38.0234C60.6406 38.112 60.1484 38.1562 59.5703 38.1562ZM59.2188 30.3672C58.5312 30.3672 57.9818 30.5911 57.5703 31.0391C57.1641 31.487 56.9245 32.1068 56.8516 32.8984H61.3281C61.3281 32.0807 61.1458 31.4557 60.7812 31.0234C60.4167 30.5859 59.8958 30.3672 59.2188 30.3672Z" fill="white"/>
<path d="M35.3208 22.3721L21 15.3133V13.3269L35.3208 5.31604V8.51713L24.5765 14.1642L35.3208 19.1382V22.3721Z" fill="white"/>
<path d="M50.6067 2L42.6327 26H39.3787L47.3673 2H50.6067Z" fill="white"/>
<path d="M54.6792 19.1382L65.4235 14.1642L54.6792 8.51713V5.31604L69 13.3269V15.3133L54.6792 22.3721V19.1382Z" fill="white"/>
</g>
<defs>
<clipPath id="clip0_260_292">
<rect width="90" height="46" fill="white"/>
</clipPath>
</defs>
</svg>
