<svg width="18" height="18" viewBox="0 0 18 18" fill="none" xmlns="http://www.w3.org/2000/svg">
<path d="M15.9775 0H13.3483H4.65169H2.02247C0.808986 0 -3.08605e-06 0.8 -3.08605e-06 2V4.60001V13.2V16C-3.08605e-06 17.2 0.808986 18 2.02247 18H4.65169H13.3483H15.9775C17.191 18 18 17.2 18 16V13.4V4.8V2C18 0.8 17.191 0 15.9775 0Z" fill="#BA3838"/>
<path d="M12.5393 14L8.89885 10.4L5.25839 14L3.84267 12.6L7.48312 9L3.84267 5.39999L5.25839 4L8.89885 7.60001L12.5393 4L13.955 5.39999L10.3146 9L13.955 12.6L12.5393 14Z" fill="white"/>
</svg>