<svg width="24" height="24" viewBox="0 0 24 24" fill="none" xmlns="http://www.w3.org/2000/svg">
<style>
path {
  fill: #BF0001
}
@media (prefers-color-scheme: dark) {
  path { 
    fill: #E59192
  }
}
</style>
<g clip-path="url(#clip0_1529_10007)">
<path fill-rule="evenodd" clip-rule="evenodd" d="M12 24C18.6274 24 24 18.6274 24 12C24 5.37258 18.6274 0 12 0C5.37258 0 0 5.37258 0 12C0 18.6274 5.37258 24 12 24ZM4.53033 9.46967C4.23744 9.17678 3.76256 9.17678 3.46967 9.46967C3.17678 9.76256 3.17678 10.2374 3.46967 10.5303L4.93934 12L3.46967 13.4697C3.17678 13.7626 3.17678 14.2374 3.46967 14.5303C3.76256 14.8232 4.23744 14.8232 4.53033 14.5303L6 13.0607L7.46967 14.5303C7.76256 14.8232 8.23744 14.8232 8.53033 14.5303C8.82322 14.2374 8.82322 13.7626 8.53033 13.4697L7.06066 12L8.53033 10.5303C8.82322 10.2374 8.82322 9.76256 8.53033 9.46967C8.23744 9.17678 7.76256 9.17678 7.46967 9.46967L6 10.9393L4.53033 9.46967ZM10.5303 9.46967C10.2374 9.17678 9.76256 9.17678 9.46967 9.46967C9.17678 9.76256 9.17678 10.2374 9.46967 10.5303L10.9393 12L9.46967 13.4697C9.17678 13.7626 9.17678 14.2374 9.46967 14.5303C9.76256 14.8232 10.2374 14.8232 10.5303 14.5303L12 13.0607L13.4697 14.5303C13.7626 14.8232 14.2374 14.8232 14.5303 14.5303C14.8232 14.2374 14.8232 13.7626 14.5303 13.4697L13.0607 12L14.5303 10.5303C14.8232 10.2374 14.8232 9.76256 14.5303 9.46967C14.2374 9.17678 13.7626 9.17678 13.4697 9.46967L12 10.9393L10.5303 9.46967ZM16.5303 9.46967C16.2374 9.17678 15.7626 9.17678 15.4697 9.46967C15.1768 9.76256 15.1768 10.2374 15.4697 10.5303L16.9393 12L15.4697 13.4697C15.1768 13.7626 15.1768 14.2374 15.4697 14.5303C15.7626 14.8232 16.2374 14.8232 16.5303 14.5303L18 13.0607L19.4697 14.5303C19.7626 14.8232 20.2374 14.8232 20.5303 14.5303C20.8232 14.2374 20.8232 13.7626 20.5303 13.4697L19.0607 12L20.5303 10.5303C20.8232 10.2374 20.8232 9.76256 20.5303 9.46967C20.2374 9.17678 19.7626 9.17678 19.4697 9.46967L18 10.9393L16.5303 9.46967Z" fill="#BF0001"/>
</g>
<defs>
<clipPath id="clip0_1529_10007">
<rect width="24" height="24" rx="12" fill="white"/>
</clipPath>
</defs>
</svg>
