<svg width="25" height="25" viewBox="0 0 25 25" fill="none" xmlns="http://www.w3.org/2000/svg">
<style>
path {
  fill: #A87200
}
@media (prefers-color-scheme: dark) {
  path { 
    fill: #FFDB8F
  }
}
</style>
<g clip-path="url(#clip0_11085_22443)">
<path d="M12.3867 0.441895C19.0141 0.441895 24.3867 5.81448 24.3867 12.4419C24.3867 19.0693 19.0141 24.4419 12.3867 24.4419C5.7593 24.4419 0.386719 19.0693 0.386719 12.4419C0.386719 5.81448 5.7593 0.441895 12.3867 0.441895ZM17.9932 13.8257C17.6121 13.7646 17.265 13.8453 17.0391 13.9058C16.3813 14.0817 14.6271 14.4848 12.3867 14.4849C10.1467 14.4848 8.39328 14.0818 7.73535 13.9058C7.50937 13.8453 7.16178 13.7645 6.78027 13.8257C5.40985 14.0457 4.38697 15.2523 4.38672 16.6802V18.7964C4.38678 18.924 4.41912 19.0501 4.47949 19.1626L5.16113 18.7964C4.52881 19.1359 4.48261 19.1613 4.47949 19.1636L4.48047 19.1646L4.48438 19.1724C4.48665 19.1765 4.49005 19.1815 4.49316 19.187C4.49939 19.198 4.50691 19.2119 4.5166 19.228C4.53613 19.2604 4.56307 19.3029 4.59766 19.354C4.66701 19.4564 4.76821 19.5939 4.90625 19.7534C5.18265 20.0729 5.60687 20.4814 6.21973 20.8843C7.45309 21.6949 9.4099 22.4536 12.3867 22.4536C15.3635 22.4536 17.3203 21.6949 18.5537 20.8843C19.1664 20.4815 19.5908 20.0728 19.8672 19.7534C20.0051 19.5939 20.1065 19.4563 20.1758 19.354C20.2103 19.303 20.2373 19.2604 20.2568 19.228C20.2665 19.2119 20.275 19.198 20.2812 19.187C20.2843 19.1816 20.2868 19.1764 20.2891 19.1724C20.2901 19.1704 20.2911 19.1681 20.292 19.1665L20.2939 19.1646V19.1636L19.6123 18.7964L20.2949 19.1626C20.3552 19.0502 20.3867 18.924 20.3867 18.7964V16.6802C20.3865 15.2523 19.3635 14.0457 17.9932 13.8257ZM17.748 15.355C18.3515 15.4519 18.8386 15.9964 18.8389 16.6802V18.562C18.8026 18.6108 18.7555 18.6712 18.6963 18.7397C18.5051 18.9608 18.1873 19.2726 17.7041 19.5903C16.744 20.2214 15.087 20.9047 12.3867 20.9048C9.68643 20.9047 8.03045 20.2214 7.07031 19.5903C6.5867 19.2725 6.26845 18.9609 6.07715 18.7397C6.01799 18.6714 5.97177 18.6108 5.93555 18.562V16.6802C5.9358 15.9964 6.42199 15.452 7.02539 15.355C7.06689 15.3484 7.14747 15.3517 7.33496 15.4019C8.07668 15.6003 9.97041 16.0337 12.3867 16.0337C14.8027 16.0337 16.6966 15.6003 17.4385 15.4019C17.626 15.3517 17.7066 15.3484 17.748 15.355ZM12.3867 2.44189C9.53622 2.44189 7.22559 4.72038 7.22559 7.53076C7.22571 10.341 9.53629 12.6196 12.3867 12.6196C15.2371 12.6196 17.5477 10.341 17.5479 7.53076C17.5479 4.72038 15.2372 2.44189 12.3867 2.44189ZM12.2969 9.26514C12.4756 9.26514 12.6203 9.32154 12.7295 9.43408C12.8386 9.5466 12.8936 9.69684 12.8936 9.88428C12.8935 10.0663 12.8387 10.2154 12.7295 10.3306C12.6203 10.443 12.4755 10.4985 12.2969 10.4985C12.1184 10.4984 11.9729 10.443 11.8613 10.3306C11.7497 10.2154 11.6944 10.0663 11.6943 9.88428C11.6943 9.69688 11.7498 9.54659 11.8613 9.43408C11.9729 9.32164 12.1183 9.26523 12.2969 9.26514ZM12.4053 4.56201C12.7453 4.56201 13.0418 4.62807 13.2949 4.75928C13.5506 4.8879 13.7501 5.06569 13.8916 5.29346C14.0356 5.52122 14.1074 5.78288 14.1074 6.07764V6.08545C14.1074 6.2891 14.0757 6.474 14.0137 6.64014C13.9541 6.80621 13.8652 6.95639 13.7461 7.09033C13.6294 7.22163 13.4862 7.34277 13.3174 7.45264C13.1562 7.55436 13.0293 7.64944 12.9375 7.73779C12.8483 7.82613 12.7852 7.92001 12.748 8.01904C12.7108 8.11817 12.6924 8.23471 12.6924 8.36865V8.59326H11.8281L11.8242 8.30811C11.8168 8.11258 11.8352 7.93956 11.8799 7.78955C11.9245 7.63964 12.0008 7.50477 12.1074 7.38428C12.2142 7.26101 12.3517 7.14356 12.5205 7.03369C12.6769 6.93187 12.8003 6.83696 12.8896 6.74854C12.9789 6.66017 13.0419 6.56635 13.0791 6.46729C13.1188 6.36814 13.1387 6.25288 13.1387 6.12158V6.11377C13.1387 5.97175 13.1065 5.84571 13.042 5.73584C12.9775 5.62607 12.8856 5.54062 12.7666 5.479C12.6499 5.41469 12.5128 5.38232 12.3564 5.38232C12.1978 5.38239 12.0585 5.41599 11.9395 5.48291C11.8205 5.54988 11.7267 5.64374 11.6572 5.76416C11.5902 5.88474 11.5509 6.02526 11.541 6.18604L11.5381 6.19775H10.666V6.18213C10.6759 5.87402 10.7492 5.59782 10.8857 5.354C11.0223 5.10748 11.2175 4.91424 11.4707 4.7749C11.7264 4.63295 12.038 4.56202 12.4053 4.56201Z" fill="#A87200"/>
</g>
<defs>
<clipPath id="clip0_11085_22443">
<rect width="24" height="24" fill="white" transform="translate(0.386719 0.441895)"/>
</clipPath>
</defs>
</svg>
