<svg width="24" height="24" viewBox="0 0 24 24" fill="none" xmlns="http://www.w3.org/2000/svg">
<style>
path {
  fill: #BF0001
}
@media (prefers-color-scheme: dark) {
  path { 
    fill: #E59192
  }
}
</style>
<g clip-path="url(#clip0_1529_10010)">
<path fill-rule="evenodd" clip-rule="evenodd" d="M12 24C18.6274 24 24 18.6274 24 12C24 5.37258 18.6274 0 12 0C5.37258 0 0 5.37258 0 12C0 18.6274 5.37258 24 12 24ZM16.1325 4.21082C16.2263 3.92923 16.1227 3.6195 15.8783 3.45106C15.6339 3.28263 15.3076 3.29607 15.0778 3.48403L5.30006 11.484C5.08198 11.6625 4.99963 11.9587 5.09436 12.2241C5.18909 12.4895 5.44044 12.6667 5.72222 12.6667H9.24172L6.86754 19.7892C6.77368 20.0708 6.87729 20.3805 7.1217 20.5489C7.36611 20.7174 7.69243 20.7039 7.92216 20.516L17.6999 12.516C17.918 12.3375 18.0004 12.0413 17.9056 11.7759C17.8109 11.5105 17.5596 11.3333 17.2778 11.3333H13.7583L16.1325 4.21082ZM10.1667 11.3333H7.58983L14.139 5.97496L12.2009 11.7892C12.1331 11.9925 12.1672 12.216 12.2925 12.3898C12.4178 12.5637 12.619 12.6667 12.8333 12.6667H15.4102L8.86105 18.025L10.7991 12.2108C10.8669 12.0075 10.8328 11.784 10.7075 11.6102C10.5822 11.4363 10.381 11.3333 10.1667 11.3333Z" fill="#BF0001"/>
</g>
<defs>
<clipPath id="clip0_1529_10010">
<rect width="24" height="24" fill="white"/>
</clipPath>
</defs>
</svg>
