<svg width="25" height="25" viewBox="0 0 25 25" fill="none" xmlns="http://www.w3.org/2000/svg">
<style>
path {
  fill: #A87200
}
@media (prefers-color-scheme: dark) {
  path { 
    fill: #FFDB8F
  }
}
</style>
<g clip-path="url(#clip0_11085_18786)">
<path d="M12.3867 0.441895C19.0141 0.441895 24.3867 5.81448 24.3867 12.4419C24.3867 19.0693 19.0141 24.4419 12.3867 24.4419C5.7593 24.4419 0.386719 19.0693 0.386719 12.4419C0.386719 5.81448 5.7593 0.441895 12.3867 0.441895ZM7.94238 4.44189L7.75977 4.44678C5.88091 4.54178 4.38672 6.09509 4.38672 7.99756V16.8862C4.38672 18.7887 5.88091 20.342 7.75977 20.437L7.94238 20.4419H16.8311C18.7947 20.4419 20.3867 18.8499 20.3867 16.8862V7.99756C20.3867 6.03388 18.7947 4.44189 16.8311 4.44189H7.94238ZM16.8311 5.94189C17.9663 5.94189 18.8867 6.86231 18.8867 7.99756V16.8862C18.8867 18.0215 17.9663 18.9419 16.8311 18.9419H7.94238C6.80713 18.9419 5.88672 18.0215 5.88672 16.8862V7.99756C5.88672 6.86231 6.80713 5.94189 7.94238 5.94189H16.8311ZM8.83105 14.2192C7.84927 14.2193 7.05371 15.0158 7.05371 15.9976C7.05377 16.9793 7.8493 17.7748 8.83105 17.7749C9.81286 17.7749 10.6093 16.9793 10.6094 15.9976C10.6094 15.0157 9.81289 14.2192 8.83105 14.2192ZM15.9424 14.2192C14.9605 14.2192 14.1641 15.0157 14.1641 15.9976C14.1641 16.9793 14.9606 17.7749 15.9424 17.7749C16.9241 17.7748 17.7197 16.9793 17.7197 15.9976C17.7197 15.0158 16.9242 14.2193 15.9424 14.2192ZM12.3867 10.6646C11.4049 10.6646 10.6094 11.4601 10.6094 12.4419C10.6094 13.4237 11.4049 14.2192 12.3867 14.2192C13.3686 14.2192 14.1641 13.4237 14.1641 12.4419C14.1641 11.4601 13.3686 10.6646 12.3867 10.6646ZM8.83105 7.10889C7.8493 7.10895 7.05377 7.90448 7.05371 8.88623C7.05371 9.86803 7.84927 10.6645 8.83105 10.6646C9.81289 10.6646 10.6094 9.86807 10.6094 8.88623C10.6093 7.90444 9.81286 7.10889 8.83105 7.10889ZM15.9424 7.10889C14.9606 7.10889 14.1641 7.90444 14.1641 8.88623C14.1641 9.86807 14.9605 10.6646 15.9424 10.6646C16.9242 10.6645 17.7197 9.86803 17.7197 8.88623C17.7197 7.90448 16.9241 7.10895 15.9424 7.10889Z" fill="#A87200"/>
</g>
<defs>
<clipPath id="clip0_11085_18786">
<rect width="24" height="24" fill="white" transform="translate(0.386719 0.441895)"/>
</clipPath>
</defs>
</svg>
