<svg width="25" height="25" viewBox="0 0 25 25" fill="none" xmlns="http://www.w3.org/2000/svg">
<style>
path {
  fill: #BF0001
}
@media (prefers-color-scheme: dark) {
  path { 
    fill: #E59192
  }
}
</style>
<g clip-path="url(#clip0_11085_4790)">
<path d="M12.3867 0.441895C19.0141 0.441895 24.3867 5.81448 24.3867 12.4419C24.3867 19.0693 19.0141 24.4419 12.3867 24.4419C5.7593 24.4419 0.386719 19.0693 0.386719 12.4419C0.386719 5.81448 5.7593 0.441895 12.3867 0.441895ZM12.3789 4.44189C7.96291 4.44189 4.38672 8.02589 4.38672 12.4419C4.38672 16.8579 7.96291 20.4419 12.3789 20.4419C16.8028 20.4418 20.3867 16.8578 20.3867 12.4419C20.3867 8.02596 16.8028 4.442 12.3789 4.44189ZM12.3867 6.0415C15.9227 6.0415 18.7871 8.90589 18.7871 12.4419C18.7871 15.9779 15.9227 18.8423 12.3867 18.8423C8.85072 18.8423 5.98633 15.9779 5.98633 12.4419C5.98633 8.90589 8.85072 6.0415 12.3867 6.0415ZM12.3867 14.0415C10.8667 14.0415 9.483 14.818 8.66699 16.106C8.49101 16.3859 8.57848 16.7542 8.8584 16.9302C9.1384 17.1062 9.50662 17.0178 9.68262 16.7378C10.2746 15.7938 11.2827 15.2339 12.3867 15.2339C13.4907 15.2339 14.4988 15.7938 15.0908 16.7378C15.2028 16.9217 15.4026 17.018 15.6025 17.0181C15.7145 17.0181 15.8189 16.9862 15.9229 16.9302C16.2029 16.7542 16.2903 16.386 16.1143 16.106C15.2902 14.8101 13.9067 14.0415 12.3867 14.0415ZM9.58691 9.2417C8.92417 9.2417 8.38672 9.77915 8.38672 10.4419C8.38672 11.1046 8.92417 11.6421 9.58691 11.6421C10.2496 11.642 10.7871 11.1046 10.7871 10.4419C10.7871 9.77922 10.2496 9.24181 9.58691 9.2417ZM15.1865 9.2417C14.5239 9.24181 13.9863 9.77922 13.9863 10.4419C13.9863 11.1046 14.5239 11.642 15.1865 11.6421C15.8493 11.6421 16.3867 11.1046 16.3867 10.4419C16.3867 9.77915 15.8493 9.2417 15.1865 9.2417Z" fill="#BF0001"/>
</g>
<defs>
<clipPath id="clip0_11085_4790">
<rect width="24" height="24" fill="white" transform="translate(0.386719 0.441895)"/>
</clipPath>
</defs>
</svg>
