<svg width="25" height="25" viewBox="0 0 25 25" fill="none" xmlns="http://www.w3.org/2000/svg">
<style>
path {
  fill: #1E7FDE
}
@media (prefers-color-scheme: dark) {
  path { 
    fill: #A0D0FF
  }
}
</style>
<g clip-path="url(#clip0_11085_6104)">
<path d="M12.3867 0.441895C19.0141 0.441895 24.3867 5.81448 24.3867 12.4419C24.3867 19.0693 19.0141 24.4419 12.3867 24.4419C5.7593 24.4419 0.386719 19.0693 0.386719 12.4419C0.386719 5.81448 5.7593 0.441895 12.3867 0.441895ZM12.3867 3.44189C11.5567 3.44189 10.8867 4.11189 10.8867 4.94189V5.60205C8.94689 6.02202 7.38697 7.2817 7.38672 9.21143C7.38672 11.5214 9.29691 12.6723 12.0869 13.3423C14.5863 13.9422 15.0868 14.8217 15.0869 15.7515C15.0869 16.4415 14.5967 17.5415 12.3867 17.5415C10.7367 17.5415 9.88664 16.9518 9.55664 16.1118C9.40662 15.7219 9.06622 15.4419 8.65625 15.4419H8.37695C7.70706 15.4419 7.2366 16.1218 7.48633 16.7417C8.05633 18.1317 9.38672 18.952 10.8867 19.272V19.9419C10.8867 20.7719 11.5567 21.4419 12.3867 21.4419C13.2167 21.4419 13.8867 20.7719 13.8867 19.9419V19.2915C15.8367 18.9215 17.3867 17.7917 17.3867 15.7417C17.3866 12.9019 14.9565 11.9323 12.6865 11.3423C10.4166 10.7523 9.68652 10.1419 9.68652 9.19189C9.68652 8.10189 10.6967 7.34229 12.3867 7.34229C13.8066 7.34229 14.5163 7.88186 14.7764 8.7417C14.8963 9.14162 15.2266 9.44178 15.6465 9.44189H15.9463C16.6061 9.44189 17.0763 8.79224 16.8467 8.17236C16.4267 6.99239 15.4467 6.01234 13.8867 5.63232V4.94189C13.8867 4.11189 13.2167 3.44189 12.3867 3.44189Z" fill="#1E7FDE"/>
</g>
<defs>
<clipPath id="clip0_11085_6104">
<rect width="24" height="24" fill="white" transform="translate(0.386719 0.441895)"/>
</clipPath>
</defs>
</svg>
