<svg width="25" height="25" viewBox="0 0 25 25" fill="none" xmlns="http://www.w3.org/2000/svg">
<style>
path {
  fill: #BF0001
}
@media (prefers-color-scheme: dark) {
  path { 
    fill: #E59192
  }
}
</style>
<g clip-path="url(#clip0_11085_10155)">
<path fill-rule="evenodd" clip-rule="evenodd" d="M12.3867 24.4419C19.0141 24.4419 24.3867 19.0693 24.3867 12.4419C24.3867 5.81448 19.0141 0.441895 12.3867 0.441895C5.7593 0.441895 0.386719 5.81448 0.386719 12.4419C0.386719 19.0693 5.7593 24.4419 12.3867 24.4419ZM9.91604 6.19195L13.2338 6.19189C13.6091 6.19189 13.9897 6.52896 13.9897 7.04188V11.7235C13.9897 12.2015 13.6955 12.5509 13.3468 12.6577L11.6691 8.5579C11.5333 8.22619 11.1819 8.03688 10.8302 8.10605C10.4785 8.17522 10.225 8.48354 10.225 8.84195V10.4419C10.225 12.2803 8.83304 13.6919 7.21025 13.6919C6.79603 13.6919 6.46025 14.0277 6.46025 14.4419C6.46025 14.8561 6.79603 15.1919 7.21025 15.1919C9.20323 15.1919 10.8524 13.8512 11.467 12.0246L12.0575 13.4676C12.229 13.8868 12.6364 14.1918 13.1224 14.1918C13.4317 14.1918 13.7235 14.1315 13.9897 14.0226V14.8103C13.9897 15.8236 14.6124 16.734 15.5253 17.0623V17.4419C15.5253 18.1757 14.9761 18.6919 14.3929 18.6919H8.62201C8.49393 18.6919 8.20577 18.6068 7.77688 18.3246C7.37397 18.0596 6.93389 17.6782 6.5247 17.2373C6.11587 16.7967 5.75671 16.317 5.50427 15.8664C5.24246 15.3991 5.13672 15.0363 5.13672 14.8103V11.2763C5.13672 10.9282 5.26819 10.6032 5.4885 10.3716L9.13549 6.53721C9.35134 6.31026 9.63283 6.19196 9.91604 6.19195ZM15.4897 14.8103V14.1918H17.5632C17.6276 14.1918 17.6913 14.1895 17.7544 14.1848V14.4419C17.7544 15.1758 17.2052 15.6919 16.622 15.6919H16.2753C15.8836 15.6919 15.4897 15.3407 15.4897 14.8103ZM19.2544 14.4419V13.5505C19.8357 13.0387 20.1955 12.272 20.1955 11.4418C20.1955 11.2427 20.1623 11.048 20.1003 10.8652C20.7319 10.4629 21.1367 9.7348 21.1367 8.94183C21.1367 7.74268 20.2111 6.69185 18.975 6.69183L15.4643 6.69177C15.3041 5.59045 14.4003 4.69187 13.2337 4.69189L9.91601 4.69195C9.20764 4.69196 8.53758 4.98933 8.0486 5.50344L4.40162 9.33783C3.90734 9.8575 3.63672 10.5563 3.63672 11.2763V14.8103C3.63672 15.4128 3.88392 16.0431 4.19564 16.5996C4.51673 17.1727 4.95168 17.7474 5.42521 18.2576C5.89837 18.7675 6.42888 19.2333 6.95244 19.5778C7.45003 19.9051 8.04421 20.1919 8.62201 20.1919H14.3929C15.8889 20.1919 17.0253 18.9172 17.0253 17.4419V17.1604C18.3175 16.9556 19.2544 15.7815 19.2544 14.4419ZM18.9749 9.69182L15.4897 9.69176V8.19177L18.975 8.19183C19.2983 8.19184 19.6367 8.48414 19.6367 8.94183C19.6367 9.39952 19.2982 9.69182 18.9749 9.69182ZM18.5044 11.1918L15.4897 11.1918V11.7235C15.4897 12.0632 15.4222 12.3915 15.2991 12.6918H17.5632C18.1464 12.6918 18.6955 12.1757 18.6955 11.4418C18.6955 11.2603 18.5678 11.1918 18.5044 11.1918Z" fill="#BF0001"/>
</g>
<defs>
<clipPath id="clip0_11085_10155">
<rect width="24" height="24" fill="white" transform="translate(0.386719 0.441895)"/>
</clipPath>
</defs>
</svg>
