<svg width="19" height="16" viewBox="0 0 19 16" fill="none" xmlns="http://www.w3.org/2000/svg">
<g opacity="0.3">
<path d="M2.5 5.5L5 10H0L2.5 5.5ZM0.5 0H4.5V4H0.5V0ZM2.5 16C3.03043 16 3.53914 15.7893 3.91421 15.4142C4.28929 15.0391 4.5 14.5304 4.5 14C4.5 13.4696 4.28929 12.9609 3.91421 12.5858C3.53914 12.2107 3.03043 12 2.5 12C1.96957 12 1.46086 12.2107 1.08579 12.5858C0.710714 12.9609 0.5 13.4696 0.5 14C0.5 14.5304 0.710714 15.0391 1.08579 15.4142C1.46086 15.7893 1.96957 16 2.5 16ZM6.5 1V3H18.5V1H6.5ZM6.5 15H18.5V13H6.5V15ZM6.5 9H18.5V7H6.5V9Z" fill="black"/>
</g>
</svg>