<svg width="19" height="20" viewBox="0 0 19 20" fill="none" xmlns="http://www.w3.org/2000/svg">
<path d="M3.51953 6H2.3125V2.69531L2.32422 2.15234L2.34375 1.55859C2.14323 1.75911 2.00391 1.89062 1.92578 1.95312L1.26953 2.48047L0.6875 1.75391L2.52734 0.289062H3.51953V6Z" fill="black"/>
<path d="M3.51953 6H2.3125V2.69531L2.32422 2.15234L2.34375 1.55859C2.14323 1.75911 2.00391 1.89062 1.92578 1.95312L1.26953 2.48047L0.6875 1.75391L2.52734 0.289062H3.51953V6Z" fill="#4877B5"/>
<path d="M18.5273 6H14.5352V5.16016L15.9688 3.71094C16.3932 3.27604 16.6706 2.97526 16.8008 2.80859C16.931 2.63932 17.0247 2.48307 17.082 2.33984C17.1393 2.19661 17.168 2.04818 17.168 1.89453C17.168 1.66536 17.1042 1.49479 16.9766 1.38281C16.8516 1.27083 16.6836 1.21484 16.4727 1.21484C16.2513 1.21484 16.0365 1.26562 15.8281 1.36719C15.6198 1.46875 15.4023 1.61328 15.1758 1.80078L14.5195 1.02344C14.8008 0.783854 15.0339 0.614583 15.2188 0.515625C15.4036 0.416667 15.6055 0.341146 15.8242 0.289062C16.043 0.234375 16.2878 0.207031 16.5586 0.207031C16.9154 0.207031 17.2305 0.272135 17.5039 0.402344C17.7773 0.532552 17.9896 0.714844 18.1406 0.949219C18.2917 1.18359 18.3672 1.45182 18.3672 1.75391C18.3672 2.01693 18.3203 2.26432 18.2266 2.49609C18.1354 2.72526 17.9922 2.96094 17.7969 3.20312C17.6042 3.44531 17.263 3.79036 16.7734 4.23828L16.0391 4.92969V4.98438H18.5273V6Z" fill="black"/>
<path d="M18.5273 6H14.5352V5.16016L15.9688 3.71094C16.3932 3.27604 16.6706 2.97526 16.8008 2.80859C16.931 2.63932 17.0247 2.48307 17.082 2.33984C17.1393 2.19661 17.168 2.04818 17.168 1.89453C17.168 1.66536 17.1042 1.49479 16.9766 1.38281C16.8516 1.27083 16.6836 1.21484 16.4727 1.21484C16.2513 1.21484 16.0365 1.26562 15.8281 1.36719C15.6198 1.46875 15.4023 1.61328 15.1758 1.80078L14.5195 1.02344C14.8008 0.783854 15.0339 0.614583 15.2188 0.515625C15.4036 0.416667 15.6055 0.341146 15.8242 0.289062C16.043 0.234375 16.2878 0.207031 16.5586 0.207031C16.9154 0.207031 17.2305 0.272135 17.5039 0.402344C17.7773 0.532552 17.9896 0.714844 18.1406 0.949219C18.2917 1.18359 18.3672 1.45182 18.3672 1.75391C18.3672 2.01693 18.3203 2.26432 18.2266 2.49609C18.1354 2.72526 17.9922 2.96094 17.7969 3.20312C17.6042 3.44531 17.263 3.79036 16.7734 4.23828L16.0391 4.92969V4.98438H18.5273V6Z" fill="#4877B5"/>
<path d="M4.30469 14.5664C4.30469 14.9232 4.19661 15.2266 3.98047 15.4766C3.76432 15.7266 3.46094 15.8984 3.07031 15.9922V16.0156C3.53125 16.0729 3.88021 16.2135 4.11719 16.4375C4.35417 16.6589 4.47266 16.9583 4.47266 17.3359C4.47266 17.8854 4.27344 18.3138 3.875 18.6211C3.47656 18.9258 2.90755 19.0781 2.16797 19.0781C1.54818 19.0781 0.998698 18.9753 0.519531 18.7695V17.7422C0.740885 17.8542 0.984375 17.9453 1.25 18.0156C1.51562 18.0859 1.77865 18.1211 2.03906 18.1211C2.4375 18.1211 2.73177 18.0534 2.92188 17.918C3.11198 17.7826 3.20703 17.5651 3.20703 17.2656C3.20703 16.9974 3.09766 16.8073 2.87891 16.6953C2.66016 16.5833 2.3112 16.5273 1.83203 16.5273H1.39844V15.6016H1.83984C2.28255 15.6016 2.60547 15.5443 2.80859 15.4297C3.01432 15.3125 3.11719 15.1133 3.11719 14.832C3.11719 14.3997 2.84635 14.1836 2.30469 14.1836C2.11719 14.1836 1.92578 14.2148 1.73047 14.2773C1.53776 14.3398 1.32292 14.4479 1.08594 14.6016L0.527344 13.7695C1.04818 13.3945 1.66927 13.207 2.39062 13.207C2.98177 13.207 3.44792 13.3268 3.78906 13.5664C4.13281 13.806 4.30469 14.1393 4.30469 14.5664Z" fill="black"/>
<path d="M4.30469 14.5664C4.30469 14.9232 4.19661 15.2266 3.98047 15.4766C3.76432 15.7266 3.46094 15.8984 3.07031 15.9922V16.0156C3.53125 16.0729 3.88021 16.2135 4.11719 16.4375C4.35417 16.6589 4.47266 16.9583 4.47266 17.3359C4.47266 17.8854 4.27344 18.3138 3.875 18.6211C3.47656 18.9258 2.90755 19.0781 2.16797 19.0781C1.54818 19.0781 0.998698 18.9753 0.519531 18.7695V17.7422C0.740885 17.8542 0.984375 17.9453 1.25 18.0156C1.51562 18.0859 1.77865 18.1211 2.03906 18.1211C2.4375 18.1211 2.73177 18.0534 2.92188 17.918C3.11198 17.7826 3.20703 17.5651 3.20703 17.2656C3.20703 16.9974 3.09766 16.8073 2.87891 16.6953C2.66016 16.5833 2.3112 16.5273 1.83203 16.5273H1.39844V15.6016H1.83984C2.28255 15.6016 2.60547 15.5443 2.80859 15.4297C3.01432 15.3125 3.11719 15.1133 3.11719 14.832C3.11719 14.3997 2.84635 14.1836 2.30469 14.1836C2.11719 14.1836 1.92578 14.2148 1.73047 14.2773C1.53776 14.3398 1.32292 14.4479 1.08594 14.6016L0.527344 13.7695C1.04818 13.3945 1.66927 13.207 2.39062 13.207C2.98177 13.207 3.44792 13.3268 3.78906 13.5664C4.13281 13.806 4.30469 14.1393 4.30469 14.5664Z" fill="#4877B5"/>
<path d="M18.6562 17.8164H17.9688V19H16.7891V17.8164H14.3516V16.9766L16.8555 13.2891H17.9688V16.8789H18.6562V17.8164ZM16.7891 16.8789V15.9102C16.7891 15.7487 16.7956 15.5143 16.8086 15.207C16.8216 14.8997 16.832 14.7214 16.8398 14.6719H16.8086C16.7122 14.8854 16.5964 15.0938 16.4609 15.2969L15.4141 16.8789H16.7891Z" fill="black"/>
<path d="M18.6562 17.8164H17.9688V19H16.7891V17.8164H14.3516V16.9766L16.8555 13.2891H17.9688V16.8789H18.6562V17.8164ZM16.7891 16.8789V15.9102C16.7891 15.7487 16.7956 15.5143 16.8086 15.207C16.8216 14.8997 16.832 14.7214 16.8398 14.6719H16.8086C16.7122 14.8854 16.5964 15.0938 16.4609 15.2969L15.4141 16.8789H16.7891Z" fill="#4877B5"/>
<path d="M13.2652 3.26517C13.4116 3.11872 13.4116 2.88128 13.2652 2.73483L10.8787 0.34835C10.7322 0.201903 10.4948 0.201903 10.3483 0.34835C10.2019 0.494796 10.2019 0.732233 10.3483 0.87868L12.4697 3L10.3483 5.12132C10.2019 5.26777 10.2019 5.5052 10.3483 5.65165C10.4948 5.7981 10.7322 5.7981 10.8787 5.65165L13.2652 3.26517ZM5 3.375H13V2.625H5V3.375Z" fill="black"/>
<path d="M13.2652 3.26517C13.4116 3.11872 13.4116 2.88128 13.2652 2.73483L10.8787 0.34835C10.7322 0.201903 10.4948 0.201903 10.3483 0.34835C10.2019 0.494796 10.2019 0.732233 10.3483 0.87868L12.4697 3L10.3483 5.12132C10.2019 5.26777 10.2019 5.5052 10.3483 5.65165C10.4948 5.7981 10.7322 5.7981 10.8787 5.65165L13.2652 3.26517ZM5 3.375H13V2.625H5V3.375Z" fill="#4877B5"/>
<path d="M13.2652 16.2652C13.4116 16.1187 13.4116 15.8813 13.2652 15.7348L10.8787 13.3483C10.7322 13.2019 10.4948 13.2019 10.3483 13.3483C10.2019 13.4948 10.2019 13.7322 10.3483 13.8787L12.4697 16L10.3483 18.1213C10.2019 18.2678 10.2019 18.5052 10.3483 18.6517C10.4948 18.7981 10.7322 18.7981 10.8787 18.6517L13.2652 16.2652ZM5 16.375H13V15.625H5V16.375Z" fill="black"/>
<path d="M13.2652 16.2652C13.4116 16.1187 13.4116 15.8813 13.2652 15.7348L10.8787 13.3483C10.7322 13.2019 10.4948 13.2019 10.3483 13.3483C10.2019 13.4948 10.2019 13.7322 10.3483 13.8787L12.4697 16L10.3483 18.1213C10.2019 18.2678 10.2019 18.5052 10.3483 18.6517C10.4948 18.7981 10.7322 18.7981 10.8787 18.6517L13.2652 16.2652ZM5 16.375H13V15.625H5V16.375Z" fill="#4877B5"/>
<path d="M4.62775 11.9547C4.60272 12.1603 4.7491 12.3472 4.95469 12.3723L8.30497 12.78C8.51056 12.8051 8.6975 12.6587 8.72253 12.4531C8.74755 12.2475 8.60117 12.0605 8.39558 12.0355L5.41756 11.6731L5.78003 8.69503C5.80505 8.48944 5.65867 8.3025 5.45308 8.27747C5.24749 8.25245 5.06055 8.39883 5.03552 8.60442L4.62775 11.9547ZM11.8293 6.17648L4.76882 11.7047L5.23118 12.2953L12.2917 6.767L11.8293 6.17648Z" fill="black"/>
<path d="M4.62775 11.9547C4.60272 12.1603 4.7491 12.3472 4.95469 12.3723L8.30497 12.78C8.51056 12.8051 8.6975 12.6587 8.72253 12.4531C8.74755 12.2475 8.60117 12.0605 8.39558 12.0355L5.41756 11.6731L5.78003 8.69503C5.80505 8.48944 5.65867 8.3025 5.45308 8.27747C5.24749 8.25245 5.06055 8.39883 5.03552 8.60442L4.62775 11.9547ZM11.8293 6.17648L4.76882 11.7047L5.23118 12.2953L12.2917 6.767L11.8293 6.17648Z" fill="#4877B5"/>
</svg>
