<svg width="25" height="25" viewBox="0 0 25 25" fill="none" xmlns="http://www.w3.org/2000/svg">
<style>
path {
  fill: #A87200
}
@media (prefers-color-scheme: dark) {
  path { 
    fill: #FFDB8F
  }
}
</style>
<g clip-path="url(#clip0_11085_17933)">
<path d="M12.3867 0.441895C19.0141 0.441895 24.3867 5.81448 24.3867 12.4419C24.3867 19.0693 19.0141 24.4419 12.3867 24.4419C5.7593 24.4419 0.386719 19.0693 0.386719 12.4419C0.386719 5.81448 5.7593 0.441895 12.3867 0.441895ZM7.86523 4.44189C7.49206 4.44209 7.18952 4.74893 7.18945 5.12744V8.50146L6.1123 9.59326C5.64767 10.0647 5.3868 10.7041 5.38672 11.3706V17.9282C5.38695 19.3164 6.4965 20.4417 7.86523 20.4419H11.4717C12.3426 20.4416 13.0487 19.7256 13.0488 18.8423V18.0356H11.6963V18.8423C11.6961 18.9682 11.5958 19.0706 11.4717 19.0708H7.86523C7.24325 19.0706 6.73949 18.559 6.73926 17.9282V11.3706C6.73934 11.0676 6.8581 10.7772 7.06934 10.563L8.34375 9.27002C8.47053 9.14143 8.54199 8.96651 8.54199 8.78467V5.81299H9.89355V8.78467C9.89355 8.96652 9.96501 9.14143 10.0918 9.27002L11.3662 10.563C11.5775 10.7772 11.6962 11.0676 11.6963 11.3706V14.27H13.0488V11.3706C13.0488 10.7039 12.7871 10.0647 12.3223 9.59326L11.2461 8.50146V5.12744C11.246 4.74881 10.9427 4.44189 10.5693 4.44189H7.86523ZM11.4717 15.1841C10.9739 15.1841 10.5694 15.5932 10.5693 16.0981C10.5693 16.6031 10.9738 17.0122 11.4717 17.0122H16.8799V15.1841H11.4717ZM17.7812 15.1841V17.0122H19.584V15.1841H17.7812ZM20.4854 15.1841V17.0122H21.3867V15.1841H20.4854ZM14.4004 9.69873V11.0708C14.4005 12.2067 15.3088 13.1273 16.4287 13.1274C16.802 13.1274 17.1053 13.4345 17.1055 13.813V14.27H18.457V13.813C18.4569 12.6771 17.5487 11.7563 16.4287 11.7563C16.0555 11.7562 15.753 11.4493 15.7529 11.0708V9.69873H14.4004ZM14.1758 6.271V7.64209H16.8799C17.5019 7.6422 18.0066 8.1538 18.0068 8.78467V9.69971C18.007 10.5831 18.7129 11.2993 19.584 11.2993C19.7084 11.2994 19.8096 11.4016 19.8096 11.5278V14.27H21.1611V11.5278C21.1611 10.6443 20.4552 9.92827 19.584 9.92822C19.4597 9.92822 19.3586 9.82576 19.3584 9.69971V8.78467C19.3582 7.39644 18.2487 6.27111 16.8799 6.271H14.1758Z" fill="#A87200"/>
</g>
<defs>
<clipPath id="clip0_11085_17933">
<rect width="24" height="24" fill="white" transform="translate(0.386719 0.441895)"/>
</clipPath>
</defs>
</svg>
