<svg width="24" height="24" viewBox="0 0 24 24" fill="none" xmlns="http://www.w3.org/2000/svg">
<style>
path {
  fill: #A87200
}
@media (prefers-color-scheme: dark) {
  path { 
    fill: #FFDB8F
  }
}
</style>
<g clip-path="url(#clip0_1529_10016)">
<path fill-rule="evenodd" clip-rule="evenodd" d="M12 24C18.6274 24 24 18.6274 24 12C24 5.37258 18.6274 0 12 0C5.37258 0 0 5.37258 0 12C0 18.6274 5.37258 24 12 24ZM10.9282 19.5825C11.536 20.1378 12.4716 20.1378 13.0794 19.5904L13.1593 19.519L13.2076 19.4755C17.3788 15.7158 20.1082 13.2557 19.9967 10.1894C19.9487 8.84068 19.253 7.54753 18.1254 6.78593C16.0142 5.34998 13.4072 6.02432 11.9998 7.6586C10.5923 6.02432 7.98532 5.35791 5.87414 6.78593C4.74657 7.54753 4.05084 8.84068 4.00286 10.1894C3.8989 13.2675 6.64184 15.7348 10.8402 19.5032L10.9282 19.5825Z" fill="#A87200"/>
</g>
<defs>
<clipPath id="clip0_1529_10016">
<rect width="24" height="24" fill="white"/>
</clipPath>
</defs>
</svg>
