<svg width="24" height="24" viewBox="0 0 24 24" fill="none" xmlns="http://www.w3.org/2000/svg">
<style>
path {
  fill: #BF0001
}
@media (prefers-color-scheme: dark) {
  path { 
    fill: #E59192
  }
}
</style>
<g clip-path="url(#clip0_1529_10008)">
<path fill-rule="evenodd" clip-rule="evenodd" d="M12 24C18.6274 24 24 18.6274 24 12C24 5.37258 18.6274 0 12 0C5.37258 0 0 5.37258 0 12C0 18.6274 5.37258 24 12 24ZM11.342 5.31715V6.60144H9.49404H8.65854C8.29484 6.60144 8 6.89628 8 7.25998C8 7.62368 8.29484 7.91851 8.65854 7.91851H8.8355V15.0527C8.8355 15.9013 9.52346 16.5893 10.3721 16.5893H11.165V20.7865L12.836 22.0004V16.5893H13.629C14.4776 16.5893 15.1656 15.9013 15.1656 15.0527V7.91851H15.3426C15.7063 7.91851 16.0011 7.62368 16.0011 7.25998C16.0011 6.89628 15.7063 6.60144 15.3426 6.60144H14.5071H12.6591V5.31715H12.836C13.1997 5.31715 13.4946 5.02232 13.4946 4.65862C13.4946 4.29492 13.1997 4.00008 12.836 4.00008H12.0005H11.165C10.8013 4.00008 10.5065 4.29492 10.5065 4.65862C10.5065 5.02232 10.8013 5.31715 11.165 5.31715H11.342ZM10.1526 7.91851V15.0527C10.1526 15.1739 10.2509 15.2722 10.3721 15.2722H13.629C13.7502 15.2722 13.8485 15.1739 13.8485 15.0527V7.91851H10.1526Z" fill="#BF0001"/>
</g>
<defs>
<clipPath id="clip0_1529_10008">
<rect width="24" height="24" fill="white"/>
</clipPath>
</defs>
</svg>
