<svg width="24" height="24" viewBox="0 0 24 24" fill="none" xmlns="http://www.w3.org/2000/svg">
<style>
path {
  fill: #BF0001
}
@media (prefers-color-scheme: dark) {
  path { 
    fill: #E59192
  }
}
</style>
<g clip-path="url(#clip0_1529_10022)">
<path fill-rule="evenodd" clip-rule="evenodd" d="M12 24C18.6274 24 24 18.6274 24 12C24 5.37258 18.6274 0 12 0C5.37258 0 0 5.37258 0 12C0 18.6274 5.37258 24 12 24ZM12.6338 18.1017H4.78489C4.3532 18.1017 4 18.4418 4 18.8574C4 19.273 4.3532 19.613 4.78489 19.613H12.6338C13.0655 19.613 13.4187 19.273 13.4187 18.8574C13.4187 18.4418 13.0655 18.1017 12.6338 18.1017ZM9.54918 6.19265L7.32794 8.33115L17.3196 17.9506C17.9318 18.54 18.9286 18.54 19.5408 17.9506C20.1531 17.3612 20.1531 16.4015 19.5408 15.8121L9.54918 6.19265ZM16.2129 6.19265L13.9917 4.05415C13.3794 3.46474 12.3826 3.46474 11.7704 4.06171L10.6637 5.12718L15.0984 9.40417L16.2129 8.33115C16.8251 7.74174 16.8251 6.78206 16.2129 6.19265ZM10.6637 13.6736L6.22124 9.39662L5.11455 10.4621C4.50233 11.0515 4.50233 12.0112 5.11455 12.6006L7.33579 14.7391C7.948 15.3285 8.94481 15.3285 9.55703 14.7391L10.6637 13.6736Z" fill="#BF0001"/>
</g>
<defs>
<clipPath id="clip0_1529_10022">
<rect width="24" height="24" fill="white"/>
</clipPath>
</defs>
</svg>
