<svg width="24" height="24" viewBox="0 0 24 24" fill="none" xmlns="http://www.w3.org/2000/svg">
<style>
path {
  fill: #1E7FDE
}
@media (prefers-color-scheme: dark) {
  path { 
    fill: #A0D0FF
  }
}
</style>
<g clip-path="url(#clip0_1529_10020)">
<path fill-rule="evenodd" clip-rule="evenodd" d="M12 24C18.6274 24 24 18.6274 24 12C24 5.37258 18.6274 0 12 0C5.37258 0 0 5.37258 0 12C0 18.6274 5.37258 24 12 24ZM12 21C16.9706 21 21 16.9706 21 12C21 7.02944 16.9706 3 12 3C7.02944 3 3 7.02944 3 12C3 16.9706 7.02944 21 12 21ZM9.7426 19.0112C9.26521 18.0493 8.88808 16.7889 8.6566 15.3434C7.21111 15.1119 5.95072 14.7348 4.98883 14.2574C5.71308 16.5086 7.49144 18.2869 9.7426 19.0112ZM10.9737 17.7562C10.7253 17.1352 10.5119 16.3861 10.3518 15.5398C10.8861 15.5793 11.437 15.6 12 15.6C12.563 15.6 13.1139 15.5793 13.6482 15.5398C13.4881 16.3861 13.2747 17.1352 13.0263 17.7562C12.7462 18.4565 12.4536 18.9133 12.2124 19.1684C12.112 19.2745 12.0411 19.3259 12 19.3497C11.9589 19.3259 11.888 19.2745 11.7876 19.1684C11.5464 18.9133 11.2538 18.4565 10.9737 17.7562ZM12 13.9636C12.6519 13.9636 13.2807 13.9338 13.8787 13.8787C13.9338 13.2807 13.9636 12.6519 13.9636 12C13.9636 11.3481 13.9338 10.7193 13.8787 10.1213C13.2807 10.0662 12.6519 10.0364 12 10.0364C11.3481 10.0364 10.7193 10.0662 10.1213 10.1213C10.0662 10.7193 10.0364 11.3481 10.0364 12C10.0364 12.6519 10.0662 13.2807 10.1213 13.8787C10.7193 13.9338 11.3481 13.9636 12 13.9636ZM14.2574 19.0112C14.7348 18.0493 15.1119 16.7889 15.3434 15.3434C16.7889 15.1119 18.0493 14.7348 19.0112 14.2574C18.2869 16.5086 16.5086 18.2869 14.2574 19.0112ZM8.65659 8.6566C7.21111 8.88808 5.95072 9.26521 4.98883 9.7426C5.71308 7.49144 7.49144 5.71308 9.7426 4.98883C9.26521 5.95072 8.88808 7.21111 8.65659 8.6566ZM12 8.4C11.437 8.4 10.8861 8.42068 10.3518 8.46023C10.5119 7.61389 10.7253 6.86478 10.9737 6.24377C11.2538 5.54353 11.5464 5.08666 11.7876 4.83162C11.888 4.72547 11.9589 4.67414 12 4.65026C12.0411 4.67414 12.112 4.72547 12.2124 4.83162C12.4536 5.08666 12.7462 5.54353 13.0263 6.24377C13.2747 6.86478 13.4881 7.61389 13.6482 8.46023C13.1139 8.42068 12.563 8.4 12 8.4ZM14.2574 4.98883C14.7348 5.95072 15.1119 7.21111 15.3434 8.6566C16.7889 8.88808 18.0493 9.26521 19.0112 9.7426C18.2869 7.49144 16.5086 5.71308 14.2574 4.98883ZM17.7562 10.9737C17.1352 10.7253 16.3861 10.5119 15.5398 10.3518C15.5793 10.8861 15.6 11.437 15.6 12C15.6 12.563 15.5793 13.1139 15.5398 13.6482C16.3861 13.4881 17.1352 13.2747 17.7562 13.0263C18.4565 12.7462 18.9133 12.4536 19.1684 12.2124C19.2745 12.112 19.3259 12.0411 19.3497 12C19.3259 11.9589 19.2745 11.888 19.1684 11.7876C18.9133 11.5464 18.4565 11.2538 17.7562 10.9737ZM6.24377 10.9737C6.86479 10.7253 7.61389 10.5119 8.46023 10.3518C8.42068 10.8861 8.4 11.437 8.4 12C8.4 12.563 8.42068 13.1139 8.46023 13.6482C7.61389 13.4881 6.86479 13.2747 6.24377 13.0263C5.54353 12.7462 5.08666 12.4536 4.83162 12.2124C4.72547 12.112 4.67414 12.0411 4.65026 12C4.67414 11.9589 4.72547 11.888 4.83162 11.7876C5.08666 11.5464 5.54353 11.2538 6.24377 10.9737Z" fill="#1E7FDE"/>
</g>
<defs>
<clipPath id="clip0_1529_10020">
<rect width="24" height="24" fill="white"/>
</clipPath>
</defs>
</svg>
