<svg width="24" height="24" viewBox="0 0 24 24" fill="none" xmlns="http://www.w3.org/2000/svg">
<style>
path {
  fill: #1E7FDE
}
@media (prefers-color-scheme: dark) {
  path { 
    fill: #A0D0FF
  }
}
</style>
<g clip-path="url(#clip0_1529_10019)">
<path fill-rule="evenodd" clip-rule="evenodd" d="M12 24C18.6274 24 24 18.6274 24 12C24 5.37258 18.6274 0 12 0C5.37258 0 0 5.37258 0 12C0 18.6274 5.37258 24 12 24ZM10.7013 14.5071L10.6926 13.8341C10.6753 13.3728 10.7186 12.9652 10.8225 12.6114C10.9264 12.2575 11.1025 11.9384 11.3506 11.654C11.5988 11.3633 11.9192 11.0885 12.3117 10.8294C12.6753 10.5893 12.961 10.3649 13.1688 10.1564C13.3766 9.94787 13.5238 9.7267 13.6104 9.49289C13.7027 9.25908 13.7489 8.98736 13.7489 8.67772V8.65877C13.7489 8.32385 13.6739 8.02686 13.5238 7.76777C13.3737 7.50869 13.1602 7.30648 12.8831 7.16114C12.6118 7.00948 12.2944 6.93365 11.9307 6.93365C11.5613 6.93365 11.2381 7.01264 10.961 7.17062C10.684 7.32859 10.4646 7.54976 10.303 7.83412C10.1472 8.11848 10.0577 8.45024 10.0346 8.82938L10.026 8.85782H8V8.81991C8.02309 8.09321 8.19336 7.44234 8.51082 6.8673C8.82828 6.28594 9.28139 5.83096 9.87013 5.50237C10.4646 5.16746 11.189 5 12.0433 5C12.8341 5 13.5238 5.15482 14.1126 5.46445C14.7071 5.76777 15.1688 6.18799 15.4978 6.72512C15.8326 7.26224 16 7.87836 16 8.57346V8.59242C16 9.07267 15.9279 9.50869 15.7836 9.90047C15.645 10.2923 15.4372 10.6461 15.1602 10.9621C14.8889 11.2717 14.557 11.5561 14.1645 11.8152C13.7893 12.0553 13.4949 12.2796 13.2814 12.4882C13.0736 12.6967 12.9264 12.9179 12.8398 13.1517C12.7532 13.3855 12.71 13.6603 12.71 13.9763V14.5071H10.7013ZM11.7922 19C11.3766 19 11.039 18.8673 10.7792 18.6019C10.5195 18.3302 10.3896 17.9795 10.3896 17.5498C10.3896 17.1074 10.5195 16.7536 10.7792 16.4882C11.039 16.2227 11.3766 16.09 11.7922 16.09C12.2078 16.09 12.5426 16.2227 12.7965 16.4882C13.0505 16.7536 13.1775 17.1074 13.1775 17.5498C13.1775 17.9795 13.0505 18.3302 12.7965 18.6019C12.5426 18.8673 12.2078 19 11.7922 19Z" fill="#1E7FDE"/>
</g>
<defs>
<clipPath id="clip0_1529_10019">
<rect width="24" height="24" fill="white"/>
</clipPath>
</defs>
</svg>
