<svg width="25" height="25" viewBox="0 0 25 25" fill="none" xmlns="http://www.w3.org/2000/svg">
<style>
path {
  fill: #A87200
}
@media (prefers-color-scheme: dark) {
  path { 
    fill: #FFDB8F
  }
}
</style>
<g clip-path="url(#clip0_11085_18838)">
<path d="M12.3867 0.441895C19.0141 0.441895 24.3867 5.81448 24.3867 12.4419C24.3867 19.0693 19.0141 24.4419 12.3867 24.4419C5.7593 24.4419 0.386719 19.0693 0.386719 12.4419C0.386719 5.81448 5.7593 0.441895 12.3867 0.441895ZM19.1367 13.4419C18.7225 13.4419 18.3867 13.7777 18.3867 14.1919V17.1919C18.3867 17.33 18.2748 17.4419 18.1367 17.4419H6.13672C5.99877 17.4419 5.88677 17.33 5.88672 17.1919V14.1919C5.88672 13.7777 5.55093 13.4419 5.13672 13.4419C4.72251 13.4419 4.38672 13.7777 4.38672 14.1919V17.1919C4.38677 18.1583 5.17016 18.9419 6.13672 18.9419H18.1367C19.1032 18.9419 19.8867 18.1584 19.8867 17.1919V14.1919C19.8867 13.7777 19.5509 13.4419 19.1367 13.4419ZM12.1367 4.44189C11.7225 4.44189 11.3867 4.77768 11.3867 5.19189V13.7905L9.55273 12.5679L9.48633 12.5288C9.15039 12.3512 8.72805 12.4529 8.5127 12.7759C8.28293 13.1205 8.37606 13.5862 8.7207 13.8159L11.7207 15.8159C11.9726 15.9839 12.3008 15.9839 12.5527 15.8159L15.5527 13.8159C15.8974 13.5862 15.9905 13.1205 15.7607 12.7759C15.531 12.4312 15.0653 12.3381 14.7207 12.5679L12.8867 13.7905V5.19189C12.8867 4.77768 12.5509 4.44189 12.1367 4.44189Z" fill="#A87200"/>
</g>
<defs>
<clipPath id="clip0_11085_18838">
<rect width="24" height="24" fill="white" transform="translate(0.386719 0.441895)"/>
</clipPath>
</defs>
</svg>
