<svg width="25" height="25" viewBox="0 0 25 25" fill="none" xmlns="http://www.w3.org/2000/svg">
<style>
path {
  fill: #BF0001
}
@media (prefers-color-scheme: dark) {
  path { 
    fill: #E59192
  }
}
</style>
<g clip-path="url(#clip0_11085_21898)">
<path d="M12.3867 0.441895C19.0141 0.441895 24.3867 5.81448 24.3867 12.4419C24.3867 19.0693 19.0141 24.4419 12.3867 24.4419C5.7593 24.4419 0.386719 19.0693 0.386719 12.4419C0.386719 5.81448 5.7593 0.441895 12.3867 0.441895ZM11.3867 3.44189V4.50537C7.55383 4.98342 4.56413 8.17141 4.39551 12.0923H3.38672V13.4419H4.45117C4.90253 17.0604 7.76825 19.9261 11.3867 20.3774V21.4419H12.7363V20.4321C16.6571 20.2635 19.8442 17.2747 20.3223 13.4419H21.3867V12.0923H20.3779C20.1999 7.95217 16.8764 4.62874 12.7363 4.45068V3.44189H11.3867ZM18.9629 13.4419C18.4975 16.5277 15.911 18.9181 12.7363 19.0825V13.4419H18.9629ZM11.3867 13.4419V19.0171C8.51457 18.5839 6.24372 16.3141 5.81055 13.4419H11.3867ZM11.3867 12.0923H5.74609C5.91056 8.91764 8.3009 6.33111 11.3867 5.86572V12.0923ZM12.7363 5.80029C16.1307 5.97612 18.8515 8.69787 19.0273 12.0923H12.7363V5.80029Z" fill="#BF0001"/>
</g>
<defs>
<clipPath id="clip0_11085_21898">
<rect width="24" height="24" fill="white" transform="translate(0.386719 0.441895)"/>
</clipPath>
</defs>
</svg>
