<svg width="21" height="19" viewBox="0 0 21 19" fill="none" xmlns="http://www.w3.org/2000/svg">
<path d="M14 5H6V6H14V5Z" fill="#4877B5"/>
<path d="M11 3H10V6H11V3Z" fill="#4877B5"/>
<path d="M7 11H6V14H7V11Z" fill="#4877B5"/>
<path d="M7 5H6V8H7V5Z" fill="#4877B5"/>
<path d="M15 5H14V8H15V5Z" fill="#4877B5"/>
<path d="M11 13H2V14H11V13Z" fill="#4877B5"/>
<path d="M3 13H2V16H3V13Z" fill="#4877B5"/>
<path d="M11 13H10V16H11V13Z" fill="#4877B5"/>
<path d="M15 11H14V14H15V11Z" fill="#4877B5"/>
<path d="M19 13H9V14H19V13Z" fill="#4877B5"/>
<path d="M19 13H18V16H19V13Z" fill="#4877B5"/>
<path d="M13 0H8V3H13V0Z" fill="#4877B5"/>
<path d="M9 8H4V11H9V8Z" fill="#4877B5"/>
<path d="M5 16H0V19H5V16Z" fill="#4877B5"/>
<path d="M13 16H8V19H13V16Z" fill="#4877B5"/>
<path d="M21 16H16V19H21V16Z" fill="#4877B5"/>
<path d="M17 8H12V11H17V8Z" fill="#4877B5"/>
</svg>