<svg width="213" height="32" viewBox="0 0 213 32" fill="none" xmlns="http://www.w3.org/2000/svg">
  <style>
    path {
    fill: black;
    rect: white
    }
    @media (prefers-color-scheme: dark) {
      path { 
      fill: white; 
      rect: black
      }
    }
  </style>
<g clip-path="url(#clip0_4408_2373)">
<path d="M84.9135 10.6672H95.5807V0H84.9135C79.0223 0 74.2463 4.776 74.2463 10.6672V32H84.9135V10.6672Z" fill="black"/>
<path d="M86.2463 21.3328H95.5791V12C90.4239 12 86.2463 16.1792 86.2463 21.3328Z" fill="black"/>
<path d="M109.222 5.32477H117.384V8.86397H109.966V12H117.384V15.1344H109.966V21.3328H106.246V8.30077C106.246 6.58717 107.509 5.32477 109.222 5.32477Z" fill="black"/>
<path d="M127.081 12H119.664V15.1344H127.081V12Z" fill="black"/>
<path d="M135.229 8.0976C133.605 8.0976 132.906 9.0224 132.906 9.9232C132.906 10.9824 133.987 11.344 136.085 11.9968C136.558 12.1552 136.987 12.2448 137.414 12.4032C140.03 13.3056 141.744 14.3872 141.744 17.0704C141.744 19.9568 138.88 21.648 135.499 21.648C132.118 21.648 128.826 19.6864 128.826 16.192H132.478C132.478 17.4544 133.899 18.4912 135.499 18.4912C137.099 18.4912 138.138 17.9056 138.138 17.048C138.138 16.056 136.987 15.7632 135.702 15.312C134.958 15.0864 134.192 14.8608 133.56 14.6128C130.674 13.4848 129.299 12.088 129.299 9.9232C129.299 7.0144 132.141 5.008 135.387 5.008C138.814 5.008 140.934 7.2176 141.339 9.9232H137.686C137.371 8.7952 136.402 8.0976 135.229 8.0976V8.0976Z" fill="black"/>
<path d="M150.086 21.6496C146.525 21.6496 143.547 18.7856 143.547 15.1328C143.547 11.48 146.523 8.61603 150.086 8.61603C153.221 8.61603 156.512 11.4576 156.512 15.4704V16.1248H146.93C147.336 17.7712 148.576 18.7184 150.086 18.7184C151.371 18.7184 152.296 18.2 152.725 17.5456H156.152C155.43 19.9136 152.838 21.6496 150.086 21.6496V21.6496ZM152.995 13.8928C152.589 12.4272 151.418 11.5696 150.086 11.5696C148.755 11.5696 147.426 12.336 146.952 13.8928H152.995Z" fill="black"/>
<path d="M164.901 21.6496C161.158 21.6496 158.384 18.7408 158.384 15.0432C158.384 11.3456 161.157 8.61761 164.901 8.61761C168.395 8.61761 170.786 11.1872 171.259 14.0512H167.899C167.426 12.6304 166.298 11.752 164.901 11.752C163.029 11.752 161.722 13.0592 161.722 15.0448C161.722 17.0304 163.029 18.4944 164.901 18.4944C166.411 18.4944 167.448 17.8176 167.899 16.488H171.237C170.786 19.464 168.419 21.6512 164.901 21.6512V21.6496Z" fill="black"/>
<path d="M179.134 21.6496C175.37 21.6496 173.25 19.5984 173.25 15.9008V8.86401H176.699V15.8992C176.699 17.568 177.579 18.4928 179.134 18.4928C180.69 18.4928 181.592 17.568 181.592 15.8992V8.86401H185.042V15.8992C185.042 19.5968 182.922 21.648 179.134 21.648V21.6496Z" fill="black"/>
<path d="M190.174 8.86401H195.811V12H190.693V21.3328H187.31V11.7504C187.31 10.0592 188.506 8.86401 190.174 8.86401V8.86401Z" fill="black"/>
<path d="M203.501 21.6496C199.937 21.6496 196.961 18.7856 196.961 15.1328C196.961 11.48 199.937 8.61597 203.501 8.61597C206.635 8.61597 209.926 11.4576 209.926 15.4704V16.1248H200.344C200.75 17.7712 201.99 18.7184 203.501 18.7184C204.785 18.7184 205.71 18.2 206.139 17.5456H209.566C208.845 19.9136 206.251 21.6496 203.501 21.6496V21.6496ZM206.409 13.8928C206.003 12.4272 204.832 11.5696 203.501 11.5696C202.169 11.5696 200.84 12.336 200.366 13.8928H206.409Z" fill="black"/>
<path d="M211.061 20.9184H210.817V19.4384H211.379C211.558 19.4384 211.693 19.472 211.782 19.5392C211.873 19.6064 211.918 19.7152 211.918 19.864C211.918 19.9968 211.881 20.0944 211.808 20.1568C211.734 20.2192 211.641 20.256 211.533 20.2672L211.947 20.9184H211.672L211.289 20.2864H211.061V20.9184V20.9184ZM211.333 20.0784C211.377 20.0784 211.421 20.0768 211.464 20.0736C211.505 20.0704 211.542 20.0592 211.573 20.0432C211.603 20.0272 211.629 20.0032 211.648 19.9728C211.667 19.9424 211.677 19.9008 211.677 19.8464C211.677 19.8016 211.667 19.7648 211.646 19.7392C211.625 19.7136 211.6 19.6928 211.569 19.6784C211.539 19.664 211.504 19.6544 211.465 19.6512C211.427 19.648 211.39 19.6464 211.355 19.6464H211.062V20.0784H211.334H211.333Z" fill="black"/>
<path d="M211.336 18.9568C212.009 18.9568 212.558 19.5056 212.558 20.1792C212.558 20.8528 212.009 21.4016 211.336 21.4016C210.662 21.4016 210.113 20.8528 210.113 20.1792C210.113 19.5056 210.662 18.9568 211.336 18.9568V18.9568ZM211.336 18.7088C210.525 18.7088 209.865 19.3664 209.865 20.1792C209.865 20.992 210.523 21.6496 211.336 21.6496C212.149 21.6496 212.806 20.992 212.806 20.1792C212.806 19.3664 212.149 18.7088 211.336 18.7088V18.7088Z" fill="black"/>
<path d="M3.9824 15.6432C4.416 15.9824 4.6336 16.4544 4.6336 17.056C4.6336 17.6576 4.416 18.1312 3.9824 18.4736C3.5488 18.816 2.9504 18.9872 2.1888 18.9872H1.0352V21.3328H0V15.1344H2.1872C2.9504 15.1344 3.5472 15.304 3.9808 15.6432H3.9824ZM3.208 17.7984C3.4448 17.624 3.5648 17.3776 3.5648 17.056C3.5648 16.7344 3.4464 16.488 3.208 16.3136C2.9696 16.1392 2.6304 16.0528 2.1888 16.0528H1.0352V18.0592H2.1872C2.6288 18.0592 2.9696 17.9728 3.2064 17.7984H3.208Z" fill="black"/>
<path d="M7.4831 21.0224C7.0223 20.7488 6.66069 20.3696 6.40149 19.8832C6.14229 19.3968 6.0127 18.848 6.0127 18.2336C6.0127 17.6192 6.14229 17.0784 6.40149 16.592C6.66069 16.1056 7.0223 15.7248 7.4831 15.448C7.9439 15.1712 8.46549 15.0336 9.04469 15.0336C9.62389 15.0336 10.1375 15.1696 10.5983 15.4432C11.0591 15.7168 11.4207 16.0976 11.6799 16.5872C11.9391 17.0768 12.0687 17.624 12.0687 18.232C12.0687 18.84 11.9391 19.3888 11.6799 19.8768C11.4207 20.3664 11.0591 20.7472 10.5983 21.0208C10.1375 21.2944 9.61909 21.4304 9.04469 21.4304C8.47029 21.4304 7.9439 21.2928 7.4831 21.0208V21.0224ZM10.0607 20.1984C10.3567 20.0048 10.5871 19.7392 10.7519 19.3984C10.9183 19.0592 10.9999 18.6704 10.9999 18.2336C10.9999 17.7968 10.9167 17.4096 10.7519 17.0688C10.5855 16.7296 10.3551 16.464 10.0607 16.2736C9.7647 16.0832 9.42709 15.9872 9.04469 15.9872C8.66229 15.9872 8.32309 16.0832 8.02549 16.2736C7.72789 16.464 7.4943 16.7296 7.3295 17.0688C7.1631 17.408 7.08149 17.7968 7.08149 18.2336C7.08149 18.6704 7.1647 19.0576 7.3295 19.3984C7.4959 19.7376 7.72789 20.0048 8.02549 20.1984C8.32469 20.392 8.66389 20.488 9.04469 20.488C9.42549 20.488 9.7647 20.392 10.0607 20.1984Z" fill="black"/>
<path d="M18.5839 21.3328L17.2415 16.5344L15.8831 21.3328H14.7647L13.0271 15.1344H13.9695L15.3295 20.0656L16.6799 15.1344H17.7983L19.1567 20.0656L20.5151 15.1344H21.6175L19.7119 21.3328H18.5855H18.5839Z" fill="black"/>
<path d="M24.4433 16.0544V17.696H27.3441V18.624H24.4433V20.4144H27.3681V21.3344H23.4065V15.136H27.3681V16.056H24.4433V16.0544Z" fill="black"/>
<path d="M33.9905 18.8592C34.1073 19.0608 34.1649 19.2864 34.1649 19.5344V21.3328H33.1201V19.7824C33.1201 19.4944 33.0321 19.2624 32.8545 19.0816C32.6769 18.9024 32.4369 18.8128 32.1329 18.8128H30.6241V21.3328H29.5889V15.1344H31.9345C32.6465 15.1344 33.2065 15.2976 33.6129 15.624C34.0193 15.9504 34.2225 16.4 34.2225 16.9744C34.2225 17.2784 34.1601 17.5504 34.0353 17.7904C33.9105 18.0304 33.7297 18.2256 33.4929 18.3744C33.7089 18.496 33.8737 18.6576 33.9905 18.8592V18.8592ZM32.8305 17.6528C33.0465 17.4928 33.1537 17.2656 33.1537 16.9728C33.1537 16.68 33.0465 16.4544 32.8305 16.2928C32.6145 16.1328 32.3089 16.0528 31.9105 16.0528H30.6257V17.8928H31.9105C32.3089 17.8928 32.6145 17.8128 32.8305 17.6528Z" fill="black"/>
<path d="M37.4785 16.0544V17.696H40.3793V18.624H37.4785V20.4144H40.4033V21.3344H36.4417V15.136H40.4033V16.056H37.4785V16.0544Z" fill="black"/>
<path d="M46.3584 15.536C46.8368 15.8048 47.2064 16.1728 47.4688 16.6416C47.7312 17.112 47.8624 17.6384 47.8624 18.224C47.8624 18.8096 47.7312 19.3472 47.4688 19.8192C47.2064 20.2912 46.8368 20.6624 46.3584 20.9296C45.88 21.1984 45.3264 21.3312 44.696 21.3312H42.624V15.1328H44.696C45.3264 15.1328 45.88 15.2672 46.3584 15.5344V15.536ZM43.6944 20.4624H44.6976C45.3488 20.4624 45.8624 20.264 46.2352 19.8656C46.608 19.4672 46.7952 18.92 46.7952 18.224C46.7952 17.528 46.608 16.984 46.2352 16.592C45.8624 16.2 45.3504 16.0032 44.6976 16.0032H43.6944V20.4624V20.4624Z" fill="black"/>
<path d="M57.0177 18.7264C57.2049 18.9664 57.2993 19.256 57.2993 19.592C57.2993 19.9456 57.2161 20.2528 57.0513 20.512C56.8849 20.7712 56.6497 20.9728 56.3425 21.1168C56.0353 21.2608 55.6753 21.3328 55.2609 21.3328H52.6753V15.1344H55.1457C55.5537 15.1344 55.9137 15.2048 56.2225 15.3456C56.5313 15.4864 56.7697 15.688 56.9345 15.9504C57.1009 16.2128 57.1825 16.5184 57.1825 16.8656C57.1825 17.192 57.0993 17.4704 56.9345 17.7024C56.7681 17.9344 56.5281 18.1024 56.2129 18.208C56.5617 18.3136 56.8289 18.4864 57.0161 18.7264H57.0177ZM53.7441 17.752H55.0529C55.3841 17.752 55.6433 17.6768 55.8321 17.5248C56.0193 17.3728 56.1137 17.1648 56.1137 16.8992C56.1137 16.6336 56.0193 16.4336 55.8321 16.2816C55.6449 16.1296 55.3841 16.0544 55.0529 16.0544H53.7441V17.7536V17.752ZM55.9521 20.1808C56.1425 20.0256 56.2385 19.8128 56.2385 19.5424C56.2385 19.272 56.1425 19.0608 55.9521 18.9088C55.7617 18.7568 55.5009 18.6816 55.1697 18.6816H53.7441V20.4144H55.1697C55.5009 20.4144 55.7617 20.3376 55.9521 20.1824V20.1808Z" fill="black"/>
<path d="M61.5424 21.3328H60.4976V18.8304L58.384 15.1344H59.5856L61.0352 17.7952L62.4848 15.1344H63.6864L61.5392 18.8304V21.3328H61.5424Z" fill="black"/>
</g>
<defs>
<clipPath id="clip0_4408_2373">
<rect width="212.8" height="32" fill="white"/>
</clipPath>
</defs>
</svg>
