<svg width="24" height="24" viewBox="0 0 24 24" fill="none" xmlns="http://www.w3.org/2000/svg">
<g id="ad block">
<path id="icon" fill-rule="evenodd" clip-rule="evenodd" d="M16.4656 21.6708C16.2788 21.8591 16.0249 21.9655 15.7597 21.9666L8.31767 21.9967C8.05246 21.9977 7.79768 21.8934 7.60939 21.7066L2.32583 16.4656C2.13754 16.2788 2.03115 16.0249 2.03008 15.7597L2.00001 8.31767C1.99894 8.05246 2.10326 7.79768 2.29004 7.60939L7.53107 2.32583C7.71785 2.13754 7.97177 2.03115 8.23699 2.03008L15.679 2.00001C15.9442 1.99894 16.199 2.10326 16.3873 2.29004L21.6708 7.53107C21.8591 7.71785 21.9655 7.97177 21.9666 8.23699L21.9967 15.679C21.9977 15.9442 21.8934 16.199 21.7066 16.3873L16.4656 21.6708ZM19.995 15.2729L15.3374 19.9683L8.7238 19.995L7.27277 18.5557L18.5631 7.26537L19.9683 8.65928L19.995 15.2729ZM17.1431 5.85687L15.2729 4.00167L8.65928 4.02839L4.00167 8.7238L4.02839 15.3374L5.85284 17.1472L17.1431 5.85687Z" fill="#161616"/>
</g>
</svg>
