<svg width="20" height="18" viewBox="0 0 20 18" fill="none" xmlns="http://www.w3.org/2000/svg">
<path id="Subtract" fill-rule="evenodd" clip-rule="evenodd" d="M9.65015 0.252683C10.1723 0.0316724 10.7637 0.042665 11.2773 0.282929L19.4239 4.0942C19.8483 4.29279 20.078 4.75955 19.9763 5.21703C19.8745 5.67451 19.4688 5.99998 19.0001 5.99998H1.0001C0.524475 5.99998 0.114662 5.66497 0.0200737 5.19885C-0.0745146 4.73272 0.172298 4.26447 0.6103 4.07908L9.65015 0.252683ZM3.00012 8C3.00012 7.44772 3.44784 7 4.00012 7C4.55241 7 5.00012 7.44772 5.00012 8V14C5.00012 14.5523 4.55241 15 4.00012 15C3.44784 15 3.00012 14.5523 3.00012 14V8ZM0.00012207 17C0.00012207 16.4477 0.447837 16 1.00012 16H10.0001C10.0001 16.695 10.1014 17.3663 10.29 18H1.00012C0.447838 18 0.00012207 17.5523 0.00012207 17ZM17.0001 9V8C17.0001 7.44772 16.5524 7 16.0001 7C15.4478 7 15.0001 7.44772 15.0001 8V9.28987C15.6338 9.10127 16.3051 9 17.0001 9C17.0001 9 17.0001 9 17.0001 9ZM11.0001 12.3924V8C11.0001 7.44772 10.5524 7 10.0001 7C9.44784 7 9.00012 7.44772 9.00012 8V14C9.00012 14.5523 9.44784 15 10.0001 15C10.0241 15 10.0478 14.9992 10.0713 14.9975C10.2064 14.0556 10.529 13.1742 11.0001 12.3924Z" fill="#CECECE"/>
</svg>
