<?xml version="1.0" encoding="UTF-8"?>
<svg width="24px" height="24px" viewBox="0 0 24 24" version="1.1" xmlns="http://www.w3.org/2000/svg" xmlns:xlink="http://www.w3.org/1999/xlink">
    <!-- Generator: Sketch 56.3 (81716) - https://sketch.com -->
    <title>icons/status/ic_warning_filled_small</title>
    <desc>Created with Sketch.</desc>
    <g id="icons/status/ic_warning_filled_small" stroke="none" stroke-width="1" fill="none" fill-rule="evenodd">
        <path d="M23,12 C23,18.0754737 18.0748947,23 12,23 C5.92510526,23 1,18.0754737 1,12 C1,5.92452632 5.92510526,1 12,1 C18.0748947,1 23,5.92452632 23,12 Z" id="circle" fill="#FFAB00"></path>
        <path d="M13,19.0026667 C13,19.5513333 12.5530354,20 12,20 C11.4482989,20 11,19.5513333 11,19.0026667 C11,18.45 11.4482989,18 12,18 C12.5530354,18 13,18.45 13,19.0026667 Z M13,15 C13,15.5522847 12.5522847,16 12,16 C11.4477153,16 11,15.5522847 11,15 L11,5 C11,4.44771525 11.4477153,4 12,4 C12.5522847,4 13,4.44771525 13,5 L13,15 Z" id="exclamation" fill="#FFFFFF"></path>
    </g>
</svg>