<?xml version="1.0" encoding="UTF-8"?>
<svg width="24px" height="24px" viewBox="0 0 24 24" version="1.1" xmlns="http://www.w3.org/2000/svg" xmlns:xlink="http://www.w3.org/1999/xlink">
    <!-- Generator: Sketch 56.3 (81716) - https://sketch.com -->
    <title>icons/status/ic_unknown_filled_small</title>
    <desc>Created with Sketch.</desc>
    <g id="icons/status/ic_unknown_filled_small" stroke="none" stroke-width="1" fill="none" fill-rule="evenodd">
        <path d="M23,12 C23,18.0754737 18.0748947,23 12,23 C5.92510526,23 1,18.0754737 1,12 C1,5.92452632 5.92510526,1 12,1 C18.0748947,1 23,5.92452632 23,12 Z" id="circle" fill="#999999"></path>
        <path d="M10.9352518,13.7453704 C10.9352518,13.6863368 10.9403671,13.6284979 10.9501787,13.5722729 C11.0497913,12.2186498 11.6531116,11.4984635 12.9142974,10.6606712 L12.9521435,10.6355364 C13.8192266,10.059672 14,9.82603692 14,9.07928241 C14,7.75410039 13.4132327,7 12.0476003,7 C10.7540696,7 10,7.55786956 10,8.67997685 C10,9.2322616 9.55228475,9.67997685 9,9.67997685 C8.44771525,9.67997685 8,9.2322616 8,8.67997685 C8,6.30032701 9.75764567,5 12.0476003,5 C14.6431563,5 16,6.74378573 16,9.07928241 C16,10.6520308 15.4266824,11.3929979 14.0586277,12.3015774 L14.0209544,12.3265974 C13.1336716,12.9160099 12.9352518,13.177628 12.9352518,14 C12.9352518,15.3333333 10.9352518,15.3333333 10.9352518,14 L10.9352518,13.7453704 Z M13,18.0010834 C13,18.5536295 12.5557963,19 12.0005417,19 C11.4463705,19 11,18.5536295 11,18.0010834 C11,17.4479957 11.4463705,17 12.0005417,17 C12.5557963,17 13,17.4479957 13,18.0010834 Z" id="Combined-Shape" fill="#FFFFFF"></path>
    </g>
</svg>