<svg width="20" height="20" viewBox="0 0 20 20" fill="none" xmlns="http://www.w3.org/2000/svg">
<path id="Subtract" fill-rule="evenodd" clip-rule="evenodd" d="M0 10C0 4.48 4.48 0 10 0C15.52 0 20 4.48 20 10C20 10.0335 19.9998 10.067 19.9995 10.1005C19.3951 9.48389 18.6776 8.97859 17.8805 8.61825C17.4007 5.87588 15.5179 3.61262 13 2.59V3C13 4.1 12.1 5 11 5H9V7C9 7.55 8.55 8 8 8H6V10H10.101C8.80447 11.2705 8 13.0413 8 15C8 15.2544 8.01357 15.5056 8.04002 15.7529C7.42144 15.4118 7 14.7527 7 14V13L2.21 8.21C2.08 8.79 2 9.38 2 10C2 13.9463 4.85341 17.219 8.61471 17.8727C8.97528 18.6729 9.48186 19.3932 10.1005 19.9995C10.067 19.9998 10.0335 20 10 20C4.48 20 0 15.52 0 10Z" fill="#6C6C6C"/>
</svg>
