<svg width="20" height="20" viewBox="0 0 20 20" fill="none" xmlns="http://www.w3.org/2000/svg">
<path id="Subtract" fill-rule="evenodd" clip-rule="evenodd" d="M0 10C0 4.48 4.48 0 10 0C15.52 0 20 4.48 20 10C20 10.2229 19.9927 10.4441 19.9783 10.6634C19.3626 10.3735 18.6977 10.1707 17.9997 10.0708C17.9999 10.0473 18 10.0236 18 10C18 6.65 15.93 3.78 13 2.59V3C13 4.1 12.1 5 11 5H9V7C9 7.55 8.55 8 8 8H6V10H12C12.55 10 13 10.45 13 11V11.2547C11.1865 12.5196 10 14.6213 10 17C10 18.0651 10.2379 19.0746 10.6634 19.9783C10.4441 19.9927 10.2229 20 10 20C4.48 20 0 15.52 0 10ZM2 10C2 14.08 5.05 17.44 9 17.93V16C7.9 16 7 15.1 7 14V13L2.21 8.21C2.08 8.79 2 9.38 2 10Z" fill="#CECECE"/>
</svg>
