<svg width="23" height="14" viewBox="0 0 23 14" fill="none" xmlns="http://www.w3.org/2000/svg">
<path d="M19.9257 8.00049H20.0257V7.90049V7.27054V7.17054H19.9257H17.9407V5.37598V5.27598H17.8407H17.1543H17.0543V5.37598V7.17054H15.0745H14.9745V7.27054V7.90049V8.00049H15.0745H17.0543V9.79505V9.89505H17.1543H17.8407H17.9407V9.79505V8.00049H19.9257Z" fill="#212121" stroke="#212121" stroke-width="0.2"/>
<path d="M12.5788 7.40851C12.4591 7.24341 12.3111 7.09413 12.1357 6.96043C12.0118 6.86603 11.8768 6.78556 11.7309 6.71889C11.9733 6.56738 12.1754 6.38419 12.3359 6.1689L12.3362 6.16843C12.5377 5.89478 12.6396 5.59048 12.6396 5.25823C12.6396 4.99918 12.5847 4.75678 12.4745 4.53245C12.3648 4.30937 12.2113 4.11646 12.0149 3.95415C11.8189 3.7921 11.5878 3.66591 11.3232 3.5747C11.057 3.48295 10.7689 3.43761 10.4597 3.43761C10.154 3.43761 9.86782 3.48293 9.6019 3.57452C9.3371 3.66259 9.10587 3.78727 8.90966 3.94945C8.71355 4.11155 8.55855 4.30407 8.44554 4.52657L8.44553 4.52657L8.44495 4.52775C8.33459 4.75225 8.27987 4.99625 8.27987 5.25823C8.27987 5.59048 8.38169 5.89478 8.58319 6.16843L8.58354 6.1689C8.74419 6.38442 8.94866 6.56761 9.19537 6.71902C9.04749 6.78553 8.91045 6.86576 8.7845 6.95984L8.7845 6.95984L8.78373 6.96043C8.60837 7.09409 8.45884 7.2432 8.33586 7.40794L8.33585 7.40794L8.33501 7.40909C8.21572 7.57374 8.12338 7.75179 8.05822 7.94298C7.99291 8.13146 7.95989 8.32107 7.95989 8.51142C7.95989 8.81964 8.02118 9.1041 8.14516 9.36318L8.14515 9.36318L8.14565 9.3642C8.27244 9.62159 8.4483 9.84278 8.67243 10.0272L8.67312 10.0277C8.89685 10.2085 9.16066 10.3487 9.46309 10.4492C9.76701 10.5501 10.0995 10.6 10.4597 10.6C10.8232 10.6 11.1574 10.5502 11.4613 10.4492C11.7672 10.3488 12.0314 10.2085 12.2521 10.0272L12.2521 10.0272C12.4765 9.84259 12.6509 9.62106 12.7743 9.36318C12.8982 9.1041 12.9595 8.81964 12.9595 8.51142C12.9595 8.32106 12.9265 8.13144 12.8612 7.94296M12.5788 7.40851C12.7017 7.57319 12.7959 7.75143 12.8612 7.94296M12.5788 7.40851C12.5787 7.40832 12.5785 7.40813 12.5784 7.40794L12.4983 7.46776L12.5792 7.40909C12.5791 7.4089 12.579 7.4087 12.5788 7.40851ZM12.8612 7.94296C12.8612 7.94288 12.8611 7.94281 12.8611 7.94273L12.7666 7.97549L12.8613 7.94324C12.8613 7.94314 12.8612 7.94305 12.8612 7.94296ZM5.63427 10.4919H5.73427V10.3919V3.5V3.4H5.63427H5.31429H5.27952L5.25225 3.42157C5.12544 3.52189 4.9742 3.62609 4.79809 3.73409C4.62184 3.83904 4.43347 3.94108 4.23292 4.04017C4.03607 4.136 3.83409 4.22413 3.62697 4.30456C3.42372 4.38169 3.2314 4.4431 3.04993 4.48902L2.97446 4.50812V4.58596V5.36635V5.49169L3.09667 5.46386C3.2667 5.42514 3.43971 5.37203 3.61567 5.30473C3.79353 5.238 3.96133 5.16638 4.11898 5.0898C4.27956 5.01347 4.42358 4.93673 4.55078 4.85948L4.55078 4.85948L4.55129 4.85917C4.60086 4.82866 4.64645 4.79918 4.68788 4.77072V10.3919V10.4919H4.78788H5.63427ZM11.5022 6.73439C11.544 6.74912 11.5849 6.76488 11.625 6.78166L11.6175 6.67068C11.5801 6.69263 11.5416 6.71387 11.5022 6.73439ZM11.4668 9.36745L11.4658 9.36832C11.3457 9.47776 11.2008 9.56376 11.0296 9.62555C10.8593 9.687 10.6714 9.71833 10.4649 9.71833C10.251 9.71833 10.0576 9.68843 9.88369 9.6299C9.71315 9.56821 9.56873 9.48248 9.44891 9.37346C9.33274 9.26465 9.24104 9.13259 9.17406 8.97597C9.11099 8.82054 9.07853 8.64424 9.07853 8.4456C9.07853 8.2579 9.11387 8.08888 9.18307 7.93704L9.18336 7.9364C9.25371 7.7791 9.34899 7.64637 9.46906 7.53699C9.59322 7.42389 9.73848 7.33643 9.90589 7.27485L9.90589 7.27485L9.90673 7.27453C10.0768 7.21024 10.2625 7.17757 10.4649 7.17757C10.6813 7.17757 10.8733 7.21191 11.0423 7.27869C11.2135 7.3464 11.3588 7.43838 11.4794 7.55405C11.6003 7.66991 11.6921 7.80412 11.7556 7.95735L11.7556 7.95736L11.7566 7.9596C11.8229 8.10912 11.8564 8.27074 11.8564 8.4456C11.8564 8.64002 11.8209 8.81393 11.7515 8.9689L11.7509 8.97047C11.6843 9.12649 11.5896 9.25842 11.4668 9.36745L11.4668 9.36745ZM10.9031 6.26523L10.9023 6.26553C10.7669 6.32003 10.6214 6.34762 10.4649 6.34762C10.308 6.34762 10.1622 6.32147 10.0266 6.26989C9.88947 6.21461 9.76927 6.141 9.66519 6.0493C9.5648 5.95475 9.48496 5.84633 9.42525 5.72364C9.36984 5.59973 9.34174 5.46536 9.34174 5.31934C9.34174 5.17542 9.36852 5.04146 9.42153 4.91648C9.47472 4.79108 9.54937 4.68358 9.64566 4.59303C9.74612 4.49866 9.86431 4.42376 10.0012 4.3686C10.1395 4.31426 10.2937 4.28637 10.4649 4.28637C10.6251 4.28637 10.7723 4.31405 10.9075 4.36846L10.9075 4.36849L10.9099 4.36939C11.0504 4.42173 11.1698 4.49369 11.2697 4.58467C11.3695 4.67559 11.4475 4.78341 11.5039 4.909L11.5039 4.90901L11.5047 4.91087C11.5633 5.03448 11.5932 5.17016 11.5932 5.31934C11.5932 5.46147 11.5637 5.59396 11.505 5.71798C11.4451 5.84129 11.3649 5.9502 11.264 6.04513C11.1638 6.13626 11.0439 6.20983 10.9031 6.26523Z" fill="#212121" stroke="#212121" stroke-width="0.2"/>
<rect x="0.5" y="0.5" width="22" height="13" rx="2.33902" stroke="#212121"/>
</svg>
