<svg width="48" height="48" viewBox="0 0 48 48" fill="none" xmlns="http://www.w3.org/2000/svg">
  <defs>
    <style>
      .arrow-back {
        fill: #006CD9;
      }
    </style>
  </defs>
  <path class="arrow-back" fill-rule="evenodd" clip-rule="evenodd" d="M26.8778 12.2802C26.4803 12.6635 26.4688 13.2966 26.8521 13.6941L35.8259 23L9.00371 23C8.45142 23 8.00371 23.4477 8.00371 24C8.00371 24.5523 8.45142 25 9.00371 25L35.8259 25L26.8521 34.3059C26.4688 34.7034 26.4803 35.3365 26.8778 35.7198C27.2754 36.1032 27.9084 36.0917 28.2918 35.6941L38.8771 24.7171C39.064 24.5354 39.1802 24.2813 39.1802 24C39.1802 23.7187 39.0641 23.4646 38.8771 23.2829L28.2918 12.3059C27.9084 11.9083 27.2754 11.8968 26.8778 12.2802Z"/>
</svg>
