<svg width="24" height="24" viewBox="0 0 24 24" fill="none" xmlns="http://www.w3.org/2000/svg">
<path fill-rule="evenodd" clip-rule="evenodd" d="M2.50044 3.99219C2.21974 3.99219 1.99219 4.21974 1.99219 4.50044C1.99219 4.78114 2.21974 5.00869 2.50044 5.00869H6.00522L6.33624 6.53062C6.33832 6.59402 6.35201 6.65448 6.37525 6.70995L7.87567 13.6085C7.87951 13.6261 7.88422 13.6433 7.88976 13.6601L7.18863 17.0094C6.23877 17.1653 5.48394 18.0158 5.48394 19.0004C5.48394 20.092 6.41024 21.0169 7.50108 21.0169C8.59254 21.0169 9.51694 20.0907 9.51694 19.0004C9.51694 18.8285 9.49674 18.6641 9.459 18.5087H16.0477C16.0061 18.6668 15.9839 18.8316 15.9839 19.0004C15.9839 20.092 16.9102 21.0169 18.0011 21.0169C19.0915 21.0169 20.0169 20.0912 20.0169 19.0004C20.0169 17.8126 19.0522 16.9839 18.0011 16.9839C17.502 16.9839 17.0375 17.1776 16.6803 17.4922H8.8439C8.65667 17.3272 8.43983 17.198 8.20588 17.1111L8.86458 13.9644L19.0701 12.9998C19.3002 12.9781 19.4866 12.8039 19.5239 12.5759L20.502 6.59572C20.5261 6.44854 20.4843 6.29822 20.3877 6.18458C20.2912 6.07093 20.1496 6.00543 20.0004 6.00543H7.26228L6.91145 4.39242C6.86064 4.15881 6.65389 3.99219 6.41481 3.99219H2.50044ZM8.77317 12.952L7.48337 7.02193H19.4023L18.584 12.0247L8.77317 12.952Z" fill="#212121"/>
</svg>
