<svg width="128" height="128" viewBox="0 0 128 128" fill="none" xmlns="http://www.w3.org/2000/svg">
<style>
path {
  fill: #A87200
}
@media (prefers-color-scheme: dark) {
  path { 
    fill: #FFDB8F
  }
}
</style>
<path fill-rule="evenodd" clip-rule="evenodd" d="M68.7805 18.8235C66.6559 15.0588 61.3442 15.0588 59.2195 18.8235L11.4145 103.529C9.2898 107.294 11.9456 112 16.195 112H111.805C116.054 112 118.71 107.294 116.586 103.529L68.7805 18.8235ZM58.6667 58.6667C58.6667 55.7211 61.0545 53.3333 64 53.3333C66.9455 53.3333 69.3334 55.7211 69.3334 58.6667V74.6667C69.3334 77.6122 66.9455 80 64 80C61.0545 80 58.6667 77.6122 58.6667 74.6667V58.6667ZM58.6667 90.6667C58.6667 87.7212 61.0545 85.3334 64 85.3334C66.9455 85.3334 69.3333 87.7212 69.3333 90.6667C69.3333 93.6123 66.9455 96.0001 64 96.0001C61.0545 96.0001 58.6667 93.6123 58.6667 90.6667Z" fill="#A87200"/>
</svg>
