<svg width="24" height="24" viewBox="0 0 24 24" fill="none" xmlns="http://www.w3.org/2000/svg">
<style>
path {
  fill: #1E7FDE
}
@media (prefers-color-scheme: dark) {
  path { 
    fill: #A0D0FF
  }
}
</style>
<g id="info">
<g id="icon">
<mask id="path-1-inside-1_3345_8516" fill="white">
<path fill-rule="evenodd" clip-rule="evenodd" d="M12 22C17.5228 22 22 17.5228 22 12C22 6.47715 17.5228 2 12 2C6.47715 2 2 6.47715 2 12C2 17.5228 6.47715 22 12 22ZM11 8C11 7.44772 11.4477 7 12 7C12.5523 7 13 7.44772 13 8C13 8.55228 12.5523 9 12 9C11.4477 9 11 8.55228 11 8ZM11 11C11 10.4477 11.4477 10 12 10C12.5523 10 13 10.4477 13 11V16C13 16.5523 12.5523 17 12 17C11.4477 17 11 16.5523 11 16V11Z"/>
</mask>
<path fill-rule="evenodd" clip-rule="evenodd" d="M12 22C17.5228 22 22 17.5228 22 12C22 6.47715 17.5228 2 12 2C6.47715 2 2 6.47715 2 12C2 17.5228 6.47715 22 12 22ZM11 8C11 7.44772 11.4477 7 12 7C12.5523 7 13 7.44772 13 8C13 8.55228 12.5523 9 12 9C11.4477 9 11 8.55228 11 8ZM11 11C11 10.4477 11.4477 10 12 10C12.5523 10 13 10.4477 13 11V16C13 16.5523 12.5523 17 12 17C11.4477 17 11 16.5523 11 16V11Z" fill="#1E7FDE"/>
<path d="M20 12C20 16.4183 16.4183 20 12 20V24C18.6274 24 24 18.6274 24 12H20ZM12 4C16.4183 4 20 7.58172 20 12H24C24 5.37258 18.6274 0 12 0V4ZM4 12C4 7.58172 7.58172 4 12 4V0C5.37258 0 0 5.37258 0 12H4ZM12 20C7.58172 20 4 16.4183 4 12H0C0 18.6274 5.37258 24 12 24V20ZM12 5C10.3431 5 9 6.34315 9 8H13C13 8.55228 12.5523 9 12 9V5ZM15 8C15 6.34315 13.6569 5 12 5V9C11.4477 9 11 8.55229 11 8H15ZM12 11C13.6569 11 15 9.65685 15 8H11C11 7.44771 11.4477 7 12 7V11ZM9 8C9 9.65685 10.3431 11 12 11V7C12.5523 7 13 7.44772 13 8H9ZM12 8C10.3431 8 9 9.34315 9 11H13C13 11.5523 12.5523 12 12 12V8ZM15 11C15 9.34315 13.6569 8 12 8V12C11.4477 12 11 11.5523 11 11H15ZM15 16V11H11V16H15ZM12 19C13.6569 19 15 17.6569 15 16H11C11 15.4477 11.4477 15 12 15V19ZM9 16C9 17.6569 10.3431 19 12 19V15C12.5523 15 13 15.4477 13 16H9ZM9 11V16H13V11H9Z" fill="#1E7FDE" mask="url(#path-1-inside-1_3345_8516)"/>
</g>
</g>
</svg>
