<svg width="700" height="330" viewBox="0 0 700 330" fill="none" xmlns="http://www.w3.org/2000/svg">
<path d="M632.373 48C630.932 48 629.683 49.1493 629.683 50.6816V62.8448L619.019 73.4756L606.626 61.1209C606.049 60.5462 605.185 60.5462 604.608 61.1209L592.215 73.4756L579.822 61.1209C579.245 60.5462 578.38 60.5462 577.804 61.1209L565.411 73.4756L553.017 61.1209C552.441 60.5462 551.48 60.5462 551 61.1209L538.606 73.4756L526.213 61.1209C525.637 60.5462 524.676 60.5462 524.196 61.1209L511.802 73.4756L499.409 61.1209C498.832 60.5462 497.872 60.5462 497.391 61.1209L484.998 73.4756L472.605 61.1209C472.028 60.5462 471.164 60.5462 470.587 61.1209L458.194 73.4756L446.569 61.8871V50.6816C446.569 49.245 445.32 48 443.879 48C442.438 48 441.189 49.1493 441.189 50.6816V63.0363L430.717 73.4756L418.324 61.1209C417.747 60.5462 416.786 60.5462 416.306 61.1209L403.913 73.4756L391.519 61.1209C390.943 60.5462 390.078 60.5462 389.502 61.1209L377.685 73.4756L365.292 61.1209C364.715 60.5462 363.754 60.5462 363.274 61.1209L350.881 73.4756L338.487 61.1209C337.911 60.5462 336.95 60.5462 336.47 61.1209L324.076 73.4756L311.683 61.1209C311.107 60.5462 310.242 60.5462 309.666 61.1209L297.272 73.4756L284.879 61.1209C284.302 60.5462 283.438 60.5462 282.861 61.1209L270.468 73.4756L258.843 61.8871V50.6816C258.843 49.245 257.594 48 256.153 48C254.712 48 253.751 49.1493 253.751 50.6816V62.8448L243.087 73.4756L230.694 61.2167C230.117 60.642 229.157 60.642 228.676 61.2167L216.283 73.4756L203.89 61.1209C203.313 60.5462 202.448 60.5462 201.872 61.1209L189.479 73.4756L177.085 61.1209C176.509 60.5462 175.644 60.5462 175.068 61.1209L162.674 73.4756L150.281 61.1209C149.705 60.5462 148.84 60.5462 148.264 61.1209L135.87 73.4756L123.765 61.2167C123.189 60.642 122.324 60.642 121.748 61.2167L109.354 73.4756L97.0569 61.2167C96.4804 60.642 95.6158 60.642 95.0393 61.2167L82.646 73.4756L71.0212 61.8871V50.6816C71.0212 49.1493 69.7722 48 68.3311 48C66.8901 48 65.6411 49.1493 65.6411 50.6816V170.589C65.6411 172.026 66.8901 173.271 68.3311 173.271C69.7722 173.271 71.0212 172.122 71.0212 170.589V169.153L82.646 157.564L95.0393 169.919C95.6158 170.494 96.5765 170.494 97.0569 169.919L109.45 157.564L121.844 169.919C122.42 170.494 123.381 170.494 123.861 169.919L136.254 157.564L148.648 169.919C149.224 170.494 150.185 170.494 150.665 169.919L163.059 157.564L175.452 169.919C176.029 170.494 176.989 170.494 177.47 169.919L189.863 157.564L202.256 169.919C202.833 170.494 203.794 170.494 204.274 169.919L216.667 157.564L229.061 169.919C229.637 170.494 230.598 170.494 231.078 169.919L243.471 157.564L254.136 168.195V170.589C254.136 172.026 255.384 173.271 256.826 173.271C258.267 173.271 259.516 172.122 259.516 170.589V169.153L271.14 157.564L283.534 169.919C284.11 170.494 285.071 170.494 285.551 169.919L297.945 157.564L310.338 169.919C310.914 170.494 311.875 170.494 312.356 169.919L324.749 157.564L337.142 169.919C337.719 170.494 338.679 170.494 339.16 169.919L351.553 157.564L363.947 169.919C364.523 170.494 365.484 170.494 365.964 169.919L378.357 157.564L390.751 169.919C391.327 170.494 392.288 170.494 392.768 169.919L405.162 157.564L417.555 169.919C418.131 170.494 419.092 170.494 419.573 169.919L431.966 157.564L442.438 168.003V170.589C442.438 172.026 443.687 173.271 445.128 173.271C446.569 173.271 447.818 172.122 447.818 170.589V169.153L459.443 157.564L471.836 169.919C472.412 170.494 473.373 170.494 473.854 169.919L486.247 157.564L498.64 169.919C499.217 170.494 500.177 170.494 500.658 169.919L513.051 157.564L525.445 169.919C526.021 170.494 526.982 170.494 527.462 169.919L539.855 157.564L552.249 169.919C552.825 170.494 553.786 170.494 554.266 169.919L566.66 157.564L579.053 169.919C579.629 170.494 580.59 170.494 581.071 169.919L593.464 157.564L605.857 169.919C606.434 170.494 607.394 170.494 607.875 169.919L620.268 157.564L630.932 168.195V170.589C630.932 172.026 632.181 173.271 633.622 173.271C635.063 173.271 636.312 172.122 636.312 170.589V50.6816C635.063 49.1493 633.91 48 632.373 48ZM629.683 66.963V84.2021L621.037 75.5826L629.683 66.963ZM629.683 146.838V164.077L621.037 155.457L629.683 146.838ZM447.049 85.0641V65.9095L456.657 75.4868L447.049 85.0641ZM605.665 113.509L594.329 102.207L605.665 90.9062L617.002 102.207L605.665 113.509ZM592.311 104.219L603.648 115.52L592.311 126.821L580.974 115.52L592.311 104.219ZM578.957 113.509L567.62 102.207L578.957 90.9062L590.294 102.207L578.957 113.509ZM565.603 104.219L576.939 115.52L565.603 126.821L554.266 115.52L565.603 104.219ZM552.153 113.509L540.816 102.207L552.153 90.9062L563.489 102.207L552.153 113.509ZM538.799 104.219L550.135 115.52L538.799 126.821L527.462 115.52L538.799 104.219ZM525.445 113.509L514.108 102.207L525.445 90.9062L536.781 102.207L525.445 113.509ZM512.09 104.219L523.427 115.52L512.09 126.821L500.754 115.52L512.09 104.219ZM498.736 113.509L487.4 102.207L498.736 90.9062L510.073 102.207L498.736 113.509ZM485.382 104.219L496.719 115.52L485.382 126.821L474.046 115.52L485.382 104.219ZM472.028 113.509L460.692 102.207L472.028 90.9062L483.365 102.207L472.028 113.509ZM469.915 115.52L458.578 126.821L447.241 115.52L458.578 104.219L469.915 115.52ZM472.028 117.531L483.365 128.832L472.028 140.133L460.692 128.832L472.028 117.531ZM498.736 117.531L510.073 128.832L498.736 140.133L487.4 128.832L498.736 117.531ZM525.445 117.531L536.781 128.832L525.445 140.133L514.108 128.832L525.445 117.531ZM552.153 117.531L563.489 128.832L552.153 140.133L540.816 128.832L552.153 117.531ZM578.957 117.531L590.294 128.832L578.957 140.133L567.62 128.832L578.957 117.531ZM605.665 117.531L617.002 128.832L605.665 140.133L594.329 128.832L605.665 117.531ZM607.683 115.52L619.019 104.219L629.683 114.849V116.19L619.019 126.821L607.683 115.52ZM607.683 88.895L619.019 77.5938L629.683 88.2246V89.5654L619.019 100.196L607.683 88.895ZM605.665 86.788L594.329 75.4868L605.665 64.2814L617.002 75.5826L605.665 86.788ZM592.311 100.1L580.974 88.7992L592.311 77.498L603.648 88.7992L592.311 100.1ZM578.957 86.788L567.62 75.4868L578.957 64.2814L590.294 75.5826L578.957 86.788ZM565.603 100.1L554.266 88.7992L565.603 77.498L576.939 88.7992L565.603 100.1ZM552.153 86.788L540.816 75.4868L552.153 64.2814L563.489 75.5826L552.153 86.788ZM538.799 100.1L527.462 88.7992L538.799 77.498L550.135 88.7992L538.799 100.1ZM525.445 86.788L514.108 75.4868L525.445 64.2814L536.781 75.5826L525.445 86.788ZM512.09 100.1L500.754 88.7992L512.09 77.498L523.427 88.7992L512.09 100.1ZM498.736 86.788L487.4 75.4868L498.736 64.2814L510.073 75.5826L498.736 86.788ZM485.382 100.1L474.046 88.7992L485.382 77.498L496.719 88.7992L485.382 100.1ZM472.028 86.788L460.692 75.4868L472.028 64.2814L483.365 75.4868L472.028 86.788ZM458.674 100.1L447.337 88.7992L458.674 77.498L469.915 88.895L458.674 100.1ZM447.049 111.785V92.6302L456.657 102.207L447.049 111.785ZM447.049 138.41V119.255L456.657 128.832L447.049 138.41ZM458.674 130.844L469.915 142.145L458.578 153.446L447.241 142.145L458.674 130.844ZM472.028 144.156L483.365 155.457L472.028 166.758L460.692 155.457L472.028 144.156ZM485.382 130.844L496.719 142.145L485.382 153.446L474.046 142.145L485.382 130.844ZM498.736 144.156L510.073 155.457L498.736 166.758L487.4 155.457L498.736 144.156ZM512.09 130.844L523.427 142.145L512.09 153.446L500.754 142.145L512.09 130.844ZM525.445 144.156L536.781 155.457L525.445 166.758L514.108 155.457L525.445 144.156ZM538.799 130.844L550.135 142.145L538.799 153.446L527.462 142.145L538.799 130.844ZM552.153 144.156L563.489 155.457L552.153 166.758L540.816 155.457L552.153 144.156ZM565.603 130.844L576.939 142.145L565.603 153.446L554.266 142.145L565.603 130.844ZM578.957 144.156L590.294 155.457L578.957 166.758L567.62 155.457L578.957 144.156ZM592.311 130.844L603.648 142.145L592.311 153.446L580.974 142.145L592.311 130.844ZM605.665 144.156L617.002 155.457L605.665 166.758L594.329 155.457L605.665 144.156ZM619.019 130.844L629.683 141.474V142.815L619.019 153.446L607.683 142.145L619.019 130.844ZM629.683 120.213V137.452L621.037 128.832L629.683 120.213ZM629.683 93.5879V110.827L621.037 102.207L629.683 93.5879ZM447.049 165.034V145.88L456.657 155.457L447.049 165.034ZM441.573 67.0588V83.9148L433.119 75.4868L441.573 67.0588ZM441.573 147.029V163.885L433.119 155.457L441.573 147.029ZM259.131 85.0641V65.9095L268.739 75.4868L259.131 85.0641ZM417.747 113.509L406.411 102.207L417.747 90.9062L429.084 102.207L417.747 113.509ZM404.393 104.219L415.73 115.52L404.393 126.821L393.056 115.52L404.393 104.219ZM391.039 113.509L379.702 102.207L391.039 90.9062L402.376 102.207L391.039 113.509ZM377.685 104.219L389.021 115.52L377.685 126.821L366.348 115.52L377.685 104.219ZM364.331 113.509L352.994 102.207L364.331 90.9062L375.667 102.207L364.331 113.509ZM350.881 104.219L362.217 115.52L350.881 126.821L339.544 115.52L350.881 104.219ZM337.527 113.509L326.19 102.207L337.527 90.9062L348.863 102.207L337.527 113.509ZM324.172 104.219L335.509 115.52L324.172 126.821L312.836 115.52L324.172 104.219ZM310.818 113.509L299.482 102.207L310.818 90.9062L322.155 102.207L310.818 113.509ZM297.464 104.219L308.801 115.52L297.464 126.821L286.128 115.52L297.464 104.219ZM284.11 113.509L272.774 102.207L284.11 90.9062L295.447 102.207L284.11 113.509ZM270.756 126.821L259.42 115.52L270.756 104.219L282.093 115.52L270.756 126.821ZM284.11 117.531L295.447 128.832L284.11 140.133L272.774 128.832L284.11 117.531ZM310.818 117.531L322.155 128.832L310.818 140.133L299.482 128.832L310.818 117.531ZM337.527 117.531L348.863 128.832L337.527 140.133L326.19 128.832L337.527 117.531ZM364.331 117.531L375.667 128.832L364.331 140.133L352.994 128.832L364.331 117.531ZM391.039 117.531L402.376 128.832L391.039 140.133L379.702 128.832L391.039 117.531ZM417.747 117.531L429.084 128.832L417.747 140.133L406.411 128.832L417.747 117.531ZM431.101 104.219L441.573 114.658V116.286L431.101 126.725L419.765 115.424L431.101 104.219ZM431.101 77.5938L441.573 88.0331V89.6612L431.101 100.1L419.765 88.7992L431.101 77.5938ZM417.747 86.788L406.411 75.4868L417.747 64.2814L429.084 75.5826L417.747 86.788ZM404.393 100.1L393.056 88.895L404.393 77.5938L415.73 88.895L404.393 100.1ZM391.039 86.788L379.702 75.4868L391.039 64.2814L402.376 75.5826L391.039 86.788ZM377.685 100.1L366.348 88.7992L377.685 77.5938L389.021 88.895L377.685 100.1ZM364.331 86.788L352.994 75.4868L364.331 64.2814L375.667 75.5826L364.331 86.788ZM350.881 100.1L339.544 88.7992L350.881 77.498L362.217 88.7992L350.881 100.1ZM337.527 86.788L326.19 75.4868L337.527 64.2814L348.863 75.4868L337.527 86.788ZM324.172 100.1L312.836 88.7992L324.172 77.498L335.509 88.7992L324.172 100.1ZM310.818 86.788L299.482 75.4868L310.818 64.2814L322.155 75.5826L310.818 86.788ZM297.464 100.1L286.128 88.7992L297.464 77.498L308.801 88.7992L297.464 100.1ZM284.11 86.788L272.774 75.4868L284.11 64.2814L295.447 75.5826L284.11 86.788ZM270.756 100.1L259.42 88.7992L270.756 77.498L282.093 88.7992L270.756 100.1ZM259.131 111.785V92.6302L268.739 102.207L259.131 111.785ZM259.131 138.41V119.255L268.739 128.832L259.131 138.41ZM270.756 130.844L282.093 142.145L270.756 153.446L259.42 142.145L270.756 130.844ZM284.11 144.156L295.447 155.457L284.11 166.758L272.774 155.457L284.11 144.156ZM297.464 130.844L308.801 142.145L297.464 153.446L286.128 142.145L297.464 130.844ZM310.818 144.156L322.155 155.457L310.818 166.758L299.482 155.457L310.818 144.156ZM324.172 130.844L335.509 142.145L324.172 153.446L312.836 142.145L324.172 130.844ZM337.527 144.156L348.863 155.457L337.527 166.758L326.19 155.457L337.527 144.156ZM350.881 130.844L362.217 142.145L350.881 153.446L339.544 142.145L350.881 130.844ZM364.331 144.156L375.667 155.457L364.331 166.758L352.994 155.457L364.331 144.156ZM377.685 130.844L389.021 142.145L377.685 153.446L366.348 142.145L377.685 130.844ZM391.039 144.156L402.376 155.457L391.039 166.758L379.702 155.457L391.039 144.156ZM404.393 130.844L415.73 142.145L404.393 153.446L393.056 142.145L404.393 130.844ZM417.747 144.156L429.084 155.457L417.747 166.758L406.411 155.457L417.747 144.156ZM431.101 130.844L441.573 141.283V142.911L431.101 153.35L419.765 142.049L431.101 130.844ZM441.573 120.404V137.26L433.119 128.832L441.573 120.404ZM441.573 93.7794V110.635L433.119 102.207L441.573 93.7794ZM259.131 165.034V145.88L268.739 155.457L259.131 165.034ZM253.751 66.963V84.2021L245.105 75.5826L253.751 66.963ZM253.751 146.838V164.077L245.105 155.457L253.751 146.838ZM71.0212 85.0641V65.9095L80.6284 75.4868L71.0212 85.0641ZM229.637 113.509L218.3 102.207L229.637 90.9062L240.974 102.207L229.637 113.509ZM216.283 126.821L204.946 115.52L216.283 104.219L227.62 115.52L216.283 126.821ZM202.929 113.509L191.592 102.207L202.929 90.9062L214.265 102.207L202.929 113.509ZM189.575 104.219L200.911 115.52L189.575 126.821L178.238 115.52L189.575 104.219ZM176.221 113.509L164.884 102.207L176.221 90.9062L187.557 102.207L176.221 113.509ZM162.867 104.219L174.203 115.52L162.867 126.821L151.53 115.52L162.867 104.219ZM149.512 113.509L138.176 102.207L149.512 90.9062L160.849 102.207L149.512 113.509ZM136.062 104.219L147.399 115.52L136.062 126.821L124.822 115.52L136.062 104.219ZM122.708 113.509L111.372 102.207L122.708 90.9062L134.045 102.207L122.708 113.509ZM109.354 104.219L120.691 115.52L109.354 126.821L98.0176 115.52L109.354 104.219ZM96 113.509L84.6635 102.207L96 90.9062L107.337 102.207L96 113.509ZM82.646 126.821L71.3094 115.52L82.646 104.219L93.9825 115.52L82.646 126.821ZM96 117.531L107.337 128.832L96 140.133L84.6635 128.832L96 117.531ZM122.708 117.531L134.045 128.832L122.708 140.133L111.372 128.832L122.708 117.531ZM149.512 117.531L160.849 128.832L149.512 140.133L138.176 128.832L149.512 117.531ZM176.221 117.531L187.557 128.832L176.221 140.133L164.884 128.832L176.221 117.531ZM202.929 117.531L214.265 128.832L202.929 140.133L191.592 128.832L202.929 117.531ZM229.637 117.531L240.974 128.832L229.637 140.133L218.3 128.832L229.637 117.531ZM242.991 104.219L253.751 114.849V116.19L243.087 126.821L231.751 115.52L242.991 104.219ZM242.991 77.5938L253.751 88.2246V89.5654L243.087 100.196L231.751 88.895L242.991 77.5938ZM229.637 86.788L218.3 75.4868L229.637 64.2814L240.974 75.5826L229.637 86.788ZM216.283 100.1L204.946 88.7992L216.283 77.5938L227.62 88.895L216.283 100.1ZM202.929 86.788L191.592 75.4868L202.929 64.2814L214.265 75.5826L202.929 86.788ZM189.575 100.1L178.238 88.7992L189.575 77.498L200.911 88.895L189.575 100.1ZM176.221 86.788L164.884 75.4868L176.221 64.2814L187.557 75.5826L176.221 86.788ZM162.867 100.1L151.53 88.7992L162.867 77.498L174.203 88.7992L162.867 100.1ZM149.512 86.788L138.176 75.4868L149.512 64.2814L160.849 75.5826L149.512 86.788ZM136.062 100.1L124.822 88.895L136.158 77.5938L147.495 88.895L136.062 100.1ZM122.708 86.788L111.372 75.4868L122.708 64.2814L134.045 75.5826L122.708 86.788ZM109.354 100.1L98.0176 88.895L109.354 77.5938L120.691 88.895L109.354 100.1ZM96 86.788L84.6635 75.4868L96 64.2814L107.337 75.5826L96 86.788ZM82.646 100.1L71.3094 88.895L82.646 77.5938L93.9825 88.895L82.646 100.1ZM71.0212 111.785V92.6302L80.6284 102.207L71.0212 111.785ZM71.0212 138.41V119.255L80.6284 128.832L71.0212 138.41ZM82.646 130.844L93.9825 142.145L82.646 153.446L71.3094 142.145L82.646 130.844ZM96 144.156L107.337 155.457L96 166.758L84.6635 155.457L96 144.156ZM109.354 130.844L120.691 142.145L109.354 153.446L98.0176 142.145L109.354 130.844ZM122.708 144.156L134.045 155.457L122.708 166.758L111.372 155.457L122.708 144.156ZM136.062 130.844L147.399 142.145L136.062 153.446L124.822 142.145L136.062 130.844ZM149.512 144.156L160.849 155.457L149.512 166.758L138.176 155.457L149.512 144.156ZM162.867 130.844L174.203 142.145L162.867 153.446L151.53 142.145L162.867 130.844ZM176.221 144.156L187.557 155.457L176.221 166.758L164.884 155.457L176.221 144.156ZM189.575 130.844L200.911 142.145L189.575 153.446L178.238 142.145L189.575 130.844ZM202.929 144.156L214.265 155.457L202.929 166.758L191.592 155.457L202.929 144.156ZM216.283 130.844L227.62 142.145L216.283 153.446L204.946 142.145L216.283 130.844ZM229.637 144.156L240.974 155.457L229.637 166.758L218.3 155.457L229.637 144.156ZM242.991 130.844L253.751 141.474V142.815L243.087 153.446L231.751 142.145L242.991 130.844ZM253.751 120.213V137.452L245.105 128.832L253.751 120.213ZM253.751 93.5879V110.827L245.105 102.207L253.751 93.5879ZM71.0212 165.034V145.88L80.6284 155.457L71.0212 165.034Z" fill="#CECECE"/>
<path d="M341.017 182.752H266.561V108.528L341.017 182.752Z" fill="#9D0001"/>
<path d="M117.449 182.745H154.726V108.425H117.449V182.745Z" fill="#00832C"/>
<path d="M154.732 89.9483C165.012 89.9483 173.37 98.2806 173.37 108.528H192.008C192.008 88.0329 175.292 71.3684 154.732 71.3684C134.173 71.3684 117.456 88.0329 117.456 108.528H136.094C136.094 98.2806 144.452 89.9483 154.732 89.9483Z" fill="#DD9500"/>
<path d="M154.732 108.528V182.848H172.602C172.89 162.257 189.607 145.688 210.262 145.688C230.918 145.688 247.731 162.257 247.923 182.848H266.465V108.528H154.732Z" fill="#0F58DC"/>
<path d="M266.561 108.528H247.923V127.108H266.561V108.528Z" fill="#0014A0"/>
<path d="M247.923 108.528H229.285V127.108H247.923V108.528Z" fill="#00832C"/>
<path d="M210.647 108.528H192.009V127.108H210.647V108.528Z" fill="#0F58DC"/>
<path d="M192.009 108.528H173.371V127.108H192.009V108.528Z" fill="#9D0001"/>
<path d="M173.37 108.528H154.732V127.108H173.37V108.528Z" fill="#0F58DC"/>
<path d="M117.552 108.528H98.9141V127.108H117.552V108.528Z" fill="#DD9500"/>
<path d="M117.552 127.108H98.9141V145.688H117.552V127.108Z" fill="#2297FF"/>
<path d="M98.914 127.108H80.2759V145.688H98.914V127.108Z" fill="#9D0001"/>
<path d="M117.552 164.172H98.9141V145.592H117.552V164.172Z" fill="#0014A0"/>
<path d="M98.914 145.592H80.2759V164.172H98.914V145.592Z" fill="#00832C"/>
<path d="M80.2763 145.592H61.6382V164.172H80.2763V145.592Z" fill="#2297FF"/>
<path d="M117.552 164.172H98.9141V182.752H117.552V164.172Z" fill="#0F58DC"/>
<path d="M98.914 164.172H80.2759V182.752H98.914V164.172Z" fill="#2297FF"/>
<path d="M80.2763 164.172H61.6382V182.752H80.2763V164.172Z" fill="#9D0001"/>
<path d="M61.6381 164.172H43V182.752H61.6381V164.172Z" fill="#00832C"/>
<path d="M656.904 161.012C656.904 149.04 647.105 139.271 635.096 139.271H535.276C523.267 139.271 513.468 149.04 513.468 161.012C513.468 172.984 523.267 182.752 535.276 182.752H635.096C647.201 182.752 656.904 173.079 656.904 161.012Z" fill="#DD9500"/>
<path d="M656.904 161.012C656.904 149.04 647.105 139.271 635.096 139.271H535.276C523.267 139.271 513.468 149.04 513.468 161.012C513.468 172.984 523.267 182.752 535.276 182.752H635.096C647.201 182.752 656.904 173.079 656.904 161.012Z" fill="#0F58DC"/>
<path d="M635.192 182.752C647.201 182.752 657 172.984 657 161.012C657 149.04 647.201 139.272 635.192 139.272H628.178V182.752H635.192Z" fill="#2297FF"/>
<path d="M535.372 139.368C523.363 139.368 513.564 149.137 513.564 161.108C513.564 173.08 523.363 182.849 535.372 182.849H542.386V139.368H535.372Z" fill="#0014A0"/>
<path d="M539.35 156.736L539.35 165.356L547.996 165.356L547.996 156.736L539.35 156.736Z" fill="#ACACAC"/>
<path d="M543.635 163.407C544.963 163.407 546.039 162.335 546.039 161.012C546.039 159.69 544.963 158.618 543.635 158.618C542.308 158.618 541.232 159.69 541.232 161.012C541.232 162.335 542.308 163.407 543.635 163.407Z" fill="#8A8A8A"/>
<path d="M542.894 175.536L542.895 146.613L539.243 146.613L539.242 175.536L542.894 175.536Z" fill="#CECECE"/>
<path d="M531.529 146.55C531.529 143.868 533.643 141.761 536.333 141.761H545.94C548.63 141.761 550.744 143.868 550.744 146.55C550.744 149.232 548.63 151.339 545.94 151.339H536.333C533.643 151.339 531.529 149.232 531.529 146.55Z" fill="white"/>
<path d="M531.529 175.569C531.529 172.888 533.643 170.781 536.333 170.781H545.94C548.63 170.781 550.744 172.888 550.744 175.569C550.744 178.251 548.63 180.358 545.94 180.358H536.333C533.643 180.262 531.529 178.155 531.529 175.569Z" fill="white"/>
<path d="M621.447 156.787L621.447 165.407L630.094 165.407L630.094 156.788L621.447 156.787Z" fill="#ACACAC"/>
<path d="M625.681 163.407C627.009 163.407 628.084 162.335 628.084 161.012C628.084 159.69 627.009 158.618 625.681 158.618C624.354 158.618 623.278 159.69 623.278 161.012C623.278 162.335 624.354 163.407 625.681 163.407Z" fill="#8A8A8A"/>
<path d="M629.999 175.475L629.999 146.551L626.347 146.551L626.347 175.475L629.999 175.475Z" fill="#CECECE"/>
<path d="M618.667 146.55C618.667 143.868 620.781 141.761 623.471 141.761H633.078C635.768 141.761 637.882 143.868 637.882 146.55C637.882 149.232 635.768 151.339 633.078 151.339H623.471C620.781 151.339 618.667 149.232 618.667 146.55Z" fill="white"/>
<path d="M618.667 175.569C618.667 172.888 620.781 170.781 623.471 170.781H633.078C635.768 170.781 637.882 172.888 637.882 175.569C637.882 178.251 635.768 180.358 633.078 180.358H623.471C620.781 180.262 618.667 178.155 618.667 175.569Z" fill="white"/>
<path d="M309.717 194.454C309.717 193.941 309.614 193.633 309.408 193.326C309.305 193.223 309.305 193.121 309.203 193.121C308.791 192.813 305.808 191.788 302.722 190.762C302.722 190.557 291.408 124.624 290.893 122.573C289.968 112.524 281.224 104.731 270.835 105.141C260.858 105.551 252.834 113.652 252.32 123.496C251.806 134.57 260.652 143.799 271.658 143.799C274.23 143.799 276.698 143.286 278.858 142.363C279.784 145.439 281.019 149.131 282.253 153.13C283.796 157.949 285.442 163.179 287.087 168.306C287.91 170.869 288.733 173.433 289.556 175.894C289.968 177.124 290.379 178.355 290.688 179.483C290.893 180.098 291.099 180.713 291.305 181.226C291.613 182.149 291.819 182.969 292.128 183.892C292.539 184.302 292.95 184.61 293.259 185.02C293.465 185.225 293.671 185.43 293.876 185.533L294.185 185.738C294.288 185.84 294.288 185.84 294.288 185.84C294.391 185.943 294.493 185.943 294.596 186.045C294.699 186.148 294.802 186.251 294.905 186.353C295.008 186.763 296.551 193.326 297.374 196.71C297.682 197.838 298.608 198.658 299.842 198.658C302.928 198.761 307.351 198.863 308.071 198.658C308.174 198.658 308.277 198.555 308.38 198.555C308.585 198.35 308.894 198.043 309.1 197.633C309.305 197.222 309.511 196.71 309.614 196.094C309.717 195.377 309.717 194.864 309.717 194.454Z" fill="#8A8A8A"/>
<path d="M264.561 195.684C264.355 195.171 264.046 194.864 263.635 194.556C263.532 194.454 263.326 194.351 263.12 194.351C262.503 194.146 259.006 193.326 254.892 192.505L266.515 162.051C267.029 160.718 267.235 159.385 267.235 157.949C267.235 151.284 261.783 145.849 255.097 145.849C248.411 145.849 242.96 151.284 242.96 157.949L236.685 196.197C236.479 197.94 237.714 199.478 239.462 199.683V199.786C242.137 199.991 260.755 200.093 262.4 199.888C262.606 199.888 262.709 199.786 262.915 199.786C263.326 199.581 263.738 199.375 264.046 198.863C264.355 198.453 264.561 197.94 264.561 197.325C264.869 196.709 264.766 196.094 264.561 195.684Z" fill="#8A8A8A"/>
<path d="M279.064 58.2797L288.322 62.0737C291.305 63.3042 292.847 66.4829 292.127 69.5592L285.75 96.0147C284.104 103.09 273.818 102.372 273.098 95.0918L270.218 64.8423C269.806 60.0229 274.641 56.434 279.064 58.2797Z" fill="#363636"/>
<path d="M226.193 175.278L248.617 97.6551L248.206 81.5562L282.459 92.6306L288.939 111.806C289.762 116.523 288.836 121.445 286.47 125.649L269.19 156.001C267.749 158.462 266.104 160.82 264.149 162.871L241.005 192.505L226.193 175.278Z" fill="#DFDFDF"/>
<path d="M250.571 195.684C250.366 195.171 250.057 194.864 249.646 194.556C249.543 194.454 249.337 194.351 249.131 194.351C248.514 194.146 245.017 193.326 240.902 192.505L255.509 162.051C256.023 160.718 256.229 159.385 256.229 157.949C256.229 151.284 250.777 145.849 244.091 145.849C237.405 145.849 231.954 151.284 231.954 157.949L219.199 196.197C218.993 197.94 220.227 199.478 221.976 199.683V199.786C224.65 199.991 246.971 200.093 248.617 199.888C248.823 199.888 248.926 199.786 249.131 199.786C249.543 199.581 249.954 199.375 250.263 198.863C250.571 198.453 250.777 197.94 250.777 197.325C250.88 196.709 250.777 196.094 250.571 195.684Z" fill="#DFDFDF"/>
<path d="M290.893 194.453C290.893 193.941 290.791 193.633 290.585 193.325C290.482 193.223 290.482 193.12 290.379 193.12C289.968 192.813 286.573 191.275 283.59 190.147C283.899 178.662 284.619 125.854 284.619 124.11C284.619 124.008 280.093 124.008 277.316 122.983C276.698 122.777 275.978 122.675 275.361 122.675C274.641 122.675 274.024 122.88 273.407 123.188C270.732 124.521 268.778 128.007 269.19 132.006C269.19 132.109 269.19 132.314 269.19 132.416C269.292 134.467 270.115 142.67 271.144 152.719C271.658 157.744 272.275 163.178 272.893 168.511C273.201 171.177 273.51 173.843 273.715 176.406C273.818 177.637 274.024 178.97 274.127 180.2C274.23 180.815 274.23 181.431 274.333 182.046C274.436 182.969 274.538 183.892 274.538 184.815C274.847 185.225 275.156 185.635 275.464 186.148C275.67 186.353 275.773 186.558 275.978 186.763L276.184 187.07C276.287 187.173 276.287 187.173 276.287 187.173C276.39 187.276 276.493 187.378 276.596 187.481C276.698 187.583 276.801 187.686 276.904 187.788C276.904 188.198 277.213 193.223 277.316 196.299C277.418 197.632 278.447 198.658 279.784 198.76C283.076 198.863 288.733 198.965 289.35 198.76C289.453 198.76 289.556 198.658 289.659 198.658C289.865 198.452 290.173 198.145 290.379 197.735C290.585 197.325 290.791 196.812 290.893 196.197C290.893 195.376 290.996 194.864 290.893 194.453Z" fill="#DFDFDF"/>
<path d="M255.303 83.9148L288.219 91.4003L287.808 93.246C286.265 100.219 279.373 104.525 272.378 102.987L252.012 98.373L255.303 83.9148Z" fill="#0F58DC"/>
<path d="M298.094 78.7877L289.556 75.0963C287.705 74.2759 286.882 72.2251 287.499 70.3794C288.425 67.8159 287.499 64.9447 285.339 63.5092L270.115 53.1525C268.469 52.0246 266.309 51.9221 264.561 52.8449C259.315 55.6135 254.995 59.7151 252.012 64.8422L245.531 75.609L265.692 84.7351L261.783 90.6824L279.064 98.373C281.43 99.3984 284.207 99.3984 286.573 98.2705L292.436 95.3993C294.391 94.3739 296.036 92.7333 296.859 90.6824L299.842 83.2995C300.562 81.4538 299.739 79.5055 298.094 78.7877Z" fill="#DFDFDF"/>
<path d="M254.274 70.9947L263.532 74.7887C266.515 76.0191 268.058 79.1979 267.338 82.2741L260.96 108.73C259.315 115.805 249.029 115.087 248.308 107.807L245.428 77.5573C245.017 72.7378 249.851 69.1489 254.274 70.9947Z" fill="#363636"/>
<path d="M288.836 82.479L295.008 80.6333C296.139 80.3257 297.168 81.4536 296.654 82.479L294.802 86.8883C294.493 87.7086 293.568 88.0162 292.848 87.5035L288.528 84.94C287.499 84.4273 287.705 82.8892 288.836 82.479Z" fill="#363636"/>
<path d="M276.514 83.7478C277.318 83.465 277.264 81.2442 276.395 78.7876C275.525 76.3309 274.168 74.5686 273.365 74.8514C272.561 75.1342 272.614 77.355 273.484 79.8116C274.354 82.2683 275.71 84.0306 276.514 83.7478Z" fill="#363636"/>
<path d="M250.366 192.095C249.646 191.787 246.148 193.633 241.828 192.71C241.417 192.608 241.211 192.095 241.52 191.787L260.035 167.793C261.578 165.845 262.401 163.384 262.401 160.82V160.718C262.401 152.514 255.715 145.849 247.486 145.849" stroke="#8A8A8A" stroke-miterlimit="10" stroke-linecap="round"/>
<path d="M271.657 157.642L269.086 132.314" stroke="#8A8A8A" stroke-miterlimit="10" stroke-linecap="round"/>
<path d="M389.302 125.051H324.455L357.016 60.6661L389.302 125.051Z" fill="#DD9500"/>
<path d="M360.603 82.0366H352.877V106.695H360.603V82.0366Z" fill="#363636"/>
<path d="M360.603 112.448H352.877V119.024H360.603V112.448Z" fill="#363636"/>
</svg>
