<svg width="240" height="140" viewBox="0 0 240 140" fill="none" xmlns="http://www.w3.org/2000/svg">
<path d="M170.67 129.07L170.39 133.66L169.95 133.63L126.98 133.24H126.7V129.8V128.86L154.41 128.99L170.67 129.07Z" fill="#D2DCE6"/>
<path d="M170.39 133.66L170.12 137.95V139.59H126.7V138.52V133.24H126.98L169.95 133.63L170.39 133.66Z" fill="#D2DCE6"/>
<path d="M154.41 112.11C160.83 111.99 163.69 124.71 154.41 128.71V128.99L126.7 128.86L114.73 128.8V128.23C117.35 126.99 118.83 125.19 119.5 123.23C120.11 121.44 120.04 119.52 119.55 117.78C118.95 115.63 117.7 113.75 116.27 112.72V112.11H154.41Z" fill="#D2DCE6"/>
<path d="M143.51 17.18C146.08 21.64 144.06 22.81 144.06 22.81L139.71 24.62C139.88 25.49 139.98 26.39 139.98 27.32C139.98 28.25 139.88 29.14 139.71 30.01L144.06 31.82C144.06 31.82 146.08 32.99 143.51 37.45C140.93 41.91 138.91 40.7401 138.91 40.7401L135.16 37.8701C133.81 39.05 132.23 39.98 130.5 40.57L130.56 41.0601L131.11 45.2401L131 45.82C127.74 45.24 124.14 45.01 120.88 44.97V44.66L121.42 40.57C121.2 40.5 120.99 40.42 120.78 40.33C119.29 39.74 117.93 38.9001 116.75 37.8701L113.01 40.7401C113.01 40.7401 112.92 40.7901 112.74 40.84C112.11 40.98 110.43 40.9501 108.41 37.45C105.83 32.99 107.86 31.82 107.86 31.82L112.2 30.01C112.03 29.14 111.94 28.24 111.94 27.32C111.94 26.4 112.03 25.49 112.2 24.62L107.86 22.81C107.86 22.81 105.83 21.64 108.41 17.18C110.98 12.72 113.01 13.89 113.01 13.89L116.75 16.76C118.1 15.58 119.68 14.65 121.42 14.06L120.81 9.39005C120.81 9.39005 120.81 7.05005 125.96 7.05005C131.11 7.05005 131.11 9.39005 131.11 9.39005L130.5 14.06C132.23 14.65 133.81 15.58 135.16 16.76L138.91 13.89C138.91 13.89 140.93 12.72 143.51 17.18ZM132.12 27.32C132.12 23.91 129.36 21.16 125.96 21.16C122.56 21.16 119.8 23.91 119.8 27.32C119.8 30.73 122.56 33.47 125.96 33.47C129.36 33.47 132.12 30.72 132.12 27.32Z" fill="#D2DCE6"/>
<path d="M119.55 117.78C120.04 119.52 120.11 121.44 119.5 123.23L118.7 122.99H86.89L86.83 118.02H118.7L119.55 117.78Z" fill="#8C96A0"/>
<path d="M119.55 117.78L118.7 118.02H86.83L86.76 112.84V112.11H116.27V112.72C117.7 113.75 118.95 115.63 119.55 117.78Z" fill="#8C96A0"/>
<path d="M118.7 122.99L119.5 123.23C118.83 125.19 117.35 126.99 114.73 128.23V128.8L86.95 128.67V127.74L86.89 122.99H118.7Z" fill="#8C96A0"/>
<path d="M92.63 59.2201C93.98 59.2201 95.08 60.3101 95.08 61.6701C95.08 63.0301 93.98 64.1101 92.63 64.1101C91.28 64.1101 90.18 63.0201 90.18 61.6701C90.18 60.3201 91.28 59.2201 92.63 59.2201Z" fill="#0A1E3C"/>
<path d="M131 45.8201L131.11 45.2401L130.56 41.0601C154.52 47.7601 170.51 75.3001 146.11 100.33L140.83 111.38V112.11H132.22V111.38L127.45 101.85L127.43 101.55C122.7 101.95 117.67 101.94 112.97 101.51L112.94 101.85L108.17 111.38V112.11H99.55V111.38L94.24 97.0001C89.6 94.0601 85.54 90.1901 82.92 85.7601C82.58 85.3501 82.08 84.9401 81.48 84.5501C79.12 83.0201 75.23 81.7801 73.67 81.3601C73.24 81.2401 72.94 80.8601 72.93 80.4201V67.5701C72.91 67.0001 73.22 66.4801 73.72 66.2201L81.35 62.2501C83.47 57.2501 87.57 52.8901 92.09 49.3201C92.43 42.0401 88.04 40.5201 88.14 39.1301C88.23 37.7401 97.15 32.7301 108.17 42.2701C110.04 41.6001 111.45 41.1501 112.74 40.8601C115.13 40.3101 117.1 40.2701 120.78 40.3301C120.99 40.4201 121.2 40.5001 121.42 40.5701L120.88 44.6601V44.9701C124.14 45.0101 127.74 45.2401 131 45.8201ZM95.08 61.6701C95.08 60.3101 93.98 59.2201 92.63 59.2201C91.28 59.2201 90.18 60.3101 90.18 61.6701C90.18 63.0301 91.28 64.1101 92.63 64.1101C93.98 64.1101 95.08 63.0201 95.08 61.6701Z" fill="#F8AC6C"/>
<path d="M79.46 128.64L86.95 128.67L114.73 128.8L126.7 128.86V139.59H79.46V138.48C83.3 138.48 86.42 136.33 86.42 133.67C86.42 131.01 83.3 128.85 79.46 128.85V128.64Z" fill="#8C96A0"/>
<path d="M79.46 139.59H65.28V138.4L65.38 128.57L79.46 128.64V128.85C75.62 128.85 72.51 131.01 72.51 133.67C72.51 136.33 75.62 138.48 79.46 138.48V139.59Z" fill="#8C96A0"/>
<path d="M78.5 75.76C78.5 75.76 77.86 79.79 81.48 84.08C81.64 84.27 81.82 84.47 82 84.67" stroke="#161616" stroke-width="2" stroke-linecap="round" stroke-linejoin="round"/>
<path d="M167.08 55.3201C165.52 59.6401 161.42 62.7201 154.86 59.4801" stroke="#161616" stroke-width="2" stroke-linecap="round" stroke-linejoin="round"/>
<path d="M167.08 55.32C163.37 55.76 159.62 54.1 158.78 50.54C157.12 43.45 164.67 42.84 166.56 46.04C168.03 48.54 168.2 52.24 167.08 55.32Z" stroke="#161616" stroke-width="2" stroke-linecap="round" stroke-linejoin="round"/>
<path d="M175.16 47.38C174.53 52.3 170.82 54.88 167.08 55.32" stroke="#161616" stroke-width="2" stroke-linecap="round" stroke-linejoin="round"/>
<path d="M108.17 110.91L112.94 101.38" stroke="#161616" stroke-width="2" stroke-linecap="round" stroke-linejoin="round"/>
<path d="M94.24 96.53L99.55 110.91" stroke="#161616" stroke-width="2" stroke-linecap="round" stroke-linejoin="round"/>
<path d="M129.83 100.83C129.04 100.92 128.24 101 127.43 101.08C122.7 101.48 117.67 101.47 112.97 101.04C112.55 101.01 112.13 100.96 111.72 100.92" stroke="#161616" stroke-width="2" stroke-linecap="round" stroke-linejoin="round"/>
<path d="M116.42 44.5601C117.77 44.5001 119.29 44.4801 120.88 44.5001C124.14 44.5401 127.74 44.7701 131 45.3501C133.89 45.8701 136.51 46.6601 138.38 47.8401" stroke="#161616" stroke-width="2" stroke-linecap="round" stroke-linejoin="round"/>
<path d="M100.39 99.73C98.28 98.85 96.21 97.77 94.24 96.53C89.6 93.59 85.54 89.72 82.92 85.29C82.58 84.88 82.08 84.47 81.48 84.08C79.12 82.55 75.23 81.31 73.67 80.89C73.24 80.77 72.94 80.39 72.93 79.95V67.1C72.91 66.53 73.22 66.01 73.72 65.75L81.35 61.78" stroke="#161616" stroke-width="2" stroke-linecap="round" stroke-linejoin="round"/>
<path d="M99.15 44.88C99.15 44.88 98.15 40.42 88.86 37.98" stroke="#161616" stroke-width="2" stroke-linecap="round" stroke-linejoin="round"/>
<path d="M132.22 110.91L127.45 101.38" stroke="#161616" stroke-width="2" stroke-linecap="round" stroke-linejoin="round"/>
<path d="M120.78 39.86C117.1 39.8 115.13 39.84 112.74 40.39C111.45 40.68 110.04 41.13 108.17 41.8C97.15 32.26 88.23 37.27 88.14 38.66C88.04 40.05 92.43 41.57 92.09 48.85C87.57 52.42 83.47 56.78 81.35 61.78" stroke="#161616" stroke-width="2" stroke-linecap="round" stroke-linejoin="round"/>
<path d="M140.83 110.91L146.11 99.8601C170.51 74.8301 154.52 47.2901 130.56 40.5901" stroke="#161616" stroke-width="2" stroke-linecap="round" stroke-linejoin="round"/>
<path d="M131.11 44.7701L130.56 40.5901L130.5 40.1001C132.23 39.5101 133.81 38.5801 135.16 37.4001L138.91 40.2701C138.91 40.2701 140.93 41.4401 143.51 36.9801C146.08 32.5201 144.06 31.3501 144.06 31.3501L139.71 29.5401C139.88 28.6701 139.98 27.7701 139.98 26.8501C139.98 25.9301 139.88 25.0201 139.71 24.1501L144.06 22.3401C144.06 22.3401 146.08 21.1701 143.51 16.7101C140.93 12.2501 138.91 13.4201 138.91 13.4201L135.16 16.2901C133.81 15.1101 132.23 14.1801 130.5 13.5901L131.11 8.92008C131.11 8.92008 131.11 6.58008 125.96 6.58008C120.81 6.58008 120.81 8.92008 120.81 8.92008L121.42 13.5901C119.68 14.1801 118.1 15.1101 116.75 16.2901L113.01 13.4201C113.01 13.4201 110.98 12.2501 108.41 16.7101C105.83 21.1701 107.86 22.3401 107.86 22.3401L112.2 24.1501C112.03 25.0201 111.94 25.9201 111.94 26.8501C111.94 27.7801 112.03 28.6701 112.2 29.5401L107.86 31.3501C107.86 31.3501 105.83 32.5201 108.41 36.9801C110.43 40.4801 112.11 40.5101 112.74 40.3701C112.92 40.3201 113.01 40.2701 113.01 40.2701L116.75 37.4001C117.93 38.4301 119.29 39.2701 120.78 39.8601C120.99 39.9501 121.2 40.0301 121.42 40.1001L120.88 44.1901" stroke="#161616" stroke-width="2" stroke-linecap="round" stroke-linejoin="round"/>
<path d="M132.12 26.8501C132.12 30.2501 129.36 33.0001 125.96 33.0001C122.56 33.0001 119.8 30.2501 119.8 26.8501C119.8 23.4501 122.56 20.6901 125.96 20.6901C129.36 20.6901 132.12 23.4401 132.12 26.8501Z" stroke="#161616" stroke-width="2" stroke-linecap="round" stroke-linejoin="round"/>
<path d="M141.35 2.04004C147.79 3.04004 152.47 8.38004 152.88 14.61" stroke="#161616" stroke-width="2" stroke-linecap="round" stroke-linejoin="round"/>
<path d="M140.53 7.35999C144.17 7.92999 146.95 10.6 147.84 13.94" stroke="#161616" stroke-width="2" stroke-linecap="round" stroke-linejoin="round"/>
<path d="M105.28 15.67C103.24 18.17 103.19 21.28 104.99 23.94" stroke="#161616" stroke-width="2" stroke-linecap="round" stroke-linejoin="round"/>
<path d="M82.99 111.64H154.41C160.83 111.52 163.69 124.24 154.41 128.24" stroke="#161616" stroke-width="2" stroke-linecap="round" stroke-linejoin="round"/>
<path d="M86.76 112.37L86.83 117.55L86.89 122.52L86.95 127.27" stroke="#161616" stroke-width="2" stroke-linecap="round" stroke-linejoin="round"/>
<path d="M116.27 112.25C117.7 113.28 118.95 115.16 119.55 117.31C120.04 119.05 120.11 120.97 119.5 122.76C118.83 124.72 117.35 126.52 114.73 127.76" stroke="#161616" stroke-width="2" stroke-linecap="round" stroke-linejoin="round"/>
<path d="M126.32 122.7L126.98 117.94" stroke="#161616" stroke-width="2" stroke-linecap="round" stroke-linejoin="round"/>
<path d="M86.84 117.55H118.7" stroke="#161616" stroke-width="2" stroke-linecap="round" stroke-linejoin="round"/>
<path d="M86.84 122.52H86.89H118.7" stroke="#161616" stroke-width="2" stroke-linecap="round" stroke-linejoin="round"/>
<path d="M65.28 137.93L65.38 128.1L79.46 128.17L86.95 128.2L114.73 128.33L126.7 128.39L154.41 128.52L170.67 128.6L170.39 133.19L170.12 137.48" stroke="#161616" stroke-width="2" stroke-linecap="round" stroke-linejoin="round"/>
<path d="M126.7 129.33V132.77V138.05" stroke="#161616" stroke-width="2" stroke-linecap="round" stroke-linejoin="round"/>
<path d="M126.98 132.77L169.95 133.16" stroke="#161616" stroke-width="2" stroke-linecap="round" stroke-linejoin="round"/>
<path d="M94.61 132.89L109.41 132.77" stroke="#161616" stroke-width="2" stroke-linecap="round" stroke-linejoin="round"/>
<path d="M79.46 128.38C83.3 128.38 86.42 130.54 86.42 133.2C86.42 135.86 83.3 138.01 79.46 138.01C75.62 138.01 72.51 135.86 72.51 133.2C72.51 130.54 75.62 128.38 79.46 128.38Z" stroke="#161616" stroke-width="2" stroke-linecap="round" stroke-linejoin="round"/>
</svg>
