<svg width="240" height="140" viewBox="0 0 240 140" fill="none" xmlns="http://www.w3.org/2000/svg">
<g clip-path="url(#clip0_13_18313)">
<path d="M228.42 114.75C233.95 117.51 235.71 123.84 235.84 128.33C236.337 145.5 243.34 138.28 246.01 140.95H186.16C184.01 139.82 181.77 138.8 179.49 137.87L177.21 136.82C178.71 126.04 190.91 124.96 198.93 129.86C201.19 131.24 204.07 129.96 204.49 127.35C205.58 120.72 209.91 113.35 222.03 113.35C224.58 113.35 226.69 113.87 228.42 114.75Z" fill="#508CF0"/>
<path d="M186.16 140.95L179.49 137.87C181.77 138.8 184.01 139.82 186.16 140.95Z" fill="#0A1E3C"/>
<path d="M186.16 140.95H186.17C186.54 141.14 186.91 141.34 187.27 141.54H70.82C77.26 137.28 83.11 132.15 83.11 132.15C86.49 127.08 95.29 121.01 105.83 115.55C121.13 107.63 140.11 100.99 151.52 100.53C149.5 102.61 143.16 109.18 141.25 111.16L137.26 111.28L139.23 113.25L137.55 114.99L132.31 115.85L135.81 118.04L130.74 120.09C130.3 120.88 129.69 121.94 129.04 123.09C127.81 125.26 126.4 127.74 125.56 129.23C125.56 129.23 155.31 128.09 179.49 137.87L186.16 140.95Z" fill="#0A1E3C"/>
<path d="M222.03 113.35C209.91 113.35 205.58 120.72 204.49 127.35C204.07 129.96 201.19 131.24 198.93 129.86C190.91 124.96 178.71 126.04 177.21 136.82L179.49 137.87C155.31 128.09 125.56 129.23 125.56 129.23C126.4 127.74 127.81 125.26 129.04 123.09C142.3 124.46 152.01 128.33 169.01 122.48C189.66 115.38 182.79 109.82 194.28 102.04C202 95.8299 215.23 97.1499 220.18 102.04C224.7 105.27 225.47 110.86 228.42 114.75C226.69 113.87 224.58 113.35 222.03 113.35Z" fill="#99B1FF"/>
<path d="M194.28 16.8699V102.04C182.79 109.82 189.66 115.38 169.01 122.48C152.01 128.33 142.3 124.46 129.04 123.09C129.69 121.94 130.3 120.88 130.74 120.09L135.81 118.04L132.31 115.85L137.55 114.99L139.23 113.25L137.26 111.28L141.25 111.16C143.16 109.18 149.5 102.61 151.52 100.53C140.11 100.99 121.13 107.63 105.83 115.55L105.61 115.12C77.77 111.48 75.2 131.95 67.49 125.62C63.48 121.44 57.56 119.81 51.54 120.24V120.05L51.93 18.2799C52.29 3.7099 67.99 5.8199 78.09 5.8999C96 5.8599 164.12 5.9899 183.32 5.8999C189.37 5.8999 194.28 10.8099 194.28 16.8599V16.8699ZM179.9 14.5899C179.85 18.3499 185.74 18.3499 185.69 14.5899C185.74 10.8399 179.85 10.8399 179.9 14.5899ZM170.57 14.5899C170.52 18.3499 176.41 18.3499 176.36 14.5899C176.41 10.8399 170.52 10.8399 170.57 14.5899ZM161.47 14.5899C161.41 18.3499 167.31 18.3499 167.25 14.5899C167.31 10.8399 161.41 10.8399 161.47 14.5899ZM152.2 85.8999C160.71 86.1599 166.55 76.0099 162.08 68.7799L136.08 23.7399C132.04 16.2299 120.34 16.2399 116.31 23.7399L90.31 68.7699C85.82 76.0199 91.68 86.1499 100.19 85.8999H152.2Z" fill="#FAF5F5"/>
<path d="M185.69 14.5898C185.74 18.3498 179.85 18.3498 179.9 14.5898C179.85 10.8398 185.74 10.8398 185.69 14.5898Z" fill="#161616"/>
<path d="M176.36 14.5898C176.41 18.3498 170.52 18.3498 170.57 14.5898C170.52 10.8398 176.41 10.8398 176.36 14.5898Z" fill="#161616"/>
<path d="M167.25 14.5898C167.31 18.3498 161.41 18.3498 161.47 14.5898C161.41 10.8398 167.31 10.8398 167.25 14.5898Z" fill="#161616"/>
<path d="M162.08 68.7798C166.55 76.0098 160.71 86.1598 152.2 85.8998H100.19C91.68 86.1498 85.82 76.0198 90.31 68.7698L116.31 23.7398C120.34 16.2398 132.04 16.2298 136.08 23.7398L162.08 68.7798ZM152.2 77.4698C154.5 77.4698 155.93 74.9798 154.78 72.9898L128.78 27.9498C127.63 25.9598 124.75 25.9598 123.6 27.9498C89.34 90.8998 80.74 75.6198 152.2 77.4698Z" fill="#FAB44B"/>
<path d="M154.78 72.99C155.93 74.98 154.5 77.47 152.2 77.47C80.74 75.62 89.34 90.9 123.6 27.95C124.75 25.96 127.63 25.96 128.78 27.95L154.78 72.99ZM127.58 62.88L129.04 44.06H123.34L124.93 62.88H127.58ZM128.63 71.5V66.46H123.75V71.5H128.63Z" fill="#FAB44B"/>
<path d="M129.04 44.0598L127.58 62.8798H124.93L123.34 44.0598H129.04Z" fill="#FAF5F5"/>
<path d="M128.63 66.46H123.75V71.5H128.63V66.46Z" fill="#FAF5F5"/>
<path d="M105.61 115.12L105.83 115.55C95.29 121.01 86.49 127.08 83.11 132.15C83.11 132.15 77.26 137.28 70.82 141.54C70.82 141.83 28.25 141.95 28.25 141.67C28.08 129.35 40.01 121.04 51.54 120.24C57.56 119.81 63.48 121.44 67.49 125.62C75.2 131.95 77.77 111.48 105.61 115.12Z" fill="#99B1FF"/>
<path d="M186.16 140.95C184.01 139.82 181.77 138.8 179.49 137.87C155.31 128.09 125.56 129.23 125.56 129.23C126.4 127.74 127.81 125.26 129.04 123.09C129.69 121.94 130.3 120.88 130.74 120.09L135.81 118.04L132.31 115.85L137.55 114.99L139.23 113.25L137.26 111.28L141.25 111.16C143.16 109.18 149.5 102.61 151.52 100.53C140.11 100.99 121.13 107.63 105.83 115.55C95.29 121.01 86.49 127.08 83.11 132.15C83.11 132.15 77.26 137.28 70.82 141.54H187.27C186.91 141.34 186.54 141.14 186.17 140.95" stroke="#161616" stroke-width="2" stroke-linecap="round" stroke-linejoin="round"/>
<path d="M194.28 102.04V16.8699C194.28 10.8199 189.37 5.90991 183.32 5.90991C164.12 5.98991 96 5.85991 78.09 5.90991C67.99 5.82991 52.29 3.71991 51.93 18.2899L51.53 120.06" stroke="#161616" stroke-width="2" stroke-linecap="round" stroke-linejoin="round"/>
<path d="M123.6 27.95C89.34 90.9 80.74 75.62 152.2 77.47C154.5 77.47 155.93 74.98 154.78 72.99L128.78 27.95C127.63 25.96 124.75 25.96 123.6 27.95Z" stroke="#FAF5F5" stroke-width="2" stroke-linecap="round" stroke-linejoin="round"/>
<path d="M129.71 97.37C131.89 97.21 134.09 97.18 136.27 97.32" stroke="#161616" stroke-width="2" stroke-linecap="round" stroke-linejoin="round"/>
<path d="M99.65 106.33C99.65 106.33 112.15 99.68 126.19 97.75" stroke="#161616" stroke-width="2" stroke-linecap="round" stroke-linejoin="round"/>
<path d="M104.49 99.72C104.49 99.72 115.28 93.47 129.71 93.47" stroke="#161616" stroke-width="2" stroke-linecap="round" stroke-linejoin="round"/>
<path d="M154.38 102.67C154.38 102.67 146.19 110.59 144.23 113.32" stroke="#161616" stroke-width="2" stroke-linecap="round" stroke-linejoin="round"/>
<path d="M33.96 132.78C33.96 132.78 37.97 126.95 41.8 125.62" stroke="#FAF5F5" stroke-width="2" stroke-linecap="round" stroke-linejoin="round"/>
</g>
<defs>
<clipPath id="clip0_13_18313">
<rect width="240" height="140" fill="white"/>
</clipPath>
</defs>
</svg>
