<svg width="240" height="140" viewBox="0 0 240 140" fill="none" xmlns="http://www.w3.org/2000/svg">
<path d="M178.5 30.75L177.46 114.55C177.45 115.02 177.13 115.43 176.68 115.55C171.08 117.02 165.32 117.76 159.52 117.76H155.71L160.66 28.42L178.51 30.75H178.5Z" fill="#8C96A0"/>
<path d="M160.66 28.42L155.71 117.76C155.71 117.76 147.55 119.28 144.8 119.61C128.89 121.53 117.39 119.76 107.94 116.28L106.87 116.52C106.45 114.71 106.03 113 105.74 112C102.49 100.56 96.8 93.8 90.51 89.64L98.11 28.42H160.67H160.66ZM141.71 79.96L144.8 51.62H115.71L113.02 78.46L117.23 81.73C120.7 86.85 130.34 87.72 135.29 83.69L141.71 79.96Z" fill="#D2DCE6"/>
<path d="M129.52 58.91C129.41 58.87 129.29 58.84 129.17 58.82C125.57 58.1 122.08 60.62 121.73 63.87C121.62 64.92 121.84 65.91 122.34 66.74C123.02 67.9 123.21 69.27 122.67 70.57L120.4 76.15L123.44 76.2L133.04 76.37L131.45 70.37C131.1 69.07 131.46 67.68 132.29 66.48C132.96 65.51 133.31 64.35 133.22 63.13C133.07 61.13 131.59 59.46 129.52 58.92V58.91ZM144.79 51.61L141.7 79.95L135.28 83.68C130.33 87.71 120.69 86.84 117.22 81.72L113.01 78.45L115.7 51.61H144.79Z" fill="#508CF0"/>
<path d="M129.17 58.8201C129.29 58.8401 129.41 58.8701 129.52 58.9101C127.03 59.4901 125.04 61.5001 124.77 63.9201C124.66 64.9701 124.88 65.9601 125.38 66.7901C126.06 67.9501 126.25 69.3201 125.71 70.6201L123.44 76.2001L120.4 76.1501L122.67 70.5701C123.21 69.2701 123.02 67.9001 122.34 66.7401C121.84 65.9101 121.62 64.9201 121.73 63.8701C122.08 60.6201 125.57 58.1001 129.17 58.8201Z" fill="#8C96A0"/>
<path d="M108.06 121.82C108.32 122.98 107.6 124.12 106.44 124.4C103.01 125.21 95.5 126.65 85.53 126.65C76.49 126.65 68.58 125.24 64.78 124.42C63.7 124.19 63.19 122.93 63.82 122.03C68.58 115.17 68.79 105.46 68.75 102.71C68.74 102.24 68.98 101.79 69.37 101.52L72.38 99.5L67.86 99.79C67.86 99.79 67.17 98.3 66.77 97.56C66.52 97.11 66 96.19 66 96.19L69.2 95.32C69.2 95.32 65.22 94.9 65.07 94.67C64.77 94.2 64.46 93.72 64.14 93.26C63.61 92.48 62.61 91.12 62.16 90.5C62.04 90.33 62.1 90.1 62.28 90L65.04 88.65L60.53 87.52C59.95 87.38 59.44 87.05 59.04 86.59C58.37 85.8 57.21 84.44 56.09 83.12C55.28 82.18 56.05 80.76 57.27 80.91C61.23 81.38 67.52 82.18 70.21 82.64C76.12 83.65 83.67 85.11 90.5 89.63C96.8 93.79 102.48 100.55 105.73 111.99C106.02 112.99 106.43 114.7 106.86 116.51C107.29 118.39 107.74 120.38 108.06 121.82Z" fill="#8C96A0"/>
<path d="M106.86 116.51C107.29 118.39 107.74 120.38 108.06 121.82C108.32 122.98 107.6 124.12 106.44 124.4C103.01 125.21 95.5 126.65 85.53 126.65C76.49 126.65 68.58 125.24 64.78 124.42C63.7 124.19 63.19 122.93 63.82 122.03C68.58 115.17 68.79 105.46 68.75 102.71C68.74 102.24 68.98 101.79 69.37 101.52L72.38 99.5L67.86 99.79C67.86 99.79 67.17 98.3 66.77 97.56C66.52 97.11 66 96.19 66 96.19L69.2 95.32C69.2 95.32 65.22 94.9 65.07 94.67C64.77 94.2 64.46 93.72 64.14 93.26C63.61 92.48 62.61 91.12 62.16 90.5C62.04 90.33 62.1 90.1 62.28 90L65.04 88.65L60.53 87.52C59.95 87.38 59.44 87.05 59.04 86.59C58.37 85.8 57.21 84.44 56.09 83.12C55.28 82.18 56.05 80.76 57.27 80.91C61.23 81.38 67.52 82.18 70.21 82.64C76.12 83.65 83.67 85.11 90.5 89.63C96.8 93.79 102.48 100.55 105.73 111.99C106.02 112.99 106.43 114.7 106.86 116.51Z" stroke="#3A3A3C" stroke-width="2" stroke-linecap="round" stroke-linejoin="round"/>
<path d="M90.5 89.64L98.1 28.42H160.66L155.71 117.76C155.71 117.76 147.55 119.28 144.8 119.61C128.89 121.53 117.39 119.76 107.94 116.28" stroke="#3A3A3C" stroke-width="2" stroke-linecap="round" stroke-linejoin="round"/>
<path d="M155.7 117.76H159.51C165.31 117.76 171.07 117.02 176.67 115.55C177.12 115.43 177.44 115.02 177.45 114.55L178.49 30.75L160.64 28.42" stroke="#3A3A3C" stroke-width="2" stroke-linecap="round" stroke-linejoin="round"/>
<path d="M108.9 28.42L109.93 20.62C111.2 11.1 119.31 4 128.91 4C130.56 4 132.16 4.21 133.68 4.6C141.98 6.73 148.06 14.26 148.06 23.13C148.06 23.43 148.05 23.74 148.04 24.04L147.9 27.29" stroke="#3A3A3C" stroke-width="2" stroke-linecap="round" stroke-linejoin="round"/>
<path d="M118.39 28.42L119.43 20.62C120.48 12.72 126.25 6.49 133.67 4.6C135.19 4.21 136.78 4 138.41 4C149.03 4 157.56 12.63 157.56 23.13C157.56 23.44 157.55 23.74 157.54 24.04L157.39 27.29" stroke="#3A3A3C" stroke-width="2" stroke-linecap="round" stroke-linejoin="round"/>
<path d="M115.71 51.61H144.8L141.71 79.95L135.29 83.68C130.34 87.71 120.7 86.84 117.23 81.72L113.02 78.45L115.71 51.61Z" stroke="#3A3A3C" stroke-width="2" stroke-linecap="round" stroke-linejoin="round"/>
<path d="M123.44 76.2L133.04 76.37L131.45 70.37C131.1 69.07 131.46 67.68 132.29 66.48C132.96 65.51 133.31 64.35 133.22 63.13C133.07 61.13 131.59 59.46 129.52 58.92C129.41 58.88 129.29 58.85 129.17 58.83C125.57 58.11 122.08 60.63 121.73 63.88C121.62 64.93 121.84 65.92 122.34 66.75C123.02 67.91 123.21 69.28 122.67 70.58L120.4 76.16L123.44 76.21V76.2Z" stroke="#3A3A3C" stroke-width="2" stroke-linecap="round" stroke-linejoin="round"/>
<path d="M129.58 58.89C129.58 58.89 129.54 58.9 129.52 58.91C127.03 59.49 125.04 61.5 124.77 63.92C124.66 64.97 124.88 65.96 125.38 66.79C126.06 67.95 126.25 69.32 125.71 70.62L123.44 76.2" stroke="#3A3A3C" stroke-width="2" stroke-linecap="round" stroke-linejoin="round"/>
<path d="M52.98 114.82C36.94 118.77 41.15 124.32 54.39 127.86C70.01 132.04 86.63 132.44 102.96 131.59" stroke="#3A3A3C" stroke-width="2" stroke-linecap="round" stroke-linejoin="round"/>
<path d="M182.45 109.57C193.93 110.89 200.74 114.54 200.15 117.77C199.08 123.78 178.54 125.16 178.54 125.16" stroke="#3A3A3C" stroke-width="2" stroke-linecap="round" stroke-linejoin="round"/>
<path d="M144.03 124.48C148.06 124.48 153.01 124.25 155.7 121.86C155.7 121.86 166.92 123.7 175.75 120.4" stroke="#3A3A3C" stroke-width="2" stroke-linecap="round" stroke-linejoin="round"/>
<path d="M167.57 74.41L165.13 116.01" stroke="#3A3A3C" stroke-width="2" stroke-linecap="round" stroke-linejoin="round"/>
<path d="M182.45 103.78C182.45 103.78 214.2 104.95 217.53 116.48C220.47 126.66 203.07 132.04 182.45 132.04" stroke="#3A3A3C" stroke-width="2" stroke-linecap="round" stroke-linejoin="round"/>
<path d="M63.3 105.53C63.3 105.53 14.01 109.65 23.12 123.51C31.01 135.48 63.29 135.86 63.29 135.86" stroke="#3A3A3C" stroke-width="2" stroke-linecap="round" stroke-linejoin="round"/>
<path d="M59.01 112.76C59.01 112.76 64.21 111.59 65.97 111.43" stroke="#3A3A3C" stroke-width="2" stroke-linecap="round" stroke-linejoin="round"/>
<path d="M131.28 126.65C131.28 126.65 144.79 130.71 157.56 125.15C157.56 125.15 160.43 125.49 164.07 125.52" stroke="#3A3A3C" stroke-width="2" stroke-linecap="round" stroke-linejoin="round"/>
</svg>
