<?xml version="1.0" encoding="utf-8"?>
<!-- Generator: Adobe Illustrator 24.0.1, SVG Export Plug-In . SVG Version: 6.00 Build 0)  -->
<svg version="1.1" id="Layer_1" xmlns="http://www.w3.org/2000/svg" xmlns:xlink="http://www.w3.org/1999/xlink" x="0px" y="0px"
	 width="140px" height="60px" viewBox="0 0 140 60" style="enable-background:new 0 0 140 60;" xml:space="preserve">
<style type="text/css">
	.st0{fill:#FFFFFF;}
</style>
<g>
	<path class="st0" d="M96.3,40.9c0-0.3-0.1-0.4-0.6-0.4c-0.1,0-0.3,0-0.4,0v1.3h0.3v-0.4h0.1l0.2,0.4h0.4L96,41.3
		C96.2,41.2,96.3,41.1,96.3,40.9 M95.7,41.1h-0.1v-0.4c0,0,0.1,0,0.1,0c0.3,0,0.3,0.1,0.3,0.2C96,41.1,95.9,41.1,95.7,41.1"/>
	<path class="st0" d="M95.8,39.8c-0.9,0-1.3,0.4-1.3,1.3c0,0.9,0.4,1.3,1.3,1.3c0.9,0,1.3-0.4,1.3-1.3
		C97.1,40.3,96.6,39.8,95.8,39.8 M95.8,42.2c-0.8,0-1.1-0.3-1.1-1.1c0-0.8,0.3-1,1.1-1c0.7,0,1.1,0.3,1.1,1
		C96.8,41.9,96.5,42.2,95.8,42.2"/>
	<path class="st0" d="M10,28.1c0-0.2,0-0.3,0.3-0.3h8.5c0.2,0,0.3,0,0.3,0.3v2.6c0,0.2,0,0.3-0.3,0.3h-5.3v3.1h4.4
		c0.2,0,0.3,0,0.3,0.3v2.5c0,0.2,0,0.3-0.3,0.3h-4.4v4.8c0,0.2,0,0.3-0.3,0.3h-3c-0.2,0-0.3,0-0.3-0.3V28.1z"/>
	<path class="st0" d="M20.7,37.1c-0.2,0-0.3,0-0.3-0.3v-2.5c0-0.2,0-0.3,0.3-0.3H25c0.2,0,0.3,0,0.3,0.3v2.5c0,0.2,0,0.3-0.3,0.3
		H20.7z"/>
	<path class="st0" d="M30.1,31.8c0,0.9,0.6,1.1,2.7,1.8c3.1,0.9,4.2,2.1,4.2,4.5c0,3.1-2.6,4.4-5.6,4.4c-1.7,0-3.3-0.5-4.2-1
		c-0.1-0.1-0.2-0.1-0.2-0.3v-1.9c0-0.2,0-0.2,0.2-0.2c0.3,0,2.2,0.5,4,0.5c1.6,0,2.4-0.4,2.4-1.4c0-1-0.7-1.2-2.6-1.7
		c-3.2-0.9-4.3-2.1-4.3-4.4c0-2.8,2.3-4.4,5-4.4c1.6,0,2.9,0.3,4.2,1c0.2,0.1,0.2,0.1,0.2,0.3v1.9c0,0.2-0.1,0.2-0.2,0.2
		c-0.4,0-2.1-0.5-4-0.5C30.6,30.5,30.1,31,30.1,31.8"/>
	<path class="st0" d="M41.9,37.7c0.1,1.5,1,2,2.8,2c1.9,0,3.3-0.5,3.6-0.5c0.1,0,0.2,0,0.2,0.2v1.8c0,0.2-0.1,0.3-0.3,0.3
		c-1,0.4-2.5,0.9-4.2,0.9c-3.6,0-5.6-1.6-5.6-5.6c0-3.7,2-5.8,5.5-5.8c3.9,0,5.1,2.3,5.1,5.5v0.9c0,0.2,0,0.3-0.3,0.3
		C48.7,37.7,41.9,37.7,41.9,37.7z M41.9,35.8h3.9c0-1.6-0.5-2.2-1.8-2.2C42.7,33.6,41.9,34.2,41.9,35.8"/>
	<path class="st0" d="M55.8,31.1c1.4,0,2.8,0.4,3.7,0.8c0.2,0.1,0.2,0.1,0.2,0.4V34c0,0.1,0,0.2-0.2,0.2c-0.3,0-1.6-0.4-3.2-0.4
		c-1.9,0-2.6,1-2.6,2.9c0,1.9,0.7,2.9,2.6,2.9c1.5,0,2.9-0.5,3.3-0.5c0.1,0,0.2,0.1,0.2,0.2v1.8c0,0.2,0,0.3-0.2,0.4
		c-0.9,0.4-2.4,0.8-3.8,0.8c-3.7,0-5.5-2.3-5.5-5.7C50.4,33.4,52.1,31.1,55.8,31.1"/>
	<path class="st0" d="M66.8,42.4c-3,0-5.2-0.9-5.2-4.4v-6.5c0-0.2,0-0.3,0.3-0.3h2.9c0.2,0,0.3,0,0.3,0.3v6c0,1.5,0.5,2.1,2,2.1
		c0.6,0,1.2,0,1.7-0.1v-8.1c0-0.2,0-0.3,0.3-0.3h2.9c0.2,0,0.3,0,0.3,0.3v10c0,0.2,0,0.2-0.2,0.3C70.4,42.2,68.5,42.4,66.8,42.4"/>
	<path class="st0" d="M79.5,33.9c-0.6,0-1.2,0.1-1.6,0.2v7.8c0,0.2,0,0.3-0.3,0.3h-2.9c-0.2,0-0.3,0-0.3-0.3v-9.7
		c0-0.2,0.1-0.2,0.2-0.3c1.3-0.5,2.7-0.9,4.2-0.9c0.9,0,1.8,0.1,2.6,0.3c0.1,0,0.2,0.1,0.2,0.2v2.2c0,0.2-0.1,0.2-0.2,0.2
		C81.2,34.1,80.6,33.9,79.5,33.9"/>
	<path class="st0" d="M85.8,37.7c0.1,1.5,1,2,2.8,2c1.9,0,3.3-0.5,3.6-0.5c0.1,0,0.2,0,0.2,0.2v1.8c0,0.2-0.1,0.3-0.3,0.3
		c-1,0.4-2.5,0.9-4.2,0.9c-3.6,0-5.6-1.6-5.6-5.6c0-3.7,2-5.8,5.5-5.8c3.9,0,5.1,2.3,5.1,5.5v0.9c0,0.2-0.1,0.3-0.3,0.3
		C92.7,37.7,85.8,37.7,85.8,37.7z M85.8,35.8h3.9c0-1.6-0.5-2.2-1.8-2.2C86.7,33.6,85.9,34.2,85.8,35.8"/>
	<path class="st0" d="M129.9,16.6c-11.1-3.9-22.7-4-32.9-0.9c-2.2,0.7-2.8,2.5-2.4,4.1c0.6,2.4,1.4,5.1,2.5,7.6c0,0,0,0,0,0
		c-0.1-1.2,0.7-2.6,2.5-3.2c9.7-2.9,18.2-2.2,25.8,0.3c1.3,0.4,2.7-0.3,3.1-1.6c1-3.3,1.5-5.6,1.6-6.2
		C130,16.7,129.9,16.6,129.9,16.6"/>
	<path class="st0" d="M104.3,23.9c-1.3,0.3-3,0.7-4.4,1.1c-2.6,0.9-2.5,4.1-1.1,5.1c0.1-0.6,0.7-1.4,1.4-1.7c2.6-1,5.5-1.7,8.3-1.9
		C107.2,26,105.7,25.2,104.3,23.9"/>
	<path class="st0" d="M125.3,30.3c-7.6-3.7-16.8-3.9-24.4-1c-1.2,0.5-2,2-1.2,3.5c1.3,2.3,2.9,4.8,4.7,7.1c-0.3-0.9,0.2-2.5,1.9-3
		c4.7-1.4,9.6-0.8,12.8,0.5c0.9,0.4,2.2,0.2,2.9-0.9c1.6-2.4,3.1-5.3,3.4-6C125.4,30.5,125.4,30.4,125.3,30.3"/>
	<path class="st0" d="M117.7,41.8c-0.8-0.2-2.9-1.9-3.7-2.7c-0.5-0.5-1.2-1.2-2-2.1c-1.8,0-3.5,0.2-5.4,0.8
		c-1.7,0.5-1.9,2.5-1.1,3.6c1.3,1.6,2.2,2.4,3.6,3.9c1.5,1.5,4.1,1.6,5.7,0c1.1-1.1,1.8-1.9,3.1-3.3C117.9,42,117.9,41.9,117.7,41.8
		"/>
</g>
</svg>
