<svg width="153" height="152" viewBox="0 0 153 152" fill="none" xmlns="http://www.w3.org/2000/svg">
<g clip-path="url(#clip0_169_20180)">
<path d="M76.5 152C118.474 152 152.5 117.974 152.5 76C152.5 34.0264 118.474 0 76.5 0C34.5264 0 0.5 34.0264 0.5 76C0.5 117.974 34.5264 152 76.5 152Z" fill="#D7EDFF"/>
<path d="M15.0294 74.894L18.8904 78.7141L13.6069 83.9416V91.8834L19.7032 98.0157V114.905L25.1898 120.434V108.571L41.3449 92.3861V83.7406H35.7567L31.0829 79.1162H22.8529L15.8422 72.0792H12.5909V66.9522H21.6337L36.1631 52.3755V47.6506H30.5749L26.3075 43.4284V52.1744H19.8048L15.131 47.5501L19.5 44.1321V39.4072H9.94919C5.377 47.6506 2.32887 56.7988 1.10962 66.5501L9.64438 74.894H15.0294Z" fill="#2297FF"/>
<path d="M55.5696 35.2862C55.5696 32.4714 53.3343 30.2598 50.591 30.2598H39.7193L34.7407 35.2862L40.9386 41.519V44.2333L45.3076 49.3603L55.6712 39.0058V35.2862H55.5696Z" fill="#2297FF"/>
<path d="M16.0455 35.7884C16.0455 34.4816 15.1311 33.2752 13.8103 32.9736C12.7942 34.381 11.8798 35.889 10.9653 37.3969H15.9439V35.7884H16.0455Z" fill="#2297FF"/>
<path d="M27.8315 37.3965H23.7673L29.254 42.9256C29.9652 43.6293 30.8796 44.0314 31.7941 44.0314H35.8582L30.3716 38.6028C29.6604 37.7986 28.7459 37.3965 27.8315 37.3965Z" fill="#2297FF"/>
<path d="M17.2647 29.8569L15.3342 31.968L17.1631 33.7776C17.5695 34.2802 18.3824 34.2802 18.7888 33.7776L20.8209 31.767L18.8904 29.8569C18.484 29.3543 17.6711 29.4548 17.2647 29.8569Z" fill="#2297FF"/>
<path d="M121.511 38.4017H114.906L109.623 43.6293H98.5481L93.5695 38.6028H87.8797L80.7674 45.6398L83.5107 47.952L88.4893 43.0261L90.4198 44.9361L87.1685 48.1531V50.7668H79.7514L76.5 54.0843V56.7986H73.5535L68.0669 62.3277L72.131 66.3488L77.1096 61.4229H79.9546L83.3075 64.7404H88.7941L90.7246 62.8303H93.5695L98.9546 68.1584L95.7032 71.3753H87.1685L86.762 70.9732C85.238 69.4652 83.3075 68.661 81.1738 68.661H74.4679L67.5588 75.5975V83.3382L74.7727 90.5763H82.0883V96.206C82.0883 98.3171 82.9011 100.328 84.4251 101.836L86.0508 103.444V107.968C86.0508 112.391 89.607 115.91 93.9759 115.91H94.6872L100.885 109.777V95.2007L105.356 90.6769C106.88 89.0684 106.88 86.5552 105.356 85.0472L96.7193 76.4017L99.4626 73.6875L104.035 78.3118C106.27 80.5234 109.928 80.5234 112.163 78.3118L112.773 77.6081L106.473 71.2748L107.794 69.9679L110.944 73.0843H115.313L121.003 78.8144L129.029 70.7721L137.158 78.915H141.832V73.6875L146.404 69.1636V64.2377H151.281L151.586 63.8356C149.858 52.8779 145.794 42.7245 139.901 33.8779H126.083L121.511 38.4017Z" fill="#2297FF"/>
<path d="M72.9439 54.5877H74.1631V49.2597C74.1631 48.2544 73.3503 47.3496 72.3342 47.3496H71.115V52.6777C71.115 53.7835 71.9278 54.5877 72.9439 54.5877Z" fill="#2297FF"/>
<path d="M68.3717 52.7774C68.3717 51.7721 67.5588 51.0684 66.6444 51.0684H64.6123V53.1795C64.6123 54.1848 65.4251 54.8885 66.3396 54.8885H68.3717V52.7774Z" fill="#2297FF"/>
<path d="M58.1096 44.4338C57.5 43.8307 56.484 43.8307 55.7727 44.4338L54.7567 45.4391C54.4519 45.7407 54.4519 46.1428 54.7567 46.4444L55.7727 47.4497C56.3824 48.0529 57.3984 48.0529 58.1096 47.4497L59.1257 46.4444C59.4305 46.1428 59.4305 45.7407 59.1257 45.4391L58.1096 44.4338Z" fill="#2297FF"/>
<path d="M149.147 92.8889H150.569C150.773 92.1852 150.874 91.381 151.077 90.6772H149.147V92.8889Z" fill="#2297FF"/>
<path d="M145.997 85.6511L147.725 87.3601L152.195 82.9368C152.297 82.1325 152.297 81.4288 152.398 80.6246L151.789 79.9209L145.997 85.6511Z" fill="#2297FF"/>
<path d="M136.447 84.7461L142.136 90.3757L143.762 88.6667L138.174 83.0371L136.447 84.7461Z" fill="#2297FF"/>
<path d="M104.238 100.831V107.265H106.27C107.997 107.265 109.521 105.857 109.521 104.048V97.6138H107.489C105.661 97.6138 104.238 99.0212 104.238 100.831Z" fill="#2297FF"/>
<path d="M45.5 24.4684C45.5 21.7464 47.5865 19.4277 50.0705 19.4277H102.929C105.513 19.4277 107.5 21.6456 107.5 24.4684V138.387C107.5 141.109 105.413 143.428 102.929 143.428H50.0705C47.4872 143.428 45.5 141.21 45.5 138.387V24.4684Z" fill="#0014A0"/>
<path d="M104.5 24.7715H48.5V126.771H104.5V24.7715Z" fill="white"/>
<path d="M72 135.02C72 132.541 74.021 130.52 76.5 130.52C78.979 130.52 81 132.541 81 135.02C81 137.498 78.979 139.52 76.5 139.52C74.021 139.52 72 137.498 72 135.02Z" stroke="white" stroke-miterlimit="10"/>
<path d="M59.5 20.9395H94V21.746C94 25.1736 91.2 27.9964 87.8 27.9964H65.8C62.4 27.9964 59.6 25.1736 59.6 21.746V20.9395H59.5Z" fill="#0014A0"/>
<path d="M84.3 24.4688H69.5" stroke="white" stroke-miterlimit="10"/>
<path d="M98.704 56.4719H53.9093C53.104 56.4719 52.5 55.8679 52.5 55.0626V46.003C52.5 45.1977 53.104 44.5938 53.9093 44.5938H98.704C99.5093 44.5938 100.113 45.1977 100.113 46.003V55.0626C100.113 55.8679 99.4086 56.4719 98.704 56.4719Z" fill="#F0F0F0"/>
<path d="M62.7675 54.257L60.4522 51.9418C60.9556 51.3378 61.2575 50.6332 61.2575 49.8279C61.2575 47.9153 59.6469 46.3047 57.7344 46.3047C55.8218 46.3047 54.2112 47.8146 54.2112 49.7272C54.2112 51.6398 55.8218 53.2504 57.7344 53.2504C58.5397 53.2504 59.2443 52.9484 59.8483 52.5458L62.1635 54.861C62.2642 54.9616 62.3648 54.9616 62.4655 54.9616C62.5661 54.9616 62.6668 54.9616 62.7675 54.861C62.9688 54.6597 62.9688 54.3577 62.7675 54.257ZM55.1171 49.7272C55.1171 48.3179 56.3251 47.11 57.7344 47.11C59.1436 47.11 60.3516 48.3179 60.3516 49.7272C60.3516 51.1365 59.1436 52.3444 57.7344 52.3444C56.3251 52.3444 55.1171 51.2371 55.1171 49.7272Z" fill="#0014A0"/>
<path fill-rule="evenodd" clip-rule="evenodd" d="M90.5 80C90.5 87.7324 84.2317 94 76.5 94C68.7683 94 62.5 87.7324 62.5 80C62.5 72.2676 68.7683 66 76.5 66C84.2317 66 90.5 72.2676 90.5 80Z" fill="#00A538"/>
<path fill-rule="evenodd" clip-rule="evenodd" d="M70.3197 79.3222C69.8612 78.8695 69.1225 78.8742 68.6698 79.3327C68.217 79.7911 68.2217 80.5298 68.6802 80.9825L73.2516 85.4967C73.7064 85.9457 74.4379 85.9453 74.8921 85.4956L84.3207 76.1623C84.7786 75.709 84.7823 74.9703 84.3291 74.5124C83.8758 74.0545 83.1371 74.0507 82.6792 74.504L74.0703 83.0259L70.3197 79.3222Z" fill="white"/>
</g>
<defs>
<clipPath id="clip0_169_20180">
<rect width="152" height="152" fill="white" transform="translate(0.5)"/>
</clipPath>
</defs>
</svg>
