<svg width="20" height="19" viewBox="0 0 20 19" fill="none" xmlns="http://www.w3.org/2000/svg">
<g id="Subtract">
<path d="M0 1C0 0.447715 0.447715 0 1 0H2.42682C3.17871 0 3.86707 0.421701 4.20859 1.09155L4.67177 2H18.9982C19.6832 2 20.1654 2.67322 19.945 3.32182L17.9333 9.24031L17.6267 8.68293C17.3251 8.13453 16.7511 7.91641 16.2328 8.02856L17.6021 4H5.81395L8.36324 9H15.1989L14.099 11H8.48586L7.12624 12H13.549L12.4491 14H7.12624C5.19474 14 4.38528 11.5333 5.94125 10.3889L6.49593 9.98089L2.42682 2H1C0.447715 2 0 1.55228 0 1Z" fill="#161616"/>
<path d="M8 19C9.10457 19 10 18.1046 10 17C10 15.8954 9.10457 15 8 15C6.89543 15 6 15.8954 6 17C6 18.1046 6.89543 19 8 19Z" fill="#161616"/>
</g>
</svg>
