<svg width="44" height="44" viewBox="0 0 44 44" fill="none" xmlns="http://www.w3.org/2000/svg">
<rect x="3" y="3" width="38" height="38" rx="8" fill="white"/>
<rect x="6" y="6" width="32" height="32" rx="5" fill="#A65B00"/>
<path opacity="0.6" d="M10 33.2164V10.8761C10 10.438 10.4384 10 10.8767 10H33.1233C33.6712 10 34 10.438 34 10.8761V33.1069C34 33.6544 33.5616 33.983 33.1233 33.983H10.9997C10.918 33.983 10.8367 33.9974 10.755 33.9998C10.3608 34.0112 10 33.6138 10 33.2164Z" fill="#FF8C00"/>
<path d="M24 41H41L32.5 26.55L24 41Z" fill="black"/>
<path d="M33.35 35.9H31.65V30.8H33.35V35.9ZM33.35 39.3H31.65V37.6H33.35V39.3Z" fill="white"/>
<path d="M20 16H31" stroke="black" stroke-width="2"/>
<path d="M20 27H31" stroke="black" stroke-width="2"/>
<path d="M14.0332 18.3809C14.0332 17.834 14.0996 17.3984 14.2324 17.0742C14.3652 16.75 14.6074 16.4316 14.959 16.1191C15.3145 15.8027 15.5508 15.5469 15.668 15.3516C15.7852 15.1523 15.8438 14.9434 15.8438 14.7246C15.8438 14.0645 15.5391 13.7344 14.9297 13.7344C14.6406 13.7344 14.4082 13.8242 14.2324 14.0039C14.0605 14.1797 13.9707 14.4238 13.9629 14.7363H12.2637C12.2715 13.9902 12.5117 13.4062 12.9844 12.9844C13.4609 12.5625 14.1094 12.3516 14.9297 12.3516C15.7578 12.3516 16.4004 12.5527 16.8574 12.9551C17.3145 13.3535 17.543 13.918 17.543 14.6484C17.543 14.9805 17.4688 15.2949 17.3203 15.5918C17.1719 15.8848 16.9121 16.2109 16.541 16.5703L16.0664 17.0215C15.7695 17.3066 15.5996 17.6406 15.5566 18.0234L15.5332 18.3809H14.0332ZM13.8633 20.1797C13.8633 19.918 13.9512 19.7031 14.127 19.5352C14.3066 19.3633 14.5352 19.2773 14.8125 19.2773C15.0898 19.2773 15.3164 19.3633 15.4922 19.5352C15.6719 19.7031 15.7617 19.918 15.7617 20.1797C15.7617 20.4375 15.6738 20.6504 15.498 20.8184C15.3262 20.9863 15.0977 21.0703 14.8125 21.0703C14.5273 21.0703 14.2969 20.9863 14.1211 20.8184C13.9492 20.6504 13.8633 20.4375 13.8633 20.1797Z" fill="black"/>
<path d="M14.0332 28.3809C14.0332 27.834 14.0996 27.3984 14.2324 27.0742C14.3652 26.75 14.6074 26.4316 14.959 26.1191C15.3145 25.8027 15.5508 25.5469 15.668 25.3516C15.7852 25.1523 15.8438 24.9434 15.8438 24.7246C15.8438 24.0645 15.5391 23.7344 14.9297 23.7344C14.6406 23.7344 14.4082 23.8242 14.2324 24.0039C14.0605 24.1797 13.9707 24.4238 13.9629 24.7363H12.2637C12.2715 23.9902 12.5117 23.4062 12.9844 22.9844C13.4609 22.5625 14.1094 22.3516 14.9297 22.3516C15.7578 22.3516 16.4004 22.5527 16.8574 22.9551C17.3145 23.3535 17.543 23.918 17.543 24.6484C17.543 24.9805 17.4688 25.2949 17.3203 25.5918C17.1719 25.8848 16.9121 26.2109 16.541 26.5703L16.0664 27.0215C15.7695 27.3066 15.5996 27.6406 15.5566 28.0234L15.5332 28.3809H14.0332ZM13.8633 30.1797C13.8633 29.918 13.9512 29.7031 14.127 29.5352C14.3066 29.3633 14.5352 29.2773 14.8125 29.2773C15.0898 29.2773 15.3164 29.3633 15.4922 29.5352C15.6719 29.7031 15.7617 29.918 15.7617 30.1797C15.7617 30.4375 15.6738 30.6504 15.498 30.8184C15.3262 30.9863 15.0977 31.0703 14.8125 31.0703C14.5273 31.0703 14.2969 30.9863 14.1211 30.8184C13.9492 30.6504 13.8633 30.4375 13.8633 30.1797Z" fill="black"/>
</svg>
